<?xml version="1.0" encoding="UTF-8" standalone="no"?>
<!-- Created with Inkscape (http://www.inkscape.org/) -->

<svg
   xmlns:dc="http://purl.org/dc/elements/1.1/"
   xmlns:cc="http://creativecommons.org/ns#"
   xmlns:rdf="http://www.w3.org/1999/02/22-rdf-syntax-ns#"
   xmlns:svg="http://www.w3.org/2000/svg"
   xmlns="http://www.w3.org/2000/svg"
   xmlns:sodipodi="http://sodipodi.sourceforge.net/DTD/sodipodi-0.dtd"
   xmlns:inkscape="http://www.inkscape.org/namespaces/inkscape"
   width="143.1794mm"
   height="152.99347mm"
   viewBox="0 0 143.1794 152.99347"
   version="1.1"
   id="svg8"
   inkscape:version="0.92.4 (5da689c313, 2019-01-14)"
   sodipodi:docname="Zad1fig0.svg">
  <defs
     id="defs2">
    <marker
       inkscape:isstock="true"
       style="overflow:visible"
       id="marker1831"
       refX="0"
       refY="0"
       orient="auto"
       inkscape:stockid="Arrow2Lend">
      <path
         transform="matrix(-1.1,0,0,-1.1,-1.1,0)"
         d="M 8.7185878,4.0337352 -2.2072895,0.01601326 8.7185884,-4.0017078 c -1.7454984,2.3720609 -1.7354408,5.6174519 -6e-7,8.035443 z"
         style="fill:#ff0000;fill-opacity:1;fill-rule:evenodd;stroke:#ff0000;stroke-width:0.625;stroke-linejoin:round;stroke-opacity:1"
         id="path1829"
         inkscape:connector-curvature="0" />
    </marker>
    <marker
       inkscape:stockid="Arrow2Lend"
       orient="auto"
       refY="0"
       refX="0"
       id="Arrow2Lend-4"
       style="overflow:visible"
       inkscape:isstock="true">
      <path
         inkscape:connector-curvature="0"
         id="path1002-1"
         style="fill:#1b641b;fill-opacity:1;fill-rule:evenodd;stroke:#1b641b;stroke-width:0.625;stroke-linejoin:round;stroke-opacity:1"
         d="M 8.7185878,4.0337352 -2.2072895,0.01601326 8.7185884,-4.0017078 c -1.7454984,2.3720609 -1.7354408,5.6174519 -6e-7,8.035443 z"
         transform="matrix(-1.1,0,0,-1.1,-1.1,0)" />
    </marker>
    <marker
       inkscape:stockid="Arrow2Lend"
       orient="auto"
       refY="0"
       refX="0"
       id="Arrow2Lend-4-1"
       style="overflow:visible"
       inkscape:isstock="true">
      <path
         inkscape:connector-curvature="0"
         id="path1002-1-0"
         style="fill:#1b641b;fill-opacity:1;fill-rule:evenodd;stroke:#1b641b;stroke-width:0.625;stroke-linejoin:round;stroke-opacity:1"
         d="M 8.7185878,4.0337352 -2.2072895,0.01601326 8.7185884,-4.0017078 c -1.7454984,2.3720609 -1.7354408,5.6174519 -6e-7,8.035443 z"
         transform="matrix(-1.1,0,0,-1.1,-1.1,0)" />
    </marker>
    <marker
       inkscape:isstock="true"
       style="overflow:visible"
       id="marker1831-3"
       refX="0"
       refY="0"
       orient="auto"
       inkscape:stockid="Arrow2Lend">
      <path
         inkscape:connector-curvature="0"
         transform="matrix(-1.1,0,0,-1.1,-1.1,0)"
         d="M 8.7185878,4.0337352 -2.2072895,0.01601326 8.7185884,-4.0017078 c -1.7454984,2.3720609 -1.7354408,5.6174519 -6e-7,8.035443 z"
         style="fill:#ff0000;fill-opacity:1;fill-rule:evenodd;stroke:#ff0000;stroke-width:0.625;stroke-linejoin:round;stroke-opacity:1"
         id="path1829-8" />
    </marker>
  </defs>
  <sodipodi:namedview
     id="base"
     pagecolor="#ffffff"
     bordercolor="#666666"
     borderopacity="1.0"
     inkscape:pageopacity="0.0"
     inkscape:pageshadow="2"
     inkscape:zoom="0.5"
     inkscape:cx="600.32642"
     inkscape:cy="145.80323"
     inkscape:document-units="mm"
     inkscape:current-layer="layer1"
     showgrid="false"
     inkscape:window-width="1920"
     inkscape:window-height="1017"
     inkscape:window-x="-8"
     inkscape:window-y="-8"
     inkscape:window-maximized="1"
     fit-margin-top="0"
     fit-margin-left="0"
     fit-margin-right="0"
     fit-margin-bottom="0" />
  <metadata
     id="metadata5">
    <rdf:RDF>
      <cc:Work
         rdf:about="">
        <dc:format>image/svg+xml</dc:format>
        <dc:type
           rdf:resource="http://purl.org/dc/dcmitype/StillImage" />
        <dc:title></dc:title>
      </cc:Work>
    </rdf:RDF>
  </metadata>
  <g
     inkscape:label="Layer 1"
     inkscape:groupmode="layer"
     id="layer1"
     transform="translate(-40.013535,-83)">
    <rect
       style="opacity:1;fill:none;fill-opacity:1;stroke:#000000;stroke-width:2;stroke-miterlimit:4;stroke-dasharray:none;stroke-opacity:1;paint-order:markers fill stroke"
       id="rect15"
       width="17.008924"
       height="38.175594"
       x="70.024612"
       y="196.81787" />
    <rect
       style="opacity:1;fill:none;fill-opacity:1;stroke:#000000;stroke-width:2;stroke-miterlimit:4;stroke-dasharray:none;stroke-opacity:1;paint-order:markers fill stroke"
       id="rect15-5"
       width="29.104164"
       height="38.175594"
       x="126.98124"
       y="196.28333" />
    <circle
       style="opacity:1;fill:none;fill-opacity:1;stroke:#000000;stroke-width:1.99999988;stroke-miterlimit:4;stroke-dasharray:none;stroke-opacity:1;paint-order:markers fill stroke"
       id="path859"
       cx="110"
       cy="115"
       r="31" />
    <circle
       style="opacity:1;fill:#000000;fill-opacity:1;stroke:#000000;stroke-width:2;stroke-miterlimit:4;stroke-dasharray:none;stroke-opacity:1;paint-order:markers fill stroke"
       id="path861"
       cx="110"
       cy="115"
       r="3.9999998" />
    <path
       style="fill:none;stroke:#000000;stroke-width:1;stroke-linecap:butt;stroke-linejoin:miter;stroke-miterlimit:4;stroke-dasharray:none;stroke-opacity:1"
       d="m 141.38558,116.05853 v 80.44813"
       id="path863"
       inkscape:connector-curvature="0" />
    <path
       style="fill:none;stroke:#000000;stroke-width:0.99999994;stroke-linecap:butt;stroke-linejoin:miter;stroke-miterlimit:4;stroke-dasharray:none;stroke-opacity:1"
       d="m 78.577238,117.92941 v 78.84451"
       id="path865"
       inkscape:connector-curvature="0" />
    <g
       aria-label="M"
       style="font-style:normal;font-variant:normal;font-weight:normal;font-stretch:normal;font-size:22.57777786px;line-height:1.25;font-family:Consolas;-inkscape-font-specification:Consolas;letter-spacing:11.64166641px;word-spacing:0px;writing-mode:lr-tb;fill:#000000;fill-opacity:1;stroke:none;stroke-width:0.26458332"
       id="text869">
      <path
         d="m 183.19294,222.96634 h -1.91823 l -0.28663,-8.98481 -0.12127,-3.45061 -0.67248,2.00643 -2.12769,5.73263 h -1.35599 l -2.02847,-5.51215 -0.67249,-2.22691 -0.0441,3.60495 -0.25356,8.83047 h -1.85209 l 0.70556,-14.40877 h 2.32613 l 1.94028,5.42396 0.62838,1.83003 0.60634,-1.83003 2.03949,-5.42396 h 2.39228 z"
         style="writing-mode:lr-tb;stroke-width:0.26458332"
         id="path875"
         inkscape:connector-curvature="0" />
    </g>
    <g
       aria-label="m"
       style="font-style:normal;font-variant:normal;font-weight:normal;font-stretch:normal;font-size:22.57777786px;line-height:1.25;font-family:Consolas;-inkscape-font-specification:Consolas;letter-spacing:0px;word-spacing:0px;writing-mode:lr-tb;fill:#000000;fill-opacity:1;stroke:none;stroke-width:0.26458332"
       id="text873">
      <path
         d="m 48.678643,221.62999 v -7.94852 q 0,-0.51815 -0.0441,-0.84888 -0.03307,-0.33073 -0.121267,-0.51814 -0.07717,-0.19844 -0.209462,-0.27561 -0.121267,-0.0772 -0.30868,-0.0772 -0.220486,0 -0.4079,0.1323 -0.187413,0.13229 -0.407899,0.42994 -0.209462,0.29766 -0.474045,0.79375 -0.253559,0.48507 -0.606337,1.20165 v 7.11068 H 44.34609 v -7.73906 q 0,-0.60634 -0.0441,-0.98117 -0.03307,-0.37482 -0.121267,-0.58428 -0.07717,-0.20947 -0.209462,-0.28664 -0.132292,-0.0772 -0.319705,-0.0772 -0.198437,0 -0.374826,0.11025 -0.176389,0.11024 -0.396875,0.39687 -0.209462,0.28663 -0.474045,0.78273 -0.264584,0.49609 -0.628386,1.26779 v 7.11068 h -1.763889 v -11.0684 h 1.466233 l 0.08819,2.10564 q 0.286632,-0.62839 0.551216,-1.06936 0.275607,-0.44097 0.562239,-0.70555 0.286632,-0.27561 0.606337,-0.39688 0.330729,-0.13229 0.727604,-0.13229 0.892969,0 1.35599,0.58429 0.463021,0.58429 0.463021,1.80798 0.264583,-0.57326 0.518142,-1.01423 0.253559,-0.452 0.540191,-0.74966 0.297656,-0.30868 0.650434,-0.46302 0.352778,-0.16536 0.815799,-0.16536 2.083593,0 2.083593,3.20807 v 8.05877 z"
         style="stroke-width:0.26458332"
         id="path878"
         inkscape:connector-curvature="0" />
    </g>
    <text
       xml:space="preserve"
       style="font-style:normal;font-variant:normal;font-weight:normal;font-stretch:normal;font-size:22.57777786px;line-height:1.25;font-family:Consolas;-inkscape-font-specification:Consolas;letter-spacing:0px;word-spacing:0px;writing-mode:lr-tb;fill:#000000;fill-opacity:1;stroke:none;stroke-width:0.26458332"
       x="154.25209"
       y="253.34375"
       id="text885"><tspan
         sodipodi:role="line"
         id="tspan883"
         x="0"
         y="0"
         style="stroke-width:0.26458332"><tspan
           id="tspan887"
           style="font-size:64.99999762%;baseline-shift:sub"><tspan
             style="font-size:22.57777786px"
             id="tspan889" /></tspan></tspan></text>
  </g>
</svg>
