<?xml version="1.0" encoding="UTF-8" standalone="no"?>
<!-- Created with Inkscape (http://www.inkscape.org/) -->

<svg
   xmlns:dc="http://purl.org/dc/elements/1.1/"
   xmlns:cc="http://creativecommons.org/ns#"
   xmlns:rdf="http://www.w3.org/1999/02/22-rdf-syntax-ns#"
   xmlns:svg="http://www.w3.org/2000/svg"
   xmlns="http://www.w3.org/2000/svg"
   xmlns:sodipodi="http://sodipodi.sourceforge.net/DTD/sodipodi-0.dtd"
   xmlns:inkscape="http://www.inkscape.org/namespaces/inkscape"
   width="210mm"
   height="297mm"
   viewBox="0 0 210 297"
   version="1.1"
   id="svg8"
   inkscape:version="0.92.4 (5da689c313, 2019-01-14)"
   sodipodi:docname="Zad2fig0.svg">
  <defs
     id="defs2">
    <marker
       inkscape:stockid="Arrow1Mend"
       orient="auto"
       refY="0.0"
       refX="0.0"
       id="Arrow1Mend"
       style="overflow:visible;"
       inkscape:isstock="true">
      <path
         id="path878"
         d="M 0.0,0.0 L 5.0,-5.0 L -12.5,0.0 L 5.0,5.0 L 0.0,0.0 z "
         style="fill-rule:evenodd;stroke:#0000ff;stroke-width:1pt;stroke-opacity:1;fill:#0000ff;fill-opacity:1"
         transform="scale(0.4) rotate(180) translate(10,0)" />
    </marker>
    <marker
       inkscape:stockid="Arrow2Lend"
       orient="auto"
       refY="0.0"
       refX="0.0"
       id="Arrow2Lend"
       style="overflow:visible;"
       inkscape:isstock="true">
      <path
         id="path890"
         style="fill-rule:evenodd;stroke-width:0.625;stroke-linejoin:round;stroke:#000000;stroke-opacity:1;fill:#000000;fill-opacity:1"
         d="M 8.7185878,4.0337352 L -2.2072895,0.016013256 L 8.7185884,-4.0017078 C 6.9730900,-1.6296469 6.9831476,1.6157441 8.7185878,4.0337352 z "
         transform="scale(1.1) rotate(180) translate(1,0)" />
    </marker>
    <marker
       inkscape:stockid="Arrow1Lend"
       orient="auto"
       refY="0.0"
       refX="0.0"
       id="Arrow1Lend"
       style="overflow:visible;"
       inkscape:isstock="true">
      <path
         id="path872"
         d="M 0.0,0.0 L 5.0,-5.0 L -12.5,0.0 L 5.0,5.0 L 0.0,0.0 z "
         style="fill-rule:evenodd;stroke:#000000;stroke-width:1pt;stroke-opacity:1;fill:#000000;fill-opacity:1"
         transform="scale(0.8) rotate(180) translate(12.5,0)" />
    </marker>
  </defs>
  <sodipodi:namedview
     id="base"
     pagecolor="#ffffff"
     bordercolor="#666666"
     borderopacity="1.0"
     inkscape:pageopacity="0.0"
     inkscape:pageshadow="2"
     inkscape:zoom="0.98994949"
     inkscape:cx="355.95032"
     inkscape:cy="667.5709"
     inkscape:document-units="mm"
     inkscape:current-layer="layer1"
     showgrid="false"
     inkscape:window-width="1920"
     inkscape:window-height="1017"
     inkscape:window-x="-8"
     inkscape:window-y="-8"
     inkscape:window-maximized="1" />
  <metadata
     id="metadata5">
    <rdf:RDF>
      <cc:Work
         rdf:about="">
        <dc:format>image/svg+xml</dc:format>
        <dc:type
           rdf:resource="http://purl.org/dc/dcmitype/StillImage" />
        <dc:title></dc:title>
      </cc:Work>
    </rdf:RDF>
  </metadata>
  <g
     inkscape:label="Layer 1"
     inkscape:groupmode="layer"
     id="layer1">
    <path
       style="opacity:1;fill:none;fill-opacity:1;stroke:#000000;stroke-width:2;stroke-linecap:butt;stroke-linejoin:miter;stroke-miterlimit:4;stroke-dasharray:none;stroke-dashoffset:0;stroke-opacity:1;paint-order:normal"
       d="m 158.97651,57.001994 0.31614,91.663426 H 35.765261 Z"
       id="rect827"
       inkscape:connector-curvature="0"
       sodipodi:nodetypes="cccc" />
    <g
       aria-label="α"
       style="font-style:normal;font-variant:normal;font-weight:normal;font-stretch:normal;font-size:22.57777786px;line-height:1.25;font-family:Consolas;-inkscape-font-specification:Consolas;letter-spacing:0px;word-spacing:0px;writing-mode:lr-tb;fill:#000000;fill-opacity:1;stroke:none;stroke-width:0.26458332"
       id="text845">
      <path
         d="m 62.888475,137.6839 q 0,-1.36702 0.341754,-2.45842 0.352777,-1.09141 0.970139,-1.85209 0.628385,-0.7717 1.488281,-1.1796 0.859896,-0.4079 1.89618,-0.4079 0.628386,0 1.190625,0.17639 0.56224,0.16537 1.036285,0.4961 0.474045,0.33073 0.826823,0.8158 0.352778,0.47404 0.56224,1.0914 l 0.396875,-2.38125 h 1.719791 l -1.058333,5.74366 v 0.1323 q 0,1.9072 0.418924,2.82222 0.429947,0.91502 1.311892,0.79375 v 1.57647 q -0.804774,0.12127 -1.322917,0.011 -0.518142,-0.11024 -0.859896,-0.4079 -0.330729,-0.30868 -0.529166,-0.79375 -0.187413,-0.48507 -0.330729,-1.11346 -0.551216,1.19063 -1.499306,1.85209 -0.94809,0.65043 -2.293056,0.65043 -1.080381,0 -1.885156,-0.4079 -0.79375,-0.4079 -1.322916,-1.1355 -0.529167,-0.73863 -0.79375,-1.76389 -0.264584,-1.02526 -0.264584,-2.25998 z m 1.962327,-0.12127 q 0,2.01745 0.672482,3.03168 0.683507,1.00322 2.017448,1.00322 0.595313,0 1.102431,-0.29766 0.507118,-0.29766 0.881944,-0.82682 0.385851,-0.54019 0.595313,-1.2678 0.220486,-0.7276 0.220486,-1.57647 v -0.19844 q 0,-0.8599 -0.176389,-1.5875 -0.176389,-0.73863 -0.529167,-1.2678 -0.341753,-0.54019 -0.848871,-0.83784 -0.507118,-0.29766 -1.157552,-0.29766 -0.672483,0 -1.190625,0.28663 -0.518143,0.28663 -0.870921,0.82682 -0.352777,0.52917 -0.540191,1.28985 -0.176388,0.76068 -0.176388,1.71979 z"
         style="stroke-width:0.26458332"
         id="path1332" />
    </g>
    <path
       style="fill:none;stroke:#000000;stroke-width:2;stroke-linecap:butt;stroke-linejoin:miter;stroke-opacity:1;stroke-miterlimit:4;stroke-dasharray:none"
       d="M 158.97651,57.001994 172.19535,43.783149"
       id="path847"
       inkscape:connector-curvature="0" />
    <circle
       style="opacity:1;fill:none;fill-opacity:1;stroke:#000000;stroke-width:2;stroke-linecap:butt;stroke-linejoin:miter;stroke-miterlimit:4;stroke-dasharray:none;stroke-dashoffset:0;stroke-opacity:1;paint-order:normal"
       id="path849"
       cx="171.79018"
       cy="44.322914"
       r="10.583333" />
    <rect
       style="opacity:1;fill:none;fill-opacity:1;stroke:#000000;stroke-width:2;stroke-linecap:butt;stroke-linejoin:miter;stroke-miterlimit:4;stroke-dasharray:none;stroke-dashoffset:0;stroke-opacity:1;paint-order:normal"
       id="rect851"
       width="19.777945"
       height="39.021351"
       x="172.38884"
       y="85.322533" />
    <path
       style="fill:none;stroke:#000000;stroke-width:2;stroke-linecap:butt;stroke-linejoin:miter;stroke-miterlimit:4;stroke-dasharray:none;stroke-opacity:1"
       d="M 182.27782,85.055262 V 46.301182"
       id="path853"
       inkscape:connector-curvature="0" />
    <g
       aria-label="M"
       style="font-style:normal;font-variant:normal;font-weight:normal;font-stretch:normal;font-size:22.57777786px;line-height:1.25;font-family:Consolas;-inkscape-font-specification:Consolas;letter-spacing:0px;word-spacing:0px;writing-mode:lr-tb;fill:#000000;fill-opacity:1;stroke:none;stroke-width:0.26458332"
       id="text857">
      <path
         d="m 207.51446,112.85129 h -1.91823 l -0.28663,-8.98481 -0.12127,-3.45061 -0.67248,2.00642 -2.12769,5.73264 h -1.35599 l -2.02848,-5.51215 -0.67248,-2.22691 -0.0441,3.60495 -0.25355,8.83047 h -1.85209 l 0.70556,-14.40877 h 2.32613 l 1.94027,5.42396 0.62839,1.83003 0.60634,-1.83003 2.03949,-5.42396 h 2.39228 z"
         style="stroke-width:0.26458332"
         id="path1314" />
    </g>
    <rect
       style="opacity:1;fill:none;fill-opacity:1;stroke:#000000;stroke-width:2;stroke-linecap:butt;stroke-linejoin:miter;stroke-miterlimit:4;stroke-dasharray:none;stroke-dashoffset:0;stroke-opacity:1;paint-order:normal"
       id="rect859"
       width="33.73119"
       height="20.847023"
       x="-7.2498517"
       y="118.0266"
       transform="rotate(-36.078953)" />
    <g
       aria-label="m"
       style="font-style:normal;font-variant:normal;font-weight:normal;font-stretch:normal;font-size:22.57777786px;line-height:1.25;font-family:Consolas;-inkscape-font-specification:Consolas;letter-spacing:0px;word-spacing:0px;writing-mode:lr-tb;fill:#000000;fill-opacity:1;stroke:none;stroke-width:0.26458332"
       id="text863"
       transform="translate(-24.054257,25.123336)">
      <path
         d="m 73.53471,83.718918 v -7.948524 q 0,-0.518143 -0.0441,-0.848872 -0.03307,-0.330729 -0.121267,-0.518142 -0.07717,-0.198438 -0.209462,-0.275608 -0.121268,-0.07717 -0.308681,-0.07717 -0.220486,0 -0.407899,0.132292 -0.187413,0.132291 -0.407899,0.429947 -0.209462,0.297657 -0.474045,0.79375 -0.25356,0.48507 -0.606337,1.20165 v 7.110677 h -1.752865 v -7.739063 q 0,-0.606336 -0.0441,-0.981163 -0.03307,-0.374826 -0.121267,-0.584288 -0.07717,-0.209462 -0.209462,-0.286632 -0.132292,-0.07717 -0.319705,-0.07717 -0.198438,0 -0.374827,0.110243 -0.176388,0.110243 -0.396875,0.396875 -0.209461,0.286632 -0.474045,0.782726 -0.264583,0.496093 -0.628385,1.267795 v 7.110677 H 64.869606 V 72.650515 h 1.466233 l 0.08819,2.105642 q 0.286632,-0.628385 0.551215,-1.069357 0.275608,-0.440972 0.56224,-0.705556 0.286632,-0.275607 0.606337,-0.396875 0.330729,-0.132291 0.727604,-0.132291 0.892969,0 1.35599,0.584288 0.46302,0.584288 0.46302,1.807986 0.264584,-0.573264 0.518143,-1.014236 0.253559,-0.451997 0.540191,-0.749653 0.297656,-0.308681 0.650434,-0.463021 0.352778,-0.165364 0.815798,-0.165364 2.083594,0 2.083594,3.208072 v 8.058768 z"
         style="stroke-width:0.26458332"
         id="path1311"
         inkscape:connector-curvature="0" />
    </g>
    <path
       style="fill:none;stroke:#000000;stroke-width:2;stroke-linecap:butt;stroke-linejoin:miter;stroke-miterlimit:4;stroke-dasharray:none;stroke-opacity:1"
       d="M 98.090115,89.602243 165.17036,36.141542"
       id="path865"
       inkscape:connector-curvature="0" />
  </g>
</svg>
