<?xml version="1.0" encoding="utf-8" standalone="no"?>
<!DOCTYPE svg PUBLIC "-//W3C//DTD SVG 1.1//EN"
  "http://www.w3.org/Graphics/SVG/1.1/DTD/svg11.dtd">
<!-- Created with matplotlib (https://matplotlib.org/) -->
<svg height="345.6pt" version="1.1" viewBox="0 0 460.8 345.6" width="460.8pt" xmlns="http://www.w3.org/2000/svg" xmlns:xlink="http://www.w3.org/1999/xlink">
 <metadata>
  <rdf:RDF xmlns:cc="http://creativecommons.org/ns#" xmlns:dc="http://purl.org/dc/elements/1.1/" xmlns:rdf="http://www.w3.org/1999/02/22-rdf-syntax-ns#">
   <cc:Work>
    <dc:type rdf:resource="http://purl.org/dc/dcmitype/StillImage"/>
    <dc:date>2020-08-31T20:06:17.686377</dc:date>
    <dc:format>image/svg+xml</dc:format>
    <dc:creator>
     <cc:Agent>
      <dc:title>Matplotlib v3.3.1, https://matplotlib.org/</dc:title>
     </cc:Agent>
    </dc:creator>
   </cc:Work>
  </rdf:RDF>
 </metadata>
 <defs>
  <style type="text/css">*{stroke-linecap:butt;stroke-linejoin:round;}</style>
 </defs>
 <g id="figure_1">
  <g id="patch_1">
   <path d="M 0 345.6 
L 460.8 345.6 
L 460.8 0 
L 0 0 
z
" style="fill:#ffffff;"/>
  </g>
  <g id="axes_1">
   <g id="patch_2">
    <path d="M 57.6 307.584 
L 414.72 307.584 
L 414.72 41.472 
L 57.6 41.472 
z
" style="fill:#ffffff;"/>
   </g>
   <g id="matplotlib.axis_1">
    <g id="xtick_1">
     <g id="line2d_1">
      <path clip-path="url(#p36a85112c4)" d="M 73.832727 307.584 
L 73.832727 41.472 
" style="fill:none;stroke:#b0b0b0;stroke-linecap:square;stroke-width:0.8;"/>
     </g>
     <g id="line2d_2">
      <defs>
       <path d="M 0 0 
L 0 3.5 
" id="macc52622de" style="stroke:#000000;stroke-width:0.8;"/>
      </defs>
      <g>
       <use style="stroke:#000000;stroke-width:0.8;" x="73.832727" xlink:href="#macc52622de" y="307.584"/>
      </g>
     </g>
     <g id="text_1">
      <!-- 0 -->
      <g transform="translate(70.651477 322.182437)scale(0.1 -0.1)">
       <defs>
        <path d="M 31.78125 66.40625 
Q 24.171875 66.40625 20.328125 58.90625 
Q 16.5 51.421875 16.5 36.375 
Q 16.5 21.390625 20.328125 13.890625 
Q 24.171875 6.390625 31.78125 6.390625 
Q 39.453125 6.390625 43.28125 13.890625 
Q 47.125 21.390625 47.125 36.375 
Q 47.125 51.421875 43.28125 58.90625 
Q 39.453125 66.40625 31.78125 66.40625 
z
M 31.78125 74.21875 
Q 44.046875 74.21875 50.515625 64.515625 
Q 56.984375 54.828125 56.984375 36.375 
Q 56.984375 17.96875 50.515625 8.265625 
Q 44.046875 -1.421875 31.78125 -1.421875 
Q 19.53125 -1.421875 13.0625 8.265625 
Q 6.59375 17.96875 6.59375 36.375 
Q 6.59375 54.828125 13.0625 64.515625 
Q 19.53125 74.21875 31.78125 74.21875 
z
" id="DejaVuSans-48"/>
       </defs>
       <use xlink:href="#DejaVuSans-48"/>
      </g>
     </g>
    </g>
    <g id="xtick_2">
     <g id="line2d_3">
      <path clip-path="url(#p36a85112c4)" d="M 138.763636 307.584 
L 138.763636 41.472 
" style="fill:none;stroke:#b0b0b0;stroke-linecap:square;stroke-width:0.8;"/>
     </g>
     <g id="line2d_4">
      <g>
       <use style="stroke:#000000;stroke-width:0.8;" x="138.763636" xlink:href="#macc52622de" y="307.584"/>
      </g>
     </g>
     <g id="text_2">
      <!-- 20 -->
      <g transform="translate(132.401136 322.182437)scale(0.1 -0.1)">
       <defs>
        <path d="M 19.1875 8.296875 
L 53.609375 8.296875 
L 53.609375 0 
L 7.328125 0 
L 7.328125 8.296875 
Q 12.9375 14.109375 22.625 23.890625 
Q 32.328125 33.6875 34.8125 36.53125 
Q 39.546875 41.84375 41.421875 45.53125 
Q 43.3125 49.21875 43.3125 52.78125 
Q 43.3125 58.59375 39.234375 62.25 
Q 35.15625 65.921875 28.609375 65.921875 
Q 23.96875 65.921875 18.8125 64.3125 
Q 13.671875 62.703125 7.8125 59.421875 
L 7.8125 69.390625 
Q 13.765625 71.78125 18.9375 73 
Q 24.125 74.21875 28.421875 74.21875 
Q 39.75 74.21875 46.484375 68.546875 
Q 53.21875 62.890625 53.21875 53.421875 
Q 53.21875 48.921875 51.53125 44.890625 
Q 49.859375 40.875 45.40625 35.40625 
Q 44.1875 33.984375 37.640625 27.21875 
Q 31.109375 20.453125 19.1875 8.296875 
z
" id="DejaVuSans-50"/>
       </defs>
       <use xlink:href="#DejaVuSans-50"/>
       <use x="63.623047" xlink:href="#DejaVuSans-48"/>
      </g>
     </g>
    </g>
    <g id="xtick_3">
     <g id="line2d_5">
      <path clip-path="url(#p36a85112c4)" d="M 203.694545 307.584 
L 203.694545 41.472 
" style="fill:none;stroke:#b0b0b0;stroke-linecap:square;stroke-width:0.8;"/>
     </g>
     <g id="line2d_6">
      <g>
       <use style="stroke:#000000;stroke-width:0.8;" x="203.694545" xlink:href="#macc52622de" y="307.584"/>
      </g>
     </g>
     <g id="text_3">
      <!-- 40 -->
      <g transform="translate(197.332045 322.182437)scale(0.1 -0.1)">
       <defs>
        <path d="M 37.796875 64.3125 
L 12.890625 25.390625 
L 37.796875 25.390625 
z
M 35.203125 72.90625 
L 47.609375 72.90625 
L 47.609375 25.390625 
L 58.015625 25.390625 
L 58.015625 17.1875 
L 47.609375 17.1875 
L 47.609375 0 
L 37.796875 0 
L 37.796875 17.1875 
L 4.890625 17.1875 
L 4.890625 26.703125 
z
" id="DejaVuSans-52"/>
       </defs>
       <use xlink:href="#DejaVuSans-52"/>
       <use x="63.623047" xlink:href="#DejaVuSans-48"/>
      </g>
     </g>
    </g>
    <g id="xtick_4">
     <g id="line2d_7">
      <path clip-path="url(#p36a85112c4)" d="M 268.625455 307.584 
L 268.625455 41.472 
" style="fill:none;stroke:#b0b0b0;stroke-linecap:square;stroke-width:0.8;"/>
     </g>
     <g id="line2d_8">
      <g>
       <use style="stroke:#000000;stroke-width:0.8;" x="268.625455" xlink:href="#macc52622de" y="307.584"/>
      </g>
     </g>
     <g id="text_4">
      <!-- 60 -->
      <g transform="translate(262.262955 322.182437)scale(0.1 -0.1)">
       <defs>
        <path d="M 33.015625 40.375 
Q 26.375 40.375 22.484375 35.828125 
Q 18.609375 31.296875 18.609375 23.390625 
Q 18.609375 15.53125 22.484375 10.953125 
Q 26.375 6.390625 33.015625 6.390625 
Q 39.65625 6.390625 43.53125 10.953125 
Q 47.40625 15.53125 47.40625 23.390625 
Q 47.40625 31.296875 43.53125 35.828125 
Q 39.65625 40.375 33.015625 40.375 
z
M 52.59375 71.296875 
L 52.59375 62.3125 
Q 48.875 64.0625 45.09375 64.984375 
Q 41.3125 65.921875 37.59375 65.921875 
Q 27.828125 65.921875 22.671875 59.328125 
Q 17.53125 52.734375 16.796875 39.40625 
Q 19.671875 43.65625 24.015625 45.921875 
Q 28.375 48.1875 33.59375 48.1875 
Q 44.578125 48.1875 50.953125 41.515625 
Q 57.328125 34.859375 57.328125 23.390625 
Q 57.328125 12.15625 50.6875 5.359375 
Q 44.046875 -1.421875 33.015625 -1.421875 
Q 20.359375 -1.421875 13.671875 8.265625 
Q 6.984375 17.96875 6.984375 36.375 
Q 6.984375 53.65625 15.1875 63.9375 
Q 23.390625 74.21875 37.203125 74.21875 
Q 40.921875 74.21875 44.703125 73.484375 
Q 48.484375 72.75 52.59375 71.296875 
z
" id="DejaVuSans-54"/>
       </defs>
       <use xlink:href="#DejaVuSans-54"/>
       <use x="63.623047" xlink:href="#DejaVuSans-48"/>
      </g>
     </g>
    </g>
    <g id="xtick_5">
     <g id="line2d_9">
      <path clip-path="url(#p36a85112c4)" d="M 333.556364 307.584 
L 333.556364 41.472 
" style="fill:none;stroke:#b0b0b0;stroke-linecap:square;stroke-width:0.8;"/>
     </g>
     <g id="line2d_10">
      <g>
       <use style="stroke:#000000;stroke-width:0.8;" x="333.556364" xlink:href="#macc52622de" y="307.584"/>
      </g>
     </g>
     <g id="text_5">
      <!-- 80 -->
      <g transform="translate(327.193864 322.182437)scale(0.1 -0.1)">
       <defs>
        <path d="M 31.78125 34.625 
Q 24.75 34.625 20.71875 30.859375 
Q 16.703125 27.09375 16.703125 20.515625 
Q 16.703125 13.921875 20.71875 10.15625 
Q 24.75 6.390625 31.78125 6.390625 
Q 38.8125 6.390625 42.859375 10.171875 
Q 46.921875 13.96875 46.921875 20.515625 
Q 46.921875 27.09375 42.890625 30.859375 
Q 38.875 34.625 31.78125 34.625 
z
M 21.921875 38.8125 
Q 15.578125 40.375 12.03125 44.71875 
Q 8.5 49.078125 8.5 55.328125 
Q 8.5 64.0625 14.71875 69.140625 
Q 20.953125 74.21875 31.78125 74.21875 
Q 42.671875 74.21875 48.875 69.140625 
Q 55.078125 64.0625 55.078125 55.328125 
Q 55.078125 49.078125 51.53125 44.71875 
Q 48 40.375 41.703125 38.8125 
Q 48.828125 37.15625 52.796875 32.3125 
Q 56.78125 27.484375 56.78125 20.515625 
Q 56.78125 9.90625 50.3125 4.234375 
Q 43.84375 -1.421875 31.78125 -1.421875 
Q 19.734375 -1.421875 13.25 4.234375 
Q 6.78125 9.90625 6.78125 20.515625 
Q 6.78125 27.484375 10.78125 32.3125 
Q 14.796875 37.15625 21.921875 38.8125 
z
M 18.3125 54.390625 
Q 18.3125 48.734375 21.84375 45.5625 
Q 25.390625 42.390625 31.78125 42.390625 
Q 38.140625 42.390625 41.71875 45.5625 
Q 45.3125 48.734375 45.3125 54.390625 
Q 45.3125 60.0625 41.71875 63.234375 
Q 38.140625 66.40625 31.78125 66.40625 
Q 25.390625 66.40625 21.84375 63.234375 
Q 18.3125 60.0625 18.3125 54.390625 
z
" id="DejaVuSans-56"/>
       </defs>
       <use xlink:href="#DejaVuSans-56"/>
       <use x="63.623047" xlink:href="#DejaVuSans-48"/>
      </g>
     </g>
    </g>
    <g id="xtick_6">
     <g id="line2d_11">
      <path clip-path="url(#p36a85112c4)" d="M 398.487273 307.584 
L 398.487273 41.472 
" style="fill:none;stroke:#b0b0b0;stroke-linecap:square;stroke-width:0.8;"/>
     </g>
     <g id="line2d_12">
      <g>
       <use style="stroke:#000000;stroke-width:0.8;" x="398.487273" xlink:href="#macc52622de" y="307.584"/>
      </g>
     </g>
     <g id="text_6">
      <!-- 100 -->
      <g transform="translate(388.943523 322.182437)scale(0.1 -0.1)">
       <defs>
        <path d="M 12.40625 8.296875 
L 28.515625 8.296875 
L 28.515625 63.921875 
L 10.984375 60.40625 
L 10.984375 69.390625 
L 28.421875 72.90625 
L 38.28125 72.90625 
L 38.28125 8.296875 
L 54.390625 8.296875 
L 54.390625 0 
L 12.40625 0 
z
" id="DejaVuSans-49"/>
       </defs>
       <use xlink:href="#DejaVuSans-49"/>
       <use x="63.623047" xlink:href="#DejaVuSans-48"/>
       <use x="127.246094" xlink:href="#DejaVuSans-48"/>
      </g>
     </g>
    </g>
    <g id="text_7">
     <!-- Liczba atomów -->
     <g transform="translate(198.681875 335.860562)scale(0.1 -0.1)">
      <defs>
       <path d="M 9.8125 72.90625 
L 19.671875 72.90625 
L 19.671875 8.296875 
L 55.171875 8.296875 
L 55.171875 0 
L 9.8125 0 
z
" id="DejaVuSans-76"/>
       <path d="M 9.421875 54.6875 
L 18.40625 54.6875 
L 18.40625 0 
L 9.421875 0 
z
M 9.421875 75.984375 
L 18.40625 75.984375 
L 18.40625 64.59375 
L 9.421875 64.59375 
z
" id="DejaVuSans-105"/>
       <path d="M 48.78125 52.59375 
L 48.78125 44.1875 
Q 44.96875 46.296875 41.140625 47.34375 
Q 37.3125 48.390625 33.40625 48.390625 
Q 24.65625 48.390625 19.8125 42.84375 
Q 14.984375 37.3125 14.984375 27.296875 
Q 14.984375 17.28125 19.8125 11.734375 
Q 24.65625 6.203125 33.40625 6.203125 
Q 37.3125 6.203125 41.140625 7.25 
Q 44.96875 8.296875 48.78125 10.40625 
L 48.78125 2.09375 
Q 45.015625 0.34375 40.984375 -0.53125 
Q 36.96875 -1.421875 32.421875 -1.421875 
Q 20.0625 -1.421875 12.78125 6.34375 
Q 5.515625 14.109375 5.515625 27.296875 
Q 5.515625 40.671875 12.859375 48.328125 
Q 20.21875 56 33.015625 56 
Q 37.15625 56 41.109375 55.140625 
Q 45.0625 54.296875 48.78125 52.59375 
z
" id="DejaVuSans-99"/>
       <path d="M 5.515625 54.6875 
L 48.1875 54.6875 
L 48.1875 46.484375 
L 14.40625 7.171875 
L 48.1875 7.171875 
L 48.1875 0 
L 4.296875 0 
L 4.296875 8.203125 
L 38.09375 47.515625 
L 5.515625 47.515625 
z
" id="DejaVuSans-122"/>
       <path d="M 48.6875 27.296875 
Q 48.6875 37.203125 44.609375 42.84375 
Q 40.53125 48.484375 33.40625 48.484375 
Q 26.265625 48.484375 22.1875 42.84375 
Q 18.109375 37.203125 18.109375 27.296875 
Q 18.109375 17.390625 22.1875 11.75 
Q 26.265625 6.109375 33.40625 6.109375 
Q 40.53125 6.109375 44.609375 11.75 
Q 48.6875 17.390625 48.6875 27.296875 
z
M 18.109375 46.390625 
Q 20.953125 51.265625 25.265625 53.625 
Q 29.59375 56 35.59375 56 
Q 45.5625 56 51.78125 48.09375 
Q 58.015625 40.1875 58.015625 27.296875 
Q 58.015625 14.40625 51.78125 6.484375 
Q 45.5625 -1.421875 35.59375 -1.421875 
Q 29.59375 -1.421875 25.265625 0.953125 
Q 20.953125 3.328125 18.109375 8.203125 
L 18.109375 0 
L 9.078125 0 
L 9.078125 75.984375 
L 18.109375 75.984375 
z
" id="DejaVuSans-98"/>
       <path d="M 34.28125 27.484375 
Q 23.390625 27.484375 19.1875 25 
Q 14.984375 22.515625 14.984375 16.5 
Q 14.984375 11.71875 18.140625 8.90625 
Q 21.296875 6.109375 26.703125 6.109375 
Q 34.1875 6.109375 38.703125 11.40625 
Q 43.21875 16.703125 43.21875 25.484375 
L 43.21875 27.484375 
z
M 52.203125 31.203125 
L 52.203125 0 
L 43.21875 0 
L 43.21875 8.296875 
Q 40.140625 3.328125 35.546875 0.953125 
Q 30.953125 -1.421875 24.3125 -1.421875 
Q 15.921875 -1.421875 10.953125 3.296875 
Q 6 8.015625 6 15.921875 
Q 6 25.140625 12.171875 29.828125 
Q 18.359375 34.515625 30.609375 34.515625 
L 43.21875 34.515625 
L 43.21875 35.40625 
Q 43.21875 41.609375 39.140625 45 
Q 35.0625 48.390625 27.6875 48.390625 
Q 23 48.390625 18.546875 47.265625 
Q 14.109375 46.140625 10.015625 43.890625 
L 10.015625 52.203125 
Q 14.9375 54.109375 19.578125 55.046875 
Q 24.21875 56 28.609375 56 
Q 40.484375 56 46.34375 49.84375 
Q 52.203125 43.703125 52.203125 31.203125 
z
" id="DejaVuSans-97"/>
       <path id="DejaVuSans-32"/>
       <path d="M 18.3125 70.21875 
L 18.3125 54.6875 
L 36.8125 54.6875 
L 36.8125 47.703125 
L 18.3125 47.703125 
L 18.3125 18.015625 
Q 18.3125 11.328125 20.140625 9.421875 
Q 21.96875 7.515625 27.59375 7.515625 
L 36.8125 7.515625 
L 36.8125 0 
L 27.59375 0 
Q 17.1875 0 13.234375 3.875 
Q 9.28125 7.765625 9.28125 18.015625 
L 9.28125 47.703125 
L 2.6875 47.703125 
L 2.6875 54.6875 
L 9.28125 54.6875 
L 9.28125 70.21875 
z
" id="DejaVuSans-116"/>
       <path d="M 30.609375 48.390625 
Q 23.390625 48.390625 19.1875 42.75 
Q 14.984375 37.109375 14.984375 27.296875 
Q 14.984375 17.484375 19.15625 11.84375 
Q 23.34375 6.203125 30.609375 6.203125 
Q 37.796875 6.203125 41.984375 11.859375 
Q 46.1875 17.53125 46.1875 27.296875 
Q 46.1875 37.015625 41.984375 42.703125 
Q 37.796875 48.390625 30.609375 48.390625 
z
M 30.609375 56 
Q 42.328125 56 49.015625 48.375 
Q 55.71875 40.765625 55.71875 27.296875 
Q 55.71875 13.875 49.015625 6.21875 
Q 42.328125 -1.421875 30.609375 -1.421875 
Q 18.84375 -1.421875 12.171875 6.21875 
Q 5.515625 13.875 5.515625 27.296875 
Q 5.515625 40.765625 12.171875 48.375 
Q 18.84375 56 30.609375 56 
z
" id="DejaVuSans-111"/>
       <path d="M 52 44.1875 
Q 55.375 50.25 60.0625 53.125 
Q 64.75 56 71.09375 56 
Q 79.640625 56 84.28125 50.015625 
Q 88.921875 44.046875 88.921875 33.015625 
L 88.921875 0 
L 79.890625 0 
L 79.890625 32.71875 
Q 79.890625 40.578125 77.09375 44.375 
Q 74.3125 48.1875 68.609375 48.1875 
Q 61.625 48.1875 57.5625 43.546875 
Q 53.515625 38.921875 53.515625 30.90625 
L 53.515625 0 
L 44.484375 0 
L 44.484375 32.71875 
Q 44.484375 40.625 41.703125 44.40625 
Q 38.921875 48.1875 33.109375 48.1875 
Q 26.21875 48.1875 22.15625 43.53125 
Q 18.109375 38.875 18.109375 30.90625 
L 18.109375 0 
L 9.078125 0 
L 9.078125 54.6875 
L 18.109375 54.6875 
L 18.109375 46.1875 
Q 21.1875 51.21875 25.484375 53.609375 
Q 29.78125 56 35.6875 56 
Q 41.65625 56 45.828125 52.96875 
Q 50 49.953125 52 44.1875 
z
" id="DejaVuSans-109"/>
       <path d="M 30.609375 48.390625 
Q 23.390625 48.390625 19.1875 42.75 
Q 14.984375 37.109375 14.984375 27.296875 
Q 14.984375 17.484375 19.15625 11.84375 
Q 23.34375 6.203125 30.609375 6.203125 
Q 37.796875 6.203125 41.984375 11.859375 
Q 46.1875 17.53125 46.1875 27.296875 
Q 46.1875 37.015625 41.984375 42.703125 
Q 37.796875 48.390625 30.609375 48.390625 
z
M 30.609375 56 
Q 42.328125 56 49.015625 48.375 
Q 55.71875 40.765625 55.71875 27.296875 
Q 55.71875 13.875 49.015625 6.21875 
Q 42.328125 -1.421875 30.609375 -1.421875 
Q 18.84375 -1.421875 12.171875 6.21875 
Q 5.515625 13.875 5.515625 27.296875 
Q 5.515625 40.765625 12.171875 48.375 
Q 18.84375 56 30.609375 56 
z
M 37.40625 79.984375 
L 47.125 79.984375 
L 31.21875 61.625 
L 23.734375 61.625 
z
" id="DejaVuSans-243"/>
       <path d="M 4.203125 54.6875 
L 13.1875 54.6875 
L 24.421875 12.015625 
L 35.59375 54.6875 
L 46.1875 54.6875 
L 57.421875 12.015625 
L 68.609375 54.6875 
L 77.59375 54.6875 
L 63.28125 0 
L 52.6875 0 
L 40.921875 44.828125 
L 29.109375 0 
L 18.5 0 
z
" id="DejaVuSans-119"/>
      </defs>
      <use xlink:href="#DejaVuSans-76"/>
      <use x="55.712891" xlink:href="#DejaVuSans-105"/>
      <use x="83.496094" xlink:href="#DejaVuSans-99"/>
      <use x="138.476562" xlink:href="#DejaVuSans-122"/>
      <use x="190.966797" xlink:href="#DejaVuSans-98"/>
      <use x="254.443359" xlink:href="#DejaVuSans-97"/>
      <use x="315.722656" xlink:href="#DejaVuSans-32"/>
      <use x="347.509766" xlink:href="#DejaVuSans-97"/>
      <use x="408.789062" xlink:href="#DejaVuSans-116"/>
      <use x="447.998047" xlink:href="#DejaVuSans-111"/>
      <use x="509.179688" xlink:href="#DejaVuSans-109"/>
      <use x="606.591797" xlink:href="#DejaVuSans-243"/>
      <use x="667.773438" xlink:href="#DejaVuSans-119"/>
     </g>
    </g>
   </g>
   <g id="matplotlib.axis_2">
    <g id="ytick_1">
     <g id="line2d_13">
      <path clip-path="url(#p36a85112c4)" d="M 57.6 295.488 
L 414.72 295.488 
" style="fill:none;stroke:#b0b0b0;stroke-linecap:square;stroke-width:0.8;"/>
     </g>
     <g id="line2d_14">
      <defs>
       <path d="M 0 0 
L -3.5 0 
" id="md181fc080a" style="stroke:#000000;stroke-width:0.8;"/>
      </defs>
      <g>
       <use style="stroke:#000000;stroke-width:0.8;" x="57.6" xlink:href="#md181fc080a" y="295.488"/>
      </g>
     </g>
     <g id="text_8">
      <!-- 0.0 -->
      <g transform="translate(34.696875 299.287219)scale(0.1 -0.1)">
       <defs>
        <path d="M 10.6875 12.40625 
L 21 12.40625 
L 21 0 
L 10.6875 0 
z
" id="DejaVuSans-46"/>
       </defs>
       <use xlink:href="#DejaVuSans-48"/>
       <use x="63.623047" xlink:href="#DejaVuSans-46"/>
       <use x="95.410156" xlink:href="#DejaVuSans-48"/>
      </g>
     </g>
    </g>
    <g id="ytick_2">
     <g id="line2d_15">
      <path clip-path="url(#p36a85112c4)" d="M 57.6 255.301621 
L 414.72 255.301621 
" style="fill:none;stroke:#b0b0b0;stroke-linecap:square;stroke-width:0.8;"/>
     </g>
     <g id="line2d_16">
      <g>
       <use style="stroke:#000000;stroke-width:0.8;" x="57.6" xlink:href="#md181fc080a" y="255.301621"/>
      </g>
     </g>
     <g id="text_9">
      <!-- 0.1 -->
      <g transform="translate(34.696875 259.100839)scale(0.1 -0.1)">
       <use xlink:href="#DejaVuSans-48"/>
       <use x="63.623047" xlink:href="#DejaVuSans-46"/>
       <use x="95.410156" xlink:href="#DejaVuSans-49"/>
      </g>
     </g>
    </g>
    <g id="ytick_3">
     <g id="line2d_17">
      <path clip-path="url(#p36a85112c4)" d="M 57.6 215.115241 
L 414.72 215.115241 
" style="fill:none;stroke:#b0b0b0;stroke-linecap:square;stroke-width:0.8;"/>
     </g>
     <g id="line2d_18">
      <g>
       <use style="stroke:#000000;stroke-width:0.8;" x="57.6" xlink:href="#md181fc080a" y="215.115241"/>
      </g>
     </g>
     <g id="text_10">
      <!-- 0.2 -->
      <g transform="translate(34.696875 218.91446)scale(0.1 -0.1)">
       <use xlink:href="#DejaVuSans-48"/>
       <use x="63.623047" xlink:href="#DejaVuSans-46"/>
       <use x="95.410156" xlink:href="#DejaVuSans-50"/>
      </g>
     </g>
    </g>
    <g id="ytick_4">
     <g id="line2d_19">
      <path clip-path="url(#p36a85112c4)" d="M 57.6 174.928862 
L 414.72 174.928862 
" style="fill:none;stroke:#b0b0b0;stroke-linecap:square;stroke-width:0.8;"/>
     </g>
     <g id="line2d_20">
      <g>
       <use style="stroke:#000000;stroke-width:0.8;" x="57.6" xlink:href="#md181fc080a" y="174.928862"/>
      </g>
     </g>
     <g id="text_11">
      <!-- 0.3 -->
      <g transform="translate(34.696875 178.72808)scale(0.1 -0.1)">
       <defs>
        <path d="M 40.578125 39.3125 
Q 47.65625 37.796875 51.625 33 
Q 55.609375 28.21875 55.609375 21.1875 
Q 55.609375 10.40625 48.1875 4.484375 
Q 40.765625 -1.421875 27.09375 -1.421875 
Q 22.515625 -1.421875 17.65625 -0.515625 
Q 12.796875 0.390625 7.625 2.203125 
L 7.625 11.71875 
Q 11.71875 9.328125 16.59375 8.109375 
Q 21.484375 6.890625 26.8125 6.890625 
Q 36.078125 6.890625 40.9375 10.546875 
Q 45.796875 14.203125 45.796875 21.1875 
Q 45.796875 27.640625 41.28125 31.265625 
Q 36.765625 34.90625 28.71875 34.90625 
L 20.21875 34.90625 
L 20.21875 43.015625 
L 29.109375 43.015625 
Q 36.375 43.015625 40.234375 45.921875 
Q 44.09375 48.828125 44.09375 54.296875 
Q 44.09375 59.90625 40.109375 62.90625 
Q 36.140625 65.921875 28.71875 65.921875 
Q 24.65625 65.921875 20.015625 65.03125 
Q 15.375 64.15625 9.8125 62.3125 
L 9.8125 71.09375 
Q 15.4375 72.65625 20.34375 73.4375 
Q 25.25 74.21875 29.59375 74.21875 
Q 40.828125 74.21875 47.359375 69.109375 
Q 53.90625 64.015625 53.90625 55.328125 
Q 53.90625 49.265625 50.4375 45.09375 
Q 46.96875 40.921875 40.578125 39.3125 
z
" id="DejaVuSans-51"/>
       </defs>
       <use xlink:href="#DejaVuSans-48"/>
       <use x="63.623047" xlink:href="#DejaVuSans-46"/>
       <use x="95.410156" xlink:href="#DejaVuSans-51"/>
      </g>
     </g>
    </g>
    <g id="ytick_5">
     <g id="line2d_21">
      <path clip-path="url(#p36a85112c4)" d="M 57.6 134.742482 
L 414.72 134.742482 
" style="fill:none;stroke:#b0b0b0;stroke-linecap:square;stroke-width:0.8;"/>
     </g>
     <g id="line2d_22">
      <g>
       <use style="stroke:#000000;stroke-width:0.8;" x="57.6" xlink:href="#md181fc080a" y="134.742482"/>
      </g>
     </g>
     <g id="text_12">
      <!-- 0.4 -->
      <g transform="translate(34.696875 138.541701)scale(0.1 -0.1)">
       <use xlink:href="#DejaVuSans-48"/>
       <use x="63.623047" xlink:href="#DejaVuSans-46"/>
       <use x="95.410156" xlink:href="#DejaVuSans-52"/>
      </g>
     </g>
    </g>
    <g id="ytick_6">
     <g id="line2d_23">
      <path clip-path="url(#p36a85112c4)" d="M 57.6 94.556103 
L 414.72 94.556103 
" style="fill:none;stroke:#b0b0b0;stroke-linecap:square;stroke-width:0.8;"/>
     </g>
     <g id="line2d_24">
      <g>
       <use style="stroke:#000000;stroke-width:0.8;" x="57.6" xlink:href="#md181fc080a" y="94.556103"/>
      </g>
     </g>
     <g id="text_13">
      <!-- 0.5 -->
      <g transform="translate(34.696875 98.355321)scale(0.1 -0.1)">
       <defs>
        <path d="M 10.796875 72.90625 
L 49.515625 72.90625 
L 49.515625 64.59375 
L 19.828125 64.59375 
L 19.828125 46.734375 
Q 21.96875 47.46875 24.109375 47.828125 
Q 26.265625 48.1875 28.421875 48.1875 
Q 40.625 48.1875 47.75 41.5 
Q 54.890625 34.8125 54.890625 23.390625 
Q 54.890625 11.625 47.5625 5.09375 
Q 40.234375 -1.421875 26.90625 -1.421875 
Q 22.3125 -1.421875 17.546875 -0.640625 
Q 12.796875 0.140625 7.71875 1.703125 
L 7.71875 11.625 
Q 12.109375 9.234375 16.796875 8.0625 
Q 21.484375 6.890625 26.703125 6.890625 
Q 35.15625 6.890625 40.078125 11.328125 
Q 45.015625 15.765625 45.015625 23.390625 
Q 45.015625 31 40.078125 35.4375 
Q 35.15625 39.890625 26.703125 39.890625 
Q 22.75 39.890625 18.8125 39.015625 
Q 14.890625 38.140625 10.796875 36.28125 
z
" id="DejaVuSans-53"/>
       </defs>
       <use xlink:href="#DejaVuSans-48"/>
       <use x="63.623047" xlink:href="#DejaVuSans-46"/>
       <use x="95.410156" xlink:href="#DejaVuSans-53"/>
      </g>
     </g>
    </g>
    <g id="ytick_7">
     <g id="line2d_25">
      <path clip-path="url(#p36a85112c4)" d="M 57.6 54.369723 
L 414.72 54.369723 
" style="fill:none;stroke:#b0b0b0;stroke-linecap:square;stroke-width:0.8;"/>
     </g>
     <g id="line2d_26">
      <g>
       <use style="stroke:#000000;stroke-width:0.8;" x="57.6" xlink:href="#md181fc080a" y="54.369723"/>
      </g>
     </g>
     <g id="text_14">
      <!-- 0.6 -->
      <g transform="translate(34.696875 58.168942)scale(0.1 -0.1)">
       <use xlink:href="#DejaVuSans-48"/>
       <use x="63.623047" xlink:href="#DejaVuSans-46"/>
       <use x="95.410156" xlink:href="#DejaVuSans-54"/>
      </g>
     </g>
    </g>
    <g id="text_15">
     <!-- Gęstość zderzeń -->
     <g transform="translate(28.617187 215.845969)rotate(-90)scale(0.1 -0.1)">
      <defs>
       <path d="M 59.515625 10.40625 
L 59.515625 29.984375 
L 43.40625 29.984375 
L 43.40625 38.09375 
L 69.28125 38.09375 
L 69.28125 6.78125 
Q 63.578125 2.734375 56.6875 0.65625 
Q 49.8125 -1.421875 42 -1.421875 
Q 24.90625 -1.421875 15.25 8.5625 
Q 5.609375 18.5625 5.609375 36.375 
Q 5.609375 54.25 15.25 64.234375 
Q 24.90625 74.21875 42 74.21875 
Q 49.125 74.21875 55.546875 72.453125 
Q 61.96875 70.703125 67.390625 67.28125 
L 67.390625 56.78125 
Q 61.921875 61.421875 55.765625 63.765625 
Q 49.609375 66.109375 42.828125 66.109375 
Q 29.4375 66.109375 22.71875 58.640625 
Q 16.015625 51.171875 16.015625 36.375 
Q 16.015625 21.625 22.71875 14.15625 
Q 29.4375 6.6875 42.828125 6.6875 
Q 48.046875 6.6875 52.140625 7.59375 
Q 56.25 8.5 59.515625 10.40625 
z
" id="DejaVuSans-71"/>
       <path d="M 56.203125 29.59375 
L 56.203125 25.203125 
L 14.890625 25.203125 
Q 15.484375 15.921875 20.484375 11.0625 
Q 25.484375 6.203125 34.421875 6.203125 
Q 39.59375 6.203125 44.453125 7.46875 
Q 49.3125 8.734375 54.109375 11.28125 
L 54.109375 2.78125 
Q 49.265625 0.734375 44.1875 -0.34375 
Q 39.109375 -1.421875 33.890625 -1.421875 
Q 20.796875 -1.421875 13.15625 6.1875 
Q 5.515625 13.8125 5.515625 26.8125 
Q 5.515625 40.234375 12.765625 48.109375 
Q 20.015625 56 32.328125 56 
Q 43.359375 56 49.78125 48.890625 
Q 56.203125 41.796875 56.203125 29.59375 
z
M 47.21875 32.234375 
Q 47.125 39.59375 43.09375 43.984375 
Q 39.0625 48.390625 32.421875 48.390625 
Q 24.90625 48.390625 20.390625 44.140625 
Q 15.875 39.890625 15.1875 32.171875 
z
M 39.859375 0 
L 45.671875 0 
Q 43.46875 -2.984375 42.421875 -5.125 
Q 41.375 -7.28125 41.375 -8.796875 
Q 41.375 -11.03125 42.71875 -12.15625 
Q 44.0625 -13.28125 46.703125 -13.28125 
Q 48.265625 -13.28125 49.765625 -12.90625 
Q 51.28125 -12.546875 52.796875 -11.8125 
L 52.796875 -18.3125 
Q 50.9375 -18.796875 49.28125 -19.03125 
Q 47.625 -19.28125 46.15625 -19.28125 
Q 40.203125 -19.28125 37.390625 -17.15625 
Q 34.59375 -15.046875 34.59375 -10.5 
Q 34.59375 -8.15625 35.875 -5.59375 
Q 37.171875 -3.03125 39.859375 0 
z
" id="DejaVuSans-281"/>
       <path d="M 44.28125 53.078125 
L 44.28125 44.578125 
Q 40.484375 46.53125 36.375 47.5 
Q 32.28125 48.484375 27.875 48.484375 
Q 21.1875 48.484375 17.84375 46.4375 
Q 14.5 44.390625 14.5 40.28125 
Q 14.5 37.15625 16.890625 35.375 
Q 19.28125 33.59375 26.515625 31.984375 
L 29.59375 31.296875 
Q 39.15625 29.25 43.1875 25.515625 
Q 47.21875 21.78125 47.21875 15.09375 
Q 47.21875 7.46875 41.1875 3.015625 
Q 35.15625 -1.421875 24.609375 -1.421875 
Q 20.21875 -1.421875 15.453125 -0.5625 
Q 10.6875 0.296875 5.421875 2 
L 5.421875 11.28125 
Q 10.40625 8.6875 15.234375 7.390625 
Q 20.0625 6.109375 24.8125 6.109375 
Q 31.15625 6.109375 34.5625 8.28125 
Q 37.984375 10.453125 37.984375 14.40625 
Q 37.984375 18.0625 35.515625 20.015625 
Q 33.0625 21.96875 24.703125 23.78125 
L 21.578125 24.515625 
Q 13.234375 26.265625 9.515625 29.90625 
Q 5.8125 33.546875 5.8125 39.890625 
Q 5.8125 47.609375 11.28125 51.796875 
Q 16.75 56 26.8125 56 
Q 31.78125 56 36.171875 55.265625 
Q 40.578125 54.546875 44.28125 53.078125 
z
" id="DejaVuSans-115"/>
       <path d="M 35.03125 79.984375 
L 44.75 79.984375 
L 28.84375 61.625 
L 21.359375 61.625 
z
M 44.28125 53.078125 
L 44.28125 44.578125 
Q 40.484375 46.53125 36.375 47.5 
Q 32.28125 48.484375 27.875 48.484375 
Q 21.1875 48.484375 17.84375 46.4375 
Q 14.5 44.390625 14.5 40.28125 
Q 14.5 37.15625 16.890625 35.375 
Q 19.28125 33.59375 26.515625 31.984375 
L 29.59375 31.296875 
Q 39.15625 29.25 43.1875 25.515625 
Q 47.21875 21.78125 47.21875 15.09375 
Q 47.21875 7.46875 41.1875 3.015625 
Q 35.15625 -1.421875 24.609375 -1.421875 
Q 20.21875 -1.421875 15.453125 -0.5625 
Q 10.6875 0.296875 5.421875 2 
L 5.421875 11.28125 
Q 10.40625 8.6875 15.234375 7.390625 
Q 20.0625 6.109375 24.8125 6.109375 
Q 31.15625 6.109375 34.5625 8.28125 
Q 37.984375 10.453125 37.984375 14.40625 
Q 37.984375 18.0625 35.515625 20.015625 
Q 33.0625 21.96875 24.703125 23.78125 
L 21.578125 24.515625 
Q 13.234375 26.265625 9.515625 29.90625 
Q 5.8125 33.546875 5.8125 39.890625 
Q 5.8125 47.609375 11.28125 51.796875 
Q 16.75 56 26.8125 56 
Q 31.78125 56 36.171875 55.265625 
Q 40.578125 54.546875 44.28125 53.078125 
z
" id="DejaVuSans-347"/>
       <path d="M 48.78125 52.59375 
L 48.78125 44.1875 
Q 44.96875 46.296875 41.140625 47.34375 
Q 37.3125 48.390625 33.40625 48.390625 
Q 24.65625 48.390625 19.8125 42.84375 
Q 14.984375 37.3125 14.984375 27.296875 
Q 14.984375 17.28125 19.8125 11.734375 
Q 24.65625 6.203125 33.40625 6.203125 
Q 37.3125 6.203125 41.140625 7.25 
Q 44.96875 8.296875 48.78125 10.40625 
L 48.78125 2.09375 
Q 45.015625 0.34375 40.984375 -0.53125 
Q 36.96875 -1.421875 32.421875 -1.421875 
Q 20.0625 -1.421875 12.78125 6.34375 
Q 5.515625 14.109375 5.515625 27.296875 
Q 5.515625 40.671875 12.859375 48.328125 
Q 20.21875 56 33.015625 56 
Q 37.15625 56 41.109375 55.140625 
Q 45.0625 54.296875 48.78125 52.59375 
z
M 38.53125 79.984375 
L 48.25 79.984375 
L 32.34375 61.625 
L 24.859375 61.625 
z
" id="DejaVuSans-263"/>
       <path d="M 45.40625 46.390625 
L 45.40625 75.984375 
L 54.390625 75.984375 
L 54.390625 0 
L 45.40625 0 
L 45.40625 8.203125 
Q 42.578125 3.328125 38.25 0.953125 
Q 33.9375 -1.421875 27.875 -1.421875 
Q 17.96875 -1.421875 11.734375 6.484375 
Q 5.515625 14.40625 5.515625 27.296875 
Q 5.515625 40.1875 11.734375 48.09375 
Q 17.96875 56 27.875 56 
Q 33.9375 56 38.25 53.625 
Q 42.578125 51.265625 45.40625 46.390625 
z
M 14.796875 27.296875 
Q 14.796875 17.390625 18.875 11.75 
Q 22.953125 6.109375 30.078125 6.109375 
Q 37.203125 6.109375 41.296875 11.75 
Q 45.40625 17.390625 45.40625 27.296875 
Q 45.40625 37.203125 41.296875 42.84375 
Q 37.203125 48.484375 30.078125 48.484375 
Q 22.953125 48.484375 18.875 42.84375 
Q 14.796875 37.203125 14.796875 27.296875 
z
" id="DejaVuSans-100"/>
       <path d="M 56.203125 29.59375 
L 56.203125 25.203125 
L 14.890625 25.203125 
Q 15.484375 15.921875 20.484375 11.0625 
Q 25.484375 6.203125 34.421875 6.203125 
Q 39.59375 6.203125 44.453125 7.46875 
Q 49.3125 8.734375 54.109375 11.28125 
L 54.109375 2.78125 
Q 49.265625 0.734375 44.1875 -0.34375 
Q 39.109375 -1.421875 33.890625 -1.421875 
Q 20.796875 -1.421875 13.15625 6.1875 
Q 5.515625 13.8125 5.515625 26.8125 
Q 5.515625 40.234375 12.765625 48.109375 
Q 20.015625 56 32.328125 56 
Q 43.359375 56 49.78125 48.890625 
Q 56.203125 41.796875 56.203125 29.59375 
z
M 47.21875 32.234375 
Q 47.125 39.59375 43.09375 43.984375 
Q 39.0625 48.390625 32.421875 48.390625 
Q 24.90625 48.390625 20.390625 44.140625 
Q 15.875 39.890625 15.1875 32.171875 
z
" id="DejaVuSans-101"/>
       <path d="M 41.109375 46.296875 
Q 39.59375 47.171875 37.8125 47.578125 
Q 36.03125 48 33.890625 48 
Q 26.265625 48 22.1875 43.046875 
Q 18.109375 38.09375 18.109375 28.8125 
L 18.109375 0 
L 9.078125 0 
L 9.078125 54.6875 
L 18.109375 54.6875 
L 18.109375 46.1875 
Q 20.953125 51.171875 25.484375 53.578125 
Q 30.03125 56 36.53125 56 
Q 37.453125 56 38.578125 55.875 
Q 39.703125 55.765625 41.0625 55.515625 
z
" id="DejaVuSans-114"/>
       <path d="M 35.03125 79.984375 
L 44.75 79.984375 
L 28.84375 61.625 
L 21.359375 61.625 
z
M 54.890625 33.015625 
L 54.890625 0 
L 45.90625 0 
L 45.90625 32.71875 
Q 45.90625 40.484375 42.875 44.328125 
Q 39.84375 48.1875 33.796875 48.1875 
Q 26.515625 48.1875 22.3125 43.546875 
Q 18.109375 38.921875 18.109375 30.90625 
L 18.109375 0 
L 9.078125 0 
L 9.078125 54.6875 
L 18.109375 54.6875 
L 18.109375 46.1875 
Q 21.34375 51.125 25.703125 53.5625 
Q 30.078125 56 35.796875 56 
Q 45.21875 56 50.046875 50.171875 
Q 54.890625 44.34375 54.890625 33.015625 
z
" id="DejaVuSans-324"/>
      </defs>
      <use xlink:href="#DejaVuSans-71"/>
      <use x="77.490234" xlink:href="#DejaVuSans-281"/>
      <use x="139.013672" xlink:href="#DejaVuSans-115"/>
      <use x="191.113281" xlink:href="#DejaVuSans-116"/>
      <use x="230.322266" xlink:href="#DejaVuSans-111"/>
      <use x="291.503906" xlink:href="#DejaVuSans-347"/>
      <use x="343.603516" xlink:href="#DejaVuSans-263"/>
      <use x="398.583984" xlink:href="#DejaVuSans-32"/>
      <use x="430.371094" xlink:href="#DejaVuSans-122"/>
      <use x="482.861328" xlink:href="#DejaVuSans-100"/>
      <use x="546.337891" xlink:href="#DejaVuSans-101"/>
      <use x="607.861328" xlink:href="#DejaVuSans-114"/>
      <use x="648.974609" xlink:href="#DejaVuSans-122"/>
      <use x="701.464844" xlink:href="#DejaVuSans-101"/>
      <use x="762.988281" xlink:href="#DejaVuSans-324"/>
     </g>
    </g>
   </g>
   <g id="line2d_27">
    <path clip-path="url(#p36a85112c4)" d="M 73.832727 295.488 
L 77.079273 295.488 
L 80.325818 294.38563 
L 83.572364 292.080676 
L 86.818909 290.076368 
L 90.065455 290.377014 
L 93.312 286.067751 
L 96.558545 284.56452 
L 99.805091 285.466459 
L 103.051636 283.963228 
L 106.298182 281.558058 
L 109.544727 279.453534 
L 112.791273 276.847934 
L 116.037818 274.943841 
L 119.284364 270.634578 
L 122.530909 268.730486 
L 125.777455 267.026824 
L 129.024 265.323162 
L 132.270545 262.216484 
L 135.517091 262.917992 
L 138.763636 261.414761 
L 142.010182 258.708944 
L 145.256727 259.711099 
L 148.503273 255.702482 
L 151.749818 255.902913 
L 154.996364 250.691712 
L 158.242909 243.476202 
L 161.489455 243.576418 
L 164.736 244.779002 
L 167.982545 236.661554 
L 171.229091 232.452507 
L 174.475636 235.258539 
L 177.722182 234.857677 
L 180.968727 232.352292 
L 184.215273 231.249922 
L 187.461818 224.53549 
L 190.708364 220.526873 
L 193.954909 216.418041 
L 197.201455 215.916964 
L 200.448 210.605548 
L 203.694545 209.90404 
L 206.941091 200.08293 
L 210.187636 201.185299 
L 213.434182 202.888961 
L 216.680727 199.281206 
L 219.927273 197.276898 
L 223.173818 191.865266 
L 226.420364 181.142217 
L 229.666909 182.845879 
L 232.913455 178.837263 
L 236.16 169.817876 
L 239.406545 173.124984 
L 242.653091 175.530154 
L 245.899636 164.205813 
L 249.146182 163.404089 
L 252.392727 162.201505 
L 255.639273 147.169193 
L 258.885818 150.877163 
L 262.132364 147.870701 
L 265.378909 147.770486 
L 268.625455 148.77264 
L 271.872 145.665962 
L 275.118545 134.942913 
L 278.365091 141.356699 
L 281.611636 136.345929 
L 284.858182 142.960146 
L 288.104727 133.139036 
L 291.351273 136.345929 
L 294.597818 129.130419 
L 297.844364 130.333004 
L 301.090909 127.927834 
L 304.337455 129.230635 
L 307.584 102.172474 
L 310.830545 106.281306 
L 314.077091 114.098108 
L 317.323636 105.279152 
L 320.570182 101.17032 
L 323.816727 95.357826 
L 327.063273 107.083029 
L 330.309818 94.355672 
L 333.556364 95.858903 
L 336.802909 85.837362 
L 340.049455 96.059334 
L 343.296 98.564719 
L 346.542545 88.743609 
L 349.789091 91.248994 
L 353.035636 83.833054 
L 356.282182 86.138008 
L 359.528727 84.835208 
L 362.775273 85.135854 
L 366.021818 77.920345 
L 369.268364 76.417114 
L 372.514909 67.698373 
L 375.761455 77.419268 
L 379.008 69.602466 
L 382.254545 65.192988 
L 385.501091 53.568 
L 388.747636 69.001173 
L 391.994182 61.885879 
L 395.240727 59.781355 
L 398.487273 62.386956 
" style="fill:none;stroke:#1f77b4;stroke-linecap:square;stroke-width:1.5;"/>
   </g>
   <g id="line2d_28">
    <path clip-path="url(#p36a85112c4)" d="M 73.832727 295.488 
L 77.079273 295.488 
L 80.325818 294.388373 
L 83.572364 292.189118 
L 86.818909 290.389728 
L 90.065455 290.58966 
L 93.312 286.091185 
L 96.558545 284.891591 
L 99.805091 285.791287 
L 103.051636 284.791625 
L 106.298182 282.292472 
L 109.544727 280.093218 
L 112.791273 277.793997 
L 116.037818 275.39481 
L 119.284364 271.296199 
L 122.530909 269.99664 
L 125.777455 268.19725 
L 129.024 267.097622 
L 132.270545 264.198605 
L 135.517091 263.998673 
L 138.763636 263.198944 
L 142.010182 260.099994 
L 145.256727 260.19996 
L 148.503273 257.001045 
L 151.749818 257.500875 
L 154.996364 252.302637 
L 158.242909 245.904805 
L 161.489455 245.504941 
L 164.736 247.004433 
L 167.982545 239.407008 
L 171.229091 235.008499 
L 174.475636 237.707584 
L 177.722182 237.307719 
L 180.968727 235.008499 
L 184.215273 234.308736 
L 187.461818 228.210803 
L 190.708364 223.812293 
L 193.954909 220.513411 
L 197.201455 219.713683 
L 200.448 215.815004 
L 203.694545 213.715715 
L 206.941091 204.818731 
L 210.187636 204.918697 
L 213.434182 206.518155 
L 216.680727 203.719104 
L 219.927273 201.319917 
L 223.173818 196.221645 
L 226.420364 187.124728 
L 229.666909 188.124389 
L 232.913455 184.325677 
L 236.16 176.328387 
L 239.406545 178.027811 
L 242.653091 180.62693 
L 245.899636 170.030522 
L 249.146182 169.030861 
L 252.392727 169.130827 
L 255.639273 153.436146 
L 258.885818 157.534757 
L 262.132364 154.735706 
L 265.378909 154.435807 
L 268.625455 155.035604 
L 271.872 152.236553 
L 275.118545 141.540178 
L 278.365091 147.93801 
L 281.611636 142.739772 
L 284.858182 148.637773 
L 288.104727 140.340585 
L 291.351273 142.139975 
L 294.597818 136.34194 
L 297.844364 138.341262 
L 301.090909 136.142008 
L 304.337455 135.742143 
L 307.584 110.650648 
L 310.830545 115.049157 
L 314.077091 123.546277 
L 317.323636 113.449699 
L 320.570182 110.950546 
L 323.816727 105.45241 
L 327.063273 116.748581 
L 330.309818 102.753324 
L 333.556364 104.952579 
L 336.802909 95.855662 
L 340.049455 106.751969 
L 343.296 107.351766 
L 346.542545 97.555086 
L 349.789091 100.953934 
L 353.035636 93.956306 
L 356.282182 95.055933 
L 359.528727 94.35617 
L 362.775273 94.156238 
L 366.021818 88.858034 
L 369.268364 86.458847 
L 372.514909 78.261625 
L 375.761455 86.658779 
L 379.008 81.260609 
L 382.254545 74.562879 
L 385.501091 63.866504 
L 388.747636 78.66149 
L 391.994182 73.26332 
L 395.240727 70.764167 
L 398.487273 72.863455 
" style="fill:none;stroke:#ff7f0e;stroke-linecap:square;stroke-width:1.5;"/>
   </g>
   <g id="line2d_29">
    <path clip-path="url(#p36a85112c4)" d="M 73.832727 295.488 
L 77.079273 295.488 
L 80.325818 294.396518 
L 83.572364 292.412006 
L 86.818909 290.72517 
L 90.065455 290.72517 
L 93.312 286.458468 
L 96.558545 285.26776 
L 99.805091 285.863114 
L 103.051636 284.870858 
L 106.298182 282.588668 
L 109.544727 281.001058 
L 112.791273 278.619643 
L 116.037818 276.139002 
L 119.284364 272.169977 
L 122.530909 270.582367 
L 125.777455 268.796306 
L 129.024 267.704824 
L 132.270545 264.529604 
L 135.517091 265.124958 
L 138.763636 263.735799 
L 142.010182 261.45361 
L 145.256727 261.552835 
L 148.503273 258.179164 
L 151.749818 258.675292 
L 154.996364 253.813236 
L 158.242909 247.165119 
L 161.489455 246.569765 
L 164.736 248.653503 
L 167.982545 241.211581 
L 171.229091 236.448751 
L 174.475636 239.921648 
L 177.722182 238.433264 
L 180.968727 237.83791 
L 184.215273 235.952623 
L 187.461818 229.006829 
L 190.708364 226.228511 
L 193.954909 222.656389 
L 197.201455 221.961809 
L 200.448 217.397431 
L 203.694545 216.008272 
L 206.941091 208.169447 
L 210.187636 207.276416 
L 213.434182 208.764801 
L 216.680727 205.788032 
L 219.927273 203.605068 
L 223.173818 199.536817 
L 226.420364 190.40806 
L 229.666909 191.797218 
L 232.913455 188.621998 
L 236.16 179.790917 
L 239.406545 180.485497 
L 242.653091 183.859168 
L 245.899636 173.936605 
L 249.146182 173.242026 
L 252.392727 172.051318 
L 255.639273 157.862054 
L 258.885818 162.724109 
L 262.132364 158.755084 
L 265.378909 159.052761 
L 268.625455 158.655859 
L 271.872 156.770572 
L 275.118545 145.756527 
L 278.365091 151.015485 
L 281.611636 146.848009 
L 284.858182 152.603095 
L 288.104727 145.359624 
L 291.351273 147.641814 
L 294.597818 140.894471 
L 297.844364 141.092922 
L 301.090909 141.092922 
L 304.337455 139.802989 
L 307.584 116.385741 
L 310.830545 119.064833 
L 314.077091 128.88817 
L 317.323636 119.560961 
L 320.570182 117.08032 
L 323.816727 110.432203 
L 327.063273 121.347022 
L 330.309818 107.455434 
L 333.556364 110.332978 
L 336.802909 101.402671 
L 340.049455 111.126783 
L 343.296 113.805875 
L 346.542545 103.684861 
L 349.789091 105.96705 
L 353.035636 99.715835 
L 356.282182 100.906543 
L 359.528727 100.50964 
L 362.775273 98.723579 
L 366.021818 95.846036 
L 369.268364 91.579334 
L 372.514909 85.526571 
L 375.761455 92.670816 
L 379.008 88.602565 
L 382.254545 80.76374 
L 385.501091 69.154342 
L 388.747636 84.831991 
L 391.994182 78.183874 
L 395.240727 77.58852 
L 398.487273 79.17613 
" style="fill:none;stroke:#2ca02c;stroke-linecap:square;stroke-width:1.5;"/>
   </g>
   <g id="line2d_30">
    <path clip-path="url(#p36a85112c4)" d="M 73.832727 295.488 
L 77.079273 295.488 
L 80.325818 294.311813 
L 83.572364 292.449518 
L 86.818909 290.685238 
L 90.065455 290.783253 
L 93.312 286.568584 
L 96.558545 285.588428 
L 99.805091 286.078506 
L 103.051636 285.196366 
L 106.298182 283.040024 
L 109.544727 280.785666 
L 112.791273 278.825355 
L 116.037818 276.27695 
L 119.284364 272.650375 
L 122.530909 270.494032 
L 125.777455 269.21983 
L 129.024 268.33769 
L 132.270545 265.103177 
L 135.517091 265.789285 
L 138.763636 264.123021 
L 142.010182 261.672632 
L 145.256727 261.770647 
L 148.503273 258.536134 
L 151.749818 258.438118 
L 154.996364 253.929403 
L 158.242909 247.656407 
L 161.489455 246.382205 
L 164.736 248.342516 
L 167.982545 241.089364 
L 171.229091 236.972711 
L 174.475636 240.207224 
L 177.722182 239.129053 
L 180.968727 238.148898 
L 184.215273 236.972711 
L 187.461818 230.307653 
L 190.708364 226.38703 
L 193.954909 222.85847 
L 197.201455 222.368393 
L 200.448 218.251739 
L 203.694545 217.369599 
L 206.941091 208.74423 
L 210.187636 208.352167 
L 213.434182 209.038276 
L 216.680727 206.97995 
L 219.927273 204.529561 
L 223.173818 201.589094 
L 226.420364 190.807382 
L 229.666909 192.963725 
L 232.913455 189.141118 
L 236.16 180.809795 
L 239.406545 182.083997 
L 242.653091 185.024464 
L 245.899636 174.634815 
L 249.146182 174.046722 
L 252.392727 173.752675 
L 255.639273 159.148357 
L 258.885818 163.755088 
L 262.132364 160.226528 
L 265.378909 160.324543 
L 268.625455 160.128512 
L 271.872 157.97217 
L 275.118545 146.70038 
L 278.365091 152.385283 
L 281.611636 147.876567 
L 284.858182 153.463454 
L 288.104727 146.602365 
L 291.351273 148.072598 
L 294.597818 143.17182 
L 297.844364 143.073805 
L 301.090909 142.779758 
L 304.337455 141.603571 
L 307.584 118.177853 
L 310.830545 120.824273 
L 314.077091 131.311938 
L 317.323636 121.706413 
L 320.570182 119.55007 
L 323.816727 112.885012 
L 327.063273 123.862755 
L 330.309818 109.062406 
L 333.556364 112.002872 
L 336.802909 103.279488 
L 340.049455 113.669137 
L 343.296 115.727464 
L 346.542545 104.651705 
L 349.789091 109.258437 
L 353.035636 101.90727 
L 356.282182 103.965596 
L 359.528727 102.593379 
L 362.775273 98.672756 
L 366.021818 97.104507 
L 369.268364 94.16404 
L 372.514909 86.322796 
L 375.761455 94.16404 
L 379.008 90.439449 
L 382.254545 83.088282 
L 385.501091 70.836337 
L 388.747636 86.420811 
L 391.994182 81.225987 
L 395.240727 80.343847 
L 398.487273 81.324002 
" style="fill:none;stroke:#d62728;stroke-linecap:square;stroke-width:1.5;"/>
   </g>
   <g id="line2d_31">
    <path clip-path="url(#p36a85112c4)" d="M 73.832727 295.488 
L 77.079273 295.488 
L 80.325818 294.339818 
L 83.572364 292.521862 
L 86.818909 290.512543 
L 90.065455 290.895271 
L 93.312 286.493906 
L 96.558545 285.728451 
L 99.805091 286.20686 
L 103.051636 285.058678 
L 106.298182 283.145041 
L 109.544727 281.04004 
L 112.791273 278.743675 
L 116.037818 276.255947 
L 119.284364 272.715718 
L 122.530909 270.802081 
L 125.777455 269.558217 
L 129.024 268.888444 
L 132.270545 265.06117 
L 135.517091 265.922307 
L 138.763636 263.625942 
L 142.010182 261.712305 
L 145.256727 261.712305 
L 148.503273 258.937531 
L 151.749818 258.746167 
L 154.996364 254.440484 
L 158.242909 247.742754 
L 161.489455 246.881617 
L 164.736 248.412527 
L 167.982545 241.045024 
L 171.229091 237.122068 
L 174.475636 240.279569 
L 177.722182 239.322751 
L 180.968727 238.174568 
L 184.215273 237.696159 
L 187.461818 230.041611 
L 190.708364 227.266837 
L 193.954909 223.152517 
L 197.201455 221.908653 
L 200.448 218.846833 
L 203.694545 217.602969 
L 206.941091 209.182966 
L 210.187636 209.087284 
L 213.434182 209.087284 
L 216.680727 206.121147 
L 219.927273 204.685919 
L 223.173818 201.719781 
L 226.420364 190.620686 
L 229.666909 193.299778 
L 232.913455 189.568186 
L 236.16 182.870456 
L 239.406545 181.817955 
L 242.653091 185.932275 
L 245.899636 174.450452 
L 249.146182 175.120225 
L 252.392727 174.737498 
L 255.639273 159.428401 
L 258.885818 164.499539 
L 262.132364 161.246356 
L 265.378909 161.533402 
L 268.625455 160.002492 
L 271.872 158.471582 
L 275.118545 147.850896 
L 278.365091 154.261581 
L 281.611636 148.137942 
L 284.858182 152.922035 
L 288.104727 148.329306 
L 291.351273 149.57317 
L 294.597818 144.023622 
L 297.844364 142.87544 
L 301.090909 141.631576 
L 304.337455 140.674757 
L 307.584 118.093839 
L 310.830545 122.686568 
L 314.077091 132.5418 
L 317.323636 122.495205 
L 320.570182 121.059977 
L 323.816727 113.788156 
L 327.063273 123.739069 
L 330.309818 110.534973 
L 333.556364 113.118383 
L 336.802909 104.028606 
L 340.049455 115.510429 
L 343.296 117.041339 
L 346.542545 105.272471 
L 349.789091 109.769518 
L 353.035636 101.63656 
L 356.282182 104.698379 
L 359.528727 102.784742 
L 362.775273 100.871105 
L 366.021818 97.043831 
L 369.268364 97.139513 
L 372.514909 87.092918 
L 375.761455 95.417239 
L 379.008 91.207238 
L 382.254545 84.60519 
L 385.501091 72.74064 
L 388.747636 87.1886 
L 391.994182 82.787234 
L 395.240727 82.308825 
L 398.487273 81.830416 
" style="fill:none;stroke:#9467bd;stroke-linecap:square;stroke-width:1.5;"/>
   </g>
   <g id="line2d_32">
    <path clip-path="url(#p36a85112c4)" d="M 73.832727 295.488 
L 77.079273 295.488 
L 80.325818 294.32706 
L 83.572364 292.540999 
L 86.818909 290.487028 
L 90.065455 290.844241 
L 93.312 286.379087 
L 96.558545 285.753966 
L 99.805091 286.021875 
L 103.051636 284.950238 
L 106.298182 283.164177 
L 109.544727 281.19951 
L 112.791273 278.87763 
L 116.037818 276.55575 
L 119.284364 272.537112 
L 122.530909 271.01896 
L 125.777455 269.411505 
L 129.024 269.322202 
L 132.270545 265.392867 
L 135.517091 266.553807 
L 138.763636 263.606806 
L 142.010182 262.356563 
L 145.256727 261.463532 
L 148.503273 258.78444 
L 151.749818 258.695137 
L 154.996364 254.765802 
L 158.242909 248.246678 
L 161.489455 247.353648 
L 164.736 247.889466 
L 167.982545 242.263373 
L 171.229091 237.441007 
L 174.475636 239.673584 
L 177.722182 239.227069 
L 180.968727 239.494978 
L 184.215273 238.155432 
L 187.461818 229.671641 
L 190.708364 225.295791 
L 193.954909 223.777638 
L 197.201455 221.634365 
L 200.448 218.240848 
L 203.694545 218.776667 
L 206.941091 210.471482 
L 210.187636 208.95333 
L 213.434182 207.970996 
L 216.680727 205.291904 
L 219.927273 205.113298 
L 223.173818 202.970024 
L 226.420364 191.003413 
L 229.666909 194.129021 
L 232.913455 189.217352 
L 236.16 183.591259 
L 239.406545 182.608925 
L 242.653091 185.37732 
L 245.899636 173.767922 
L 249.146182 175.107468 
L 252.392727 175.821892 
L 255.639273 163.23016 
L 258.885818 166.71298 
L 262.132364 161.890614 
L 265.378909 162.694342 
L 268.625455 160.729674 
L 271.872 159.300825 
L 275.118545 149.566791 
L 278.365091 154.567763 
L 281.611636 149.209579 
L 284.858182 151.710065 
L 288.104727 150.281216 
L 291.351273 148.316548 
L 294.597818 144.565819 
L 297.844364 142.24394 
L 301.090909 141.261606 
L 304.337455 139.564848 
L 307.584 119.560961 
L 310.830545 123.400993 
L 314.077091 134.474573 
L 317.323636 120.632598 
L 320.570182 119.918173 
L 323.816727 114.29208 
L 327.063273 122.061447 
L 330.309818 111.9702 
L 333.556364 113.577656 
L 336.802909 107.505047 
L 340.049455 112.863231 
L 343.296 116.256748 
L 346.542545 106.70132 
L 349.789091 108.933896 
L 353.035636 104.736652 
L 356.282182 104.825955 
L 359.528727 103.307803 
L 362.775273 98.038922 
L 366.021818 97.68171 
L 369.268364 100.271499 
L 372.514909 85.715099 
L 375.761455 97.145892 
L 379.008 91.341192 
L 382.254545 86.250918 
L 385.501091 71.069397 
L 388.747636 86.518827 
L 391.994182 83.39322 
L 395.240727 82.410886 
L 398.487273 80.714128 
" style="fill:none;stroke:#8c564b;stroke-linecap:square;stroke-width:1.5;"/>
   </g>
   <g id="line2d_33">
    <path clip-path="url(#p36a85112c4)" d="M 73.832727 295.488 
L 77.079273 295.488 
L 80.325818 294.282409 
L 83.572364 292.433835 
L 86.818909 290.344143 
L 90.065455 290.424516 
L 93.312 286.245133 
L 96.558545 285.923642 
L 99.805091 285.923642 
L 103.051636 284.878796 
L 106.298182 282.467613 
L 109.544727 281.181649 
L 112.791273 279.252703 
L 116.037818 276.761147 
L 119.284364 272.340645 
L 122.530909 271.215427 
L 125.777455 269.447226 
L 129.024 268.96499 
L 132.270545 264.544488 
L 135.517091 266.553807 
L 138.763636 262.776287 
L 142.010182 262.454796 
L 145.256727 260.847341 
L 148.503273 259.320258 
L 151.749818 258.757649 
L 154.996364 254.658638 
L 158.242909 247.987699 
L 161.489455 247.023226 
L 164.736 248.228818 
L 167.982545 243.969062 
L 171.229091 238.262596 
L 174.475636 239.54856 
L 177.722182 239.870051 
L 180.968727 240.030796 
L 184.215273 238.021477 
L 187.461818 229.582338 
L 190.708364 226.367427 
L 193.954909 224.920718 
L 197.201455 221.545062 
L 200.448 217.044187 
L 203.694545 219.294625 
L 206.941091 211.498467 
L 210.187636 208.042438 
L 213.434182 209.408775 
L 216.680727 204.988273 
L 219.927273 204.988273 
L 223.173818 202.657463 
L 226.420364 193.012732 
L 229.666909 195.26317 
L 232.913455 191.244532 
L 236.16 185.216575 
L 239.406545 182.564274 
L 242.653091 186.82403 
L 245.899636 173.080288 
L 249.146182 172.83917 
L 252.392727 177.018553 
L 255.639273 163.274812 
L 258.885818 165.685994 
L 262.132364 162.872948 
L 265.378909 163.274812 
L 268.625455 160.944002 
L 271.872 159.095428 
L 275.118545 154.031944 
L 278.365091 155.559027 
L 281.611636 152.102998 
L 284.858182 150.817034 
L 288.104727 152.263744 
L 291.351273 151.942253 
L 294.597818 144.789077 
L 297.844364 141.413421 
L 301.090909 140.770439 
L 304.337455 138.921866 
L 307.584 119.23054 
L 310.830545 123.811787 
L 314.077091 132.813536 
L 317.323636 120.918368 
L 320.570182 117.623085 
L 323.816727 113.925938 
L 327.063273 123.249178 
L 330.309818 112.077364 
L 333.556364 115.613766 
L 336.802909 106.531644 
L 340.049455 113.684819 
L 343.296 111.434382 
L 346.542545 108.701708 
L 349.789091 112.157737 
L 353.035636 103.638224 
L 356.282182 102.995242 
L 359.528727 102.593379 
L 362.775273 99.13735 
L 366.021818 99.780332 
L 369.268364 98.976604 
L 372.514909 85.393608 
L 375.761455 96.404676 
L 379.008 89.090755 
L 382.254545 88.126282 
L 385.501091 72.05173 
L 388.747636 83.464662 
L 391.994182 83.143171 
L 395.240727 82.982425 
L 398.487273 80.410497 
" style="fill:none;stroke:#e377c2;stroke-linecap:square;stroke-width:1.5;"/>
   </g>
   <g id="patch_3">
    <path d="M 57.6 307.584 
L 57.6 41.472 
" style="fill:none;stroke:#000000;stroke-linecap:square;stroke-linejoin:miter;stroke-width:0.8;"/>
   </g>
   <g id="patch_4">
    <path d="M 414.72 307.584 
L 414.72 41.472 
" style="fill:none;stroke:#000000;stroke-linecap:square;stroke-linejoin:miter;stroke-width:0.8;"/>
   </g>
   <g id="patch_5">
    <path d="M 57.6 307.584 
L 414.72 307.584 
" style="fill:none;stroke:#000000;stroke-linecap:square;stroke-linejoin:miter;stroke-width:0.8;"/>
   </g>
   <g id="patch_6">
    <path d="M 57.6 41.472 
L 414.72 41.472 
" style="fill:none;stroke:#000000;stroke-linecap:square;stroke-linejoin:miter;stroke-width:0.8;"/>
   </g>
   <g id="legend_1">
    <g id="patch_7">
     <path d="M 64.6 152.218875 
L 145.414062 152.218875 
Q 147.414062 152.218875 147.414062 150.218875 
L 147.414062 48.472 
Q 147.414062 46.472 145.414062 46.472 
L 64.6 46.472 
Q 62.6 46.472 62.6 48.472 
L 62.6 150.218875 
Q 62.6 152.218875 64.6 152.218875 
z
" style="fill:#ffffff;opacity:0.8;stroke:#cccccc;stroke-linejoin:miter;"/>
    </g>
    <g id="line2d_34">
     <path d="M 66.6 54.570438 
L 86.6 54.570438 
" style="fill:none;stroke:#1f77b4;stroke-linecap:square;stroke-width:1.5;"/>
    </g>
    <g id="line2d_35"/>
    <g id="text_16">
     <!-- M = 10 -->
     <g transform="translate(94.6 58.070438)scale(0.1 -0.1)">
      <defs>
       <path d="M 9.8125 72.90625 
L 24.515625 72.90625 
L 43.109375 23.296875 
L 61.8125 72.90625 
L 76.515625 72.90625 
L 76.515625 0 
L 66.890625 0 
L 66.890625 64.015625 
L 48.09375 14.015625 
L 38.1875 14.015625 
L 19.390625 64.015625 
L 19.390625 0 
L 9.8125 0 
z
" id="DejaVuSans-77"/>
       <path d="M 10.59375 45.40625 
L 73.1875 45.40625 
L 73.1875 37.203125 
L 10.59375 37.203125 
z
M 10.59375 25.484375 
L 73.1875 25.484375 
L 73.1875 17.1875 
L 10.59375 17.1875 
z
" id="DejaVuSans-61"/>
      </defs>
      <use xlink:href="#DejaVuSans-77"/>
      <use x="86.279297" xlink:href="#DejaVuSans-32"/>
      <use x="118.066406" xlink:href="#DejaVuSans-61"/>
      <use x="201.855469" xlink:href="#DejaVuSans-32"/>
      <use x="233.642578" xlink:href="#DejaVuSans-49"/>
      <use x="297.265625" xlink:href="#DejaVuSans-48"/>
     </g>
    </g>
    <g id="line2d_36">
     <path d="M 66.6 69.248563 
L 86.6 69.248563 
" style="fill:none;stroke:#ff7f0e;stroke-linecap:square;stroke-width:1.5;"/>
    </g>
    <g id="line2d_37"/>
    <g id="text_17">
     <!-- M = 20 -->
     <g transform="translate(94.6 72.748563)scale(0.1 -0.1)">
      <use xlink:href="#DejaVuSans-77"/>
      <use x="86.279297" xlink:href="#DejaVuSans-32"/>
      <use x="118.066406" xlink:href="#DejaVuSans-61"/>
      <use x="201.855469" xlink:href="#DejaVuSans-32"/>
      <use x="233.642578" xlink:href="#DejaVuSans-50"/>
      <use x="297.265625" xlink:href="#DejaVuSans-48"/>
     </g>
    </g>
    <g id="line2d_38">
     <path d="M 66.6 83.926688 
L 86.6 83.926688 
" style="fill:none;stroke:#2ca02c;stroke-linecap:square;stroke-width:1.5;"/>
    </g>
    <g id="line2d_39"/>
    <g id="text_18">
     <!-- M = 50 -->
     <g transform="translate(94.6 87.426688)scale(0.1 -0.1)">
      <use xlink:href="#DejaVuSans-77"/>
      <use x="86.279297" xlink:href="#DejaVuSans-32"/>
      <use x="118.066406" xlink:href="#DejaVuSans-61"/>
      <use x="201.855469" xlink:href="#DejaVuSans-32"/>
      <use x="233.642578" xlink:href="#DejaVuSans-53"/>
      <use x="297.265625" xlink:href="#DejaVuSans-48"/>
     </g>
    </g>
    <g id="line2d_40">
     <path d="M 66.6 98.604813 
L 86.6 98.604813 
" style="fill:none;stroke:#d62728;stroke-linecap:square;stroke-width:1.5;"/>
    </g>
    <g id="line2d_41"/>
    <g id="text_19">
     <!-- M = 100 -->
     <g transform="translate(94.6 102.104813)scale(0.1 -0.1)">
      <use xlink:href="#DejaVuSans-77"/>
      <use x="86.279297" xlink:href="#DejaVuSans-32"/>
      <use x="118.066406" xlink:href="#DejaVuSans-61"/>
      <use x="201.855469" xlink:href="#DejaVuSans-32"/>
      <use x="233.642578" xlink:href="#DejaVuSans-49"/>
      <use x="297.265625" xlink:href="#DejaVuSans-48"/>
      <use x="360.888672" xlink:href="#DejaVuSans-48"/>
     </g>
    </g>
    <g id="line2d_42">
     <path d="M 66.6 113.282938 
L 86.6 113.282938 
" style="fill:none;stroke:#9467bd;stroke-linecap:square;stroke-width:1.5;"/>
    </g>
    <g id="line2d_43"/>
    <g id="text_20">
     <!-- M = 200 -->
     <g transform="translate(94.6 116.782938)scale(0.1 -0.1)">
      <use xlink:href="#DejaVuSans-77"/>
      <use x="86.279297" xlink:href="#DejaVuSans-32"/>
      <use x="118.066406" xlink:href="#DejaVuSans-61"/>
      <use x="201.855469" xlink:href="#DejaVuSans-32"/>
      <use x="233.642578" xlink:href="#DejaVuSans-50"/>
      <use x="297.265625" xlink:href="#DejaVuSans-48"/>
      <use x="360.888672" xlink:href="#DejaVuSans-48"/>
     </g>
    </g>
    <g id="line2d_44">
     <path d="M 66.6 127.961063 
L 86.6 127.961063 
" style="fill:none;stroke:#8c564b;stroke-linecap:square;stroke-width:1.5;"/>
    </g>
    <g id="line2d_45"/>
    <g id="text_21">
     <!-- M = 500 -->
     <g transform="translate(94.6 131.461063)scale(0.1 -0.1)">
      <use xlink:href="#DejaVuSans-77"/>
      <use x="86.279297" xlink:href="#DejaVuSans-32"/>
      <use x="118.066406" xlink:href="#DejaVuSans-61"/>
      <use x="201.855469" xlink:href="#DejaVuSans-32"/>
      <use x="233.642578" xlink:href="#DejaVuSans-53"/>
      <use x="297.265625" xlink:href="#DejaVuSans-48"/>
      <use x="360.888672" xlink:href="#DejaVuSans-48"/>
     </g>
    </g>
    <g id="line2d_46">
     <path d="M 66.6 142.639188 
L 86.6 142.639188 
" style="fill:none;stroke:#e377c2;stroke-linecap:square;stroke-width:1.5;"/>
    </g>
    <g id="line2d_47"/>
    <g id="text_22">
     <!-- M = 1000 -->
     <g transform="translate(94.6 146.139188)scale(0.1 -0.1)">
      <use xlink:href="#DejaVuSans-77"/>
      <use x="86.279297" xlink:href="#DejaVuSans-32"/>
      <use x="118.066406" xlink:href="#DejaVuSans-61"/>
      <use x="201.855469" xlink:href="#DejaVuSans-32"/>
      <use x="233.642578" xlink:href="#DejaVuSans-49"/>
      <use x="297.265625" xlink:href="#DejaVuSans-48"/>
      <use x="360.888672" xlink:href="#DejaVuSans-48"/>
      <use x="424.511719" xlink:href="#DejaVuSans-48"/>
     </g>
    </g>
   </g>
  </g>
  <g id="text_23">
   <!-- n(N) -->
   <g transform="translate(217.426875 16.030125)scale(0.12 -0.12)">
    <defs>
     <path d="M 54.890625 33.015625 
L 54.890625 0 
L 45.90625 0 
L 45.90625 32.71875 
Q 45.90625 40.484375 42.875 44.328125 
Q 39.84375 48.1875 33.796875 48.1875 
Q 26.515625 48.1875 22.3125 43.546875 
Q 18.109375 38.921875 18.109375 30.90625 
L 18.109375 0 
L 9.078125 0 
L 9.078125 54.6875 
L 18.109375 54.6875 
L 18.109375 46.1875 
Q 21.34375 51.125 25.703125 53.5625 
Q 30.078125 56 35.796875 56 
Q 45.21875 56 50.046875 50.171875 
Q 54.890625 44.34375 54.890625 33.015625 
z
" id="DejaVuSans-110"/>
     <path d="M 31 75.875 
Q 24.46875 64.65625 21.28125 53.65625 
Q 18.109375 42.671875 18.109375 31.390625 
Q 18.109375 20.125 21.3125 9.0625 
Q 24.515625 -2 31 -13.1875 
L 23.1875 -13.1875 
Q 15.875 -1.703125 12.234375 9.375 
Q 8.59375 20.453125 8.59375 31.390625 
Q 8.59375 42.28125 12.203125 53.3125 
Q 15.828125 64.359375 23.1875 75.875 
z
" id="DejaVuSans-40"/>
     <path d="M 9.8125 72.90625 
L 23.09375 72.90625 
L 55.421875 11.921875 
L 55.421875 72.90625 
L 64.984375 72.90625 
L 64.984375 0 
L 51.703125 0 
L 19.390625 60.984375 
L 19.390625 0 
L 9.8125 0 
z
" id="DejaVuSans-78"/>
     <path d="M 8.015625 75.875 
L 15.828125 75.875 
Q 23.140625 64.359375 26.78125 53.3125 
Q 30.421875 42.28125 30.421875 31.390625 
Q 30.421875 20.453125 26.78125 9.375 
Q 23.140625 -1.703125 15.828125 -13.1875 
L 8.015625 -13.1875 
Q 14.5 -2 17.703125 9.0625 
Q 20.90625 20.125 20.90625 31.390625 
Q 20.90625 42.671875 17.703125 53.65625 
Q 14.5 64.65625 8.015625 75.875 
z
" id="DejaVuSans-41"/>
    </defs>
    <use xlink:href="#DejaVuSans-110"/>
    <use x="63.378906" xlink:href="#DejaVuSans-40"/>
    <use x="102.392578" xlink:href="#DejaVuSans-78"/>
    <use x="177.197266" xlink:href="#DejaVuSans-41"/>
   </g>
  </g>
 </g>
 <defs>
  <clipPath id="p36a85112c4">
   <rect height="266.112" width="357.12" x="57.6" y="41.472"/>
  </clipPath>
 </defs>
</svg>
