<?xml version="1.0" encoding="utf-8" standalone="no"?>
<!DOCTYPE svg PUBLIC "-//W3C//DTD SVG 1.1//EN"
  "http://www.w3.org/Graphics/SVG/1.1/DTD/svg11.dtd">
<!-- Created with matplotlib (https://matplotlib.org/) -->
<svg height="345.6pt" version="1.1" viewBox="0 0 460.8 345.6" width="460.8pt" xmlns="http://www.w3.org/2000/svg" xmlns:xlink="http://www.w3.org/1999/xlink">
 <metadata>
  <rdf:RDF xmlns:cc="http://creativecommons.org/ns#" xmlns:dc="http://purl.org/dc/elements/1.1/" xmlns:rdf="http://www.w3.org/1999/02/22-rdf-syntax-ns#">
   <cc:Work>
    <dc:type rdf:resource="http://purl.org/dc/dcmitype/StillImage"/>
    <dc:date>2020-08-31T20:06:53.297681</dc:date>
    <dc:format>image/svg+xml</dc:format>
    <dc:creator>
     <cc:Agent>
      <dc:title>Matplotlib v3.3.1, https://matplotlib.org/</dc:title>
     </cc:Agent>
    </dc:creator>
   </cc:Work>
  </rdf:RDF>
 </metadata>
 <defs>
  <style type="text/css">*{stroke-linecap:butt;stroke-linejoin:round;}</style>
 </defs>
 <g id="figure_1">
  <g id="patch_1">
   <path d="M 0 345.6 
L 460.8 345.6 
L 460.8 0 
L 0 0 
z
" style="fill:#ffffff;"/>
  </g>
  <g id="axes_1">
   <g id="patch_2">
    <path d="M 57.6 307.584 
L 414.72 307.584 
L 414.72 41.472 
L 57.6 41.472 
z
" style="fill:#ffffff;"/>
   </g>
   <g id="matplotlib.axis_1">
    <g id="xtick_1">
     <g id="line2d_1">
      <path clip-path="url(#p003d4717d3)" d="M 73.832727 307.584 
L 73.832727 41.472 
" style="fill:none;stroke:#b0b0b0;stroke-linecap:square;stroke-width:0.8;"/>
     </g>
     <g id="line2d_2">
      <defs>
       <path d="M 0 0 
L 0 3.5 
" id="macdd634d9e" style="stroke:#000000;stroke-width:0.8;"/>
      </defs>
      <g>
       <use style="stroke:#000000;stroke-width:0.8;" x="73.832727" xlink:href="#macdd634d9e" y="307.584"/>
      </g>
     </g>
     <g id="text_1">
      <!-- 0 -->
      <g transform="translate(70.651477 322.182437)scale(0.1 -0.1)">
       <defs>
        <path d="M 31.78125 66.40625 
Q 24.171875 66.40625 20.328125 58.90625 
Q 16.5 51.421875 16.5 36.375 
Q 16.5 21.390625 20.328125 13.890625 
Q 24.171875 6.390625 31.78125 6.390625 
Q 39.453125 6.390625 43.28125 13.890625 
Q 47.125 21.390625 47.125 36.375 
Q 47.125 51.421875 43.28125 58.90625 
Q 39.453125 66.40625 31.78125 66.40625 
z
M 31.78125 74.21875 
Q 44.046875 74.21875 50.515625 64.515625 
Q 56.984375 54.828125 56.984375 36.375 
Q 56.984375 17.96875 50.515625 8.265625 
Q 44.046875 -1.421875 31.78125 -1.421875 
Q 19.53125 -1.421875 13.0625 8.265625 
Q 6.59375 17.96875 6.59375 36.375 
Q 6.59375 54.828125 13.0625 64.515625 
Q 19.53125 74.21875 31.78125 74.21875 
z
" id="DejaVuSans-48"/>
       </defs>
       <use xlink:href="#DejaVuSans-48"/>
      </g>
     </g>
    </g>
    <g id="xtick_2">
     <g id="line2d_3">
      <path clip-path="url(#p003d4717d3)" d="M 138.763636 307.584 
L 138.763636 41.472 
" style="fill:none;stroke:#b0b0b0;stroke-linecap:square;stroke-width:0.8;"/>
     </g>
     <g id="line2d_4">
      <g>
       <use style="stroke:#000000;stroke-width:0.8;" x="138.763636" xlink:href="#macdd634d9e" y="307.584"/>
      </g>
     </g>
     <g id="text_2">
      <!-- 20 -->
      <g transform="translate(132.401136 322.182437)scale(0.1 -0.1)">
       <defs>
        <path d="M 19.1875 8.296875 
L 53.609375 8.296875 
L 53.609375 0 
L 7.328125 0 
L 7.328125 8.296875 
Q 12.9375 14.109375 22.625 23.890625 
Q 32.328125 33.6875 34.8125 36.53125 
Q 39.546875 41.84375 41.421875 45.53125 
Q 43.3125 49.21875 43.3125 52.78125 
Q 43.3125 58.59375 39.234375 62.25 
Q 35.15625 65.921875 28.609375 65.921875 
Q 23.96875 65.921875 18.8125 64.3125 
Q 13.671875 62.703125 7.8125 59.421875 
L 7.8125 69.390625 
Q 13.765625 71.78125 18.9375 73 
Q 24.125 74.21875 28.421875 74.21875 
Q 39.75 74.21875 46.484375 68.546875 
Q 53.21875 62.890625 53.21875 53.421875 
Q 53.21875 48.921875 51.53125 44.890625 
Q 49.859375 40.875 45.40625 35.40625 
Q 44.1875 33.984375 37.640625 27.21875 
Q 31.109375 20.453125 19.1875 8.296875 
z
" id="DejaVuSans-50"/>
       </defs>
       <use xlink:href="#DejaVuSans-50"/>
       <use x="63.623047" xlink:href="#DejaVuSans-48"/>
      </g>
     </g>
    </g>
    <g id="xtick_3">
     <g id="line2d_5">
      <path clip-path="url(#p003d4717d3)" d="M 203.694545 307.584 
L 203.694545 41.472 
" style="fill:none;stroke:#b0b0b0;stroke-linecap:square;stroke-width:0.8;"/>
     </g>
     <g id="line2d_6">
      <g>
       <use style="stroke:#000000;stroke-width:0.8;" x="203.694545" xlink:href="#macdd634d9e" y="307.584"/>
      </g>
     </g>
     <g id="text_3">
      <!-- 40 -->
      <g transform="translate(197.332045 322.182437)scale(0.1 -0.1)">
       <defs>
        <path d="M 37.796875 64.3125 
L 12.890625 25.390625 
L 37.796875 25.390625 
z
M 35.203125 72.90625 
L 47.609375 72.90625 
L 47.609375 25.390625 
L 58.015625 25.390625 
L 58.015625 17.1875 
L 47.609375 17.1875 
L 47.609375 0 
L 37.796875 0 
L 37.796875 17.1875 
L 4.890625 17.1875 
L 4.890625 26.703125 
z
" id="DejaVuSans-52"/>
       </defs>
       <use xlink:href="#DejaVuSans-52"/>
       <use x="63.623047" xlink:href="#DejaVuSans-48"/>
      </g>
     </g>
    </g>
    <g id="xtick_4">
     <g id="line2d_7">
      <path clip-path="url(#p003d4717d3)" d="M 268.625455 307.584 
L 268.625455 41.472 
" style="fill:none;stroke:#b0b0b0;stroke-linecap:square;stroke-width:0.8;"/>
     </g>
     <g id="line2d_8">
      <g>
       <use style="stroke:#000000;stroke-width:0.8;" x="268.625455" xlink:href="#macdd634d9e" y="307.584"/>
      </g>
     </g>
     <g id="text_4">
      <!-- 60 -->
      <g transform="translate(262.262955 322.182437)scale(0.1 -0.1)">
       <defs>
        <path d="M 33.015625 40.375 
Q 26.375 40.375 22.484375 35.828125 
Q 18.609375 31.296875 18.609375 23.390625 
Q 18.609375 15.53125 22.484375 10.953125 
Q 26.375 6.390625 33.015625 6.390625 
Q 39.65625 6.390625 43.53125 10.953125 
Q 47.40625 15.53125 47.40625 23.390625 
Q 47.40625 31.296875 43.53125 35.828125 
Q 39.65625 40.375 33.015625 40.375 
z
M 52.59375 71.296875 
L 52.59375 62.3125 
Q 48.875 64.0625 45.09375 64.984375 
Q 41.3125 65.921875 37.59375 65.921875 
Q 27.828125 65.921875 22.671875 59.328125 
Q 17.53125 52.734375 16.796875 39.40625 
Q 19.671875 43.65625 24.015625 45.921875 
Q 28.375 48.1875 33.59375 48.1875 
Q 44.578125 48.1875 50.953125 41.515625 
Q 57.328125 34.859375 57.328125 23.390625 
Q 57.328125 12.15625 50.6875 5.359375 
Q 44.046875 -1.421875 33.015625 -1.421875 
Q 20.359375 -1.421875 13.671875 8.265625 
Q 6.984375 17.96875 6.984375 36.375 
Q 6.984375 53.65625 15.1875 63.9375 
Q 23.390625 74.21875 37.203125 74.21875 
Q 40.921875 74.21875 44.703125 73.484375 
Q 48.484375 72.75 52.59375 71.296875 
z
" id="DejaVuSans-54"/>
       </defs>
       <use xlink:href="#DejaVuSans-54"/>
       <use x="63.623047" xlink:href="#DejaVuSans-48"/>
      </g>
     </g>
    </g>
    <g id="xtick_5">
     <g id="line2d_9">
      <path clip-path="url(#p003d4717d3)" d="M 333.556364 307.584 
L 333.556364 41.472 
" style="fill:none;stroke:#b0b0b0;stroke-linecap:square;stroke-width:0.8;"/>
     </g>
     <g id="line2d_10">
      <g>
       <use style="stroke:#000000;stroke-width:0.8;" x="333.556364" xlink:href="#macdd634d9e" y="307.584"/>
      </g>
     </g>
     <g id="text_5">
      <!-- 80 -->
      <g transform="translate(327.193864 322.182437)scale(0.1 -0.1)">
       <defs>
        <path d="M 31.78125 34.625 
Q 24.75 34.625 20.71875 30.859375 
Q 16.703125 27.09375 16.703125 20.515625 
Q 16.703125 13.921875 20.71875 10.15625 
Q 24.75 6.390625 31.78125 6.390625 
Q 38.8125 6.390625 42.859375 10.171875 
Q 46.921875 13.96875 46.921875 20.515625 
Q 46.921875 27.09375 42.890625 30.859375 
Q 38.875 34.625 31.78125 34.625 
z
M 21.921875 38.8125 
Q 15.578125 40.375 12.03125 44.71875 
Q 8.5 49.078125 8.5 55.328125 
Q 8.5 64.0625 14.71875 69.140625 
Q 20.953125 74.21875 31.78125 74.21875 
Q 42.671875 74.21875 48.875 69.140625 
Q 55.078125 64.0625 55.078125 55.328125 
Q 55.078125 49.078125 51.53125 44.71875 
Q 48 40.375 41.703125 38.8125 
Q 48.828125 37.15625 52.796875 32.3125 
Q 56.78125 27.484375 56.78125 20.515625 
Q 56.78125 9.90625 50.3125 4.234375 
Q 43.84375 -1.421875 31.78125 -1.421875 
Q 19.734375 -1.421875 13.25 4.234375 
Q 6.78125 9.90625 6.78125 20.515625 
Q 6.78125 27.484375 10.78125 32.3125 
Q 14.796875 37.15625 21.921875 38.8125 
z
M 18.3125 54.390625 
Q 18.3125 48.734375 21.84375 45.5625 
Q 25.390625 42.390625 31.78125 42.390625 
Q 38.140625 42.390625 41.71875 45.5625 
Q 45.3125 48.734375 45.3125 54.390625 
Q 45.3125 60.0625 41.71875 63.234375 
Q 38.140625 66.40625 31.78125 66.40625 
Q 25.390625 66.40625 21.84375 63.234375 
Q 18.3125 60.0625 18.3125 54.390625 
z
" id="DejaVuSans-56"/>
       </defs>
       <use xlink:href="#DejaVuSans-56"/>
       <use x="63.623047" xlink:href="#DejaVuSans-48"/>
      </g>
     </g>
    </g>
    <g id="xtick_6">
     <g id="line2d_11">
      <path clip-path="url(#p003d4717d3)" d="M 398.487273 307.584 
L 398.487273 41.472 
" style="fill:none;stroke:#b0b0b0;stroke-linecap:square;stroke-width:0.8;"/>
     </g>
     <g id="line2d_12">
      <g>
       <use style="stroke:#000000;stroke-width:0.8;" x="398.487273" xlink:href="#macdd634d9e" y="307.584"/>
      </g>
     </g>
     <g id="text_6">
      <!-- 100 -->
      <g transform="translate(388.943523 322.182437)scale(0.1 -0.1)">
       <defs>
        <path d="M 12.40625 8.296875 
L 28.515625 8.296875 
L 28.515625 63.921875 
L 10.984375 60.40625 
L 10.984375 69.390625 
L 28.421875 72.90625 
L 38.28125 72.90625 
L 38.28125 8.296875 
L 54.390625 8.296875 
L 54.390625 0 
L 12.40625 0 
z
" id="DejaVuSans-49"/>
       </defs>
       <use xlink:href="#DejaVuSans-49"/>
       <use x="63.623047" xlink:href="#DejaVuSans-48"/>
       <use x="127.246094" xlink:href="#DejaVuSans-48"/>
      </g>
     </g>
    </g>
    <g id="text_7">
     <!-- Liczba atomów -->
     <g transform="translate(198.681875 335.860562)scale(0.1 -0.1)">
      <defs>
       <path d="M 9.8125 72.90625 
L 19.671875 72.90625 
L 19.671875 8.296875 
L 55.171875 8.296875 
L 55.171875 0 
L 9.8125 0 
z
" id="DejaVuSans-76"/>
       <path d="M 9.421875 54.6875 
L 18.40625 54.6875 
L 18.40625 0 
L 9.421875 0 
z
M 9.421875 75.984375 
L 18.40625 75.984375 
L 18.40625 64.59375 
L 9.421875 64.59375 
z
" id="DejaVuSans-105"/>
       <path d="M 48.78125 52.59375 
L 48.78125 44.1875 
Q 44.96875 46.296875 41.140625 47.34375 
Q 37.3125 48.390625 33.40625 48.390625 
Q 24.65625 48.390625 19.8125 42.84375 
Q 14.984375 37.3125 14.984375 27.296875 
Q 14.984375 17.28125 19.8125 11.734375 
Q 24.65625 6.203125 33.40625 6.203125 
Q 37.3125 6.203125 41.140625 7.25 
Q 44.96875 8.296875 48.78125 10.40625 
L 48.78125 2.09375 
Q 45.015625 0.34375 40.984375 -0.53125 
Q 36.96875 -1.421875 32.421875 -1.421875 
Q 20.0625 -1.421875 12.78125 6.34375 
Q 5.515625 14.109375 5.515625 27.296875 
Q 5.515625 40.671875 12.859375 48.328125 
Q 20.21875 56 33.015625 56 
Q 37.15625 56 41.109375 55.140625 
Q 45.0625 54.296875 48.78125 52.59375 
z
" id="DejaVuSans-99"/>
       <path d="M 5.515625 54.6875 
L 48.1875 54.6875 
L 48.1875 46.484375 
L 14.40625 7.171875 
L 48.1875 7.171875 
L 48.1875 0 
L 4.296875 0 
L 4.296875 8.203125 
L 38.09375 47.515625 
L 5.515625 47.515625 
z
" id="DejaVuSans-122"/>
       <path d="M 48.6875 27.296875 
Q 48.6875 37.203125 44.609375 42.84375 
Q 40.53125 48.484375 33.40625 48.484375 
Q 26.265625 48.484375 22.1875 42.84375 
Q 18.109375 37.203125 18.109375 27.296875 
Q 18.109375 17.390625 22.1875 11.75 
Q 26.265625 6.109375 33.40625 6.109375 
Q 40.53125 6.109375 44.609375 11.75 
Q 48.6875 17.390625 48.6875 27.296875 
z
M 18.109375 46.390625 
Q 20.953125 51.265625 25.265625 53.625 
Q 29.59375 56 35.59375 56 
Q 45.5625 56 51.78125 48.09375 
Q 58.015625 40.1875 58.015625 27.296875 
Q 58.015625 14.40625 51.78125 6.484375 
Q 45.5625 -1.421875 35.59375 -1.421875 
Q 29.59375 -1.421875 25.265625 0.953125 
Q 20.953125 3.328125 18.109375 8.203125 
L 18.109375 0 
L 9.078125 0 
L 9.078125 75.984375 
L 18.109375 75.984375 
z
" id="DejaVuSans-98"/>
       <path d="M 34.28125 27.484375 
Q 23.390625 27.484375 19.1875 25 
Q 14.984375 22.515625 14.984375 16.5 
Q 14.984375 11.71875 18.140625 8.90625 
Q 21.296875 6.109375 26.703125 6.109375 
Q 34.1875 6.109375 38.703125 11.40625 
Q 43.21875 16.703125 43.21875 25.484375 
L 43.21875 27.484375 
z
M 52.203125 31.203125 
L 52.203125 0 
L 43.21875 0 
L 43.21875 8.296875 
Q 40.140625 3.328125 35.546875 0.953125 
Q 30.953125 -1.421875 24.3125 -1.421875 
Q 15.921875 -1.421875 10.953125 3.296875 
Q 6 8.015625 6 15.921875 
Q 6 25.140625 12.171875 29.828125 
Q 18.359375 34.515625 30.609375 34.515625 
L 43.21875 34.515625 
L 43.21875 35.40625 
Q 43.21875 41.609375 39.140625 45 
Q 35.0625 48.390625 27.6875 48.390625 
Q 23 48.390625 18.546875 47.265625 
Q 14.109375 46.140625 10.015625 43.890625 
L 10.015625 52.203125 
Q 14.9375 54.109375 19.578125 55.046875 
Q 24.21875 56 28.609375 56 
Q 40.484375 56 46.34375 49.84375 
Q 52.203125 43.703125 52.203125 31.203125 
z
" id="DejaVuSans-97"/>
       <path id="DejaVuSans-32"/>
       <path d="M 18.3125 70.21875 
L 18.3125 54.6875 
L 36.8125 54.6875 
L 36.8125 47.703125 
L 18.3125 47.703125 
L 18.3125 18.015625 
Q 18.3125 11.328125 20.140625 9.421875 
Q 21.96875 7.515625 27.59375 7.515625 
L 36.8125 7.515625 
L 36.8125 0 
L 27.59375 0 
Q 17.1875 0 13.234375 3.875 
Q 9.28125 7.765625 9.28125 18.015625 
L 9.28125 47.703125 
L 2.6875 47.703125 
L 2.6875 54.6875 
L 9.28125 54.6875 
L 9.28125 70.21875 
z
" id="DejaVuSans-116"/>
       <path d="M 30.609375 48.390625 
Q 23.390625 48.390625 19.1875 42.75 
Q 14.984375 37.109375 14.984375 27.296875 
Q 14.984375 17.484375 19.15625 11.84375 
Q 23.34375 6.203125 30.609375 6.203125 
Q 37.796875 6.203125 41.984375 11.859375 
Q 46.1875 17.53125 46.1875 27.296875 
Q 46.1875 37.015625 41.984375 42.703125 
Q 37.796875 48.390625 30.609375 48.390625 
z
M 30.609375 56 
Q 42.328125 56 49.015625 48.375 
Q 55.71875 40.765625 55.71875 27.296875 
Q 55.71875 13.875 49.015625 6.21875 
Q 42.328125 -1.421875 30.609375 -1.421875 
Q 18.84375 -1.421875 12.171875 6.21875 
Q 5.515625 13.875 5.515625 27.296875 
Q 5.515625 40.765625 12.171875 48.375 
Q 18.84375 56 30.609375 56 
z
" id="DejaVuSans-111"/>
       <path d="M 52 44.1875 
Q 55.375 50.25 60.0625 53.125 
Q 64.75 56 71.09375 56 
Q 79.640625 56 84.28125 50.015625 
Q 88.921875 44.046875 88.921875 33.015625 
L 88.921875 0 
L 79.890625 0 
L 79.890625 32.71875 
Q 79.890625 40.578125 77.09375 44.375 
Q 74.3125 48.1875 68.609375 48.1875 
Q 61.625 48.1875 57.5625 43.546875 
Q 53.515625 38.921875 53.515625 30.90625 
L 53.515625 0 
L 44.484375 0 
L 44.484375 32.71875 
Q 44.484375 40.625 41.703125 44.40625 
Q 38.921875 48.1875 33.109375 48.1875 
Q 26.21875 48.1875 22.15625 43.53125 
Q 18.109375 38.875 18.109375 30.90625 
L 18.109375 0 
L 9.078125 0 
L 9.078125 54.6875 
L 18.109375 54.6875 
L 18.109375 46.1875 
Q 21.1875 51.21875 25.484375 53.609375 
Q 29.78125 56 35.6875 56 
Q 41.65625 56 45.828125 52.96875 
Q 50 49.953125 52 44.1875 
z
" id="DejaVuSans-109"/>
       <path d="M 30.609375 48.390625 
Q 23.390625 48.390625 19.1875 42.75 
Q 14.984375 37.109375 14.984375 27.296875 
Q 14.984375 17.484375 19.15625 11.84375 
Q 23.34375 6.203125 30.609375 6.203125 
Q 37.796875 6.203125 41.984375 11.859375 
Q 46.1875 17.53125 46.1875 27.296875 
Q 46.1875 37.015625 41.984375 42.703125 
Q 37.796875 48.390625 30.609375 48.390625 
z
M 30.609375 56 
Q 42.328125 56 49.015625 48.375 
Q 55.71875 40.765625 55.71875 27.296875 
Q 55.71875 13.875 49.015625 6.21875 
Q 42.328125 -1.421875 30.609375 -1.421875 
Q 18.84375 -1.421875 12.171875 6.21875 
Q 5.515625 13.875 5.515625 27.296875 
Q 5.515625 40.765625 12.171875 48.375 
Q 18.84375 56 30.609375 56 
z
M 37.40625 79.984375 
L 47.125 79.984375 
L 31.21875 61.625 
L 23.734375 61.625 
z
" id="DejaVuSans-243"/>
       <path d="M 4.203125 54.6875 
L 13.1875 54.6875 
L 24.421875 12.015625 
L 35.59375 54.6875 
L 46.1875 54.6875 
L 57.421875 12.015625 
L 68.609375 54.6875 
L 77.59375 54.6875 
L 63.28125 0 
L 52.6875 0 
L 40.921875 44.828125 
L 29.109375 0 
L 18.5 0 
z
" id="DejaVuSans-119"/>
      </defs>
      <use xlink:href="#DejaVuSans-76"/>
      <use x="55.712891" xlink:href="#DejaVuSans-105"/>
      <use x="83.496094" xlink:href="#DejaVuSans-99"/>
      <use x="138.476562" xlink:href="#DejaVuSans-122"/>
      <use x="190.966797" xlink:href="#DejaVuSans-98"/>
      <use x="254.443359" xlink:href="#DejaVuSans-97"/>
      <use x="315.722656" xlink:href="#DejaVuSans-32"/>
      <use x="347.509766" xlink:href="#DejaVuSans-97"/>
      <use x="408.789062" xlink:href="#DejaVuSans-116"/>
      <use x="447.998047" xlink:href="#DejaVuSans-111"/>
      <use x="509.179688" xlink:href="#DejaVuSans-109"/>
      <use x="606.591797" xlink:href="#DejaVuSans-243"/>
      <use x="667.773438" xlink:href="#DejaVuSans-119"/>
     </g>
    </g>
   </g>
   <g id="matplotlib.axis_2">
    <g id="ytick_1">
     <g id="line2d_13">
      <path clip-path="url(#p003d4717d3)" d="M 57.6 295.488 
L 414.72 295.488 
" style="fill:none;stroke:#b0b0b0;stroke-linecap:square;stroke-width:0.8;"/>
     </g>
     <g id="line2d_14">
      <defs>
       <path d="M 0 0 
L -3.5 0 
" id="md1a5c496c0" style="stroke:#000000;stroke-width:0.8;"/>
      </defs>
      <g>
       <use style="stroke:#000000;stroke-width:0.8;" x="57.6" xlink:href="#md1a5c496c0" y="295.488"/>
      </g>
     </g>
     <g id="text_8">
      <!-- 0 -->
      <g transform="translate(44.2375 299.287219)scale(0.1 -0.1)">
       <use xlink:href="#DejaVuSans-48"/>
      </g>
     </g>
    </g>
    <g id="ytick_2">
     <g id="line2d_15">
      <path clip-path="url(#p003d4717d3)" d="M 57.6 240.964259 
L 414.72 240.964259 
" style="fill:none;stroke:#b0b0b0;stroke-linecap:square;stroke-width:0.8;"/>
     </g>
     <g id="line2d_16">
      <g>
       <use style="stroke:#000000;stroke-width:0.8;" x="57.6" xlink:href="#md1a5c496c0" y="240.964259"/>
      </g>
     </g>
     <g id="text_9">
      <!-- 200 -->
      <g transform="translate(31.5125 244.763478)scale(0.1 -0.1)">
       <use xlink:href="#DejaVuSans-50"/>
       <use x="63.623047" xlink:href="#DejaVuSans-48"/>
       <use x="127.246094" xlink:href="#DejaVuSans-48"/>
      </g>
     </g>
    </g>
    <g id="ytick_3">
     <g id="line2d_17">
      <path clip-path="url(#p003d4717d3)" d="M 57.6 186.440518 
L 414.72 186.440518 
" style="fill:none;stroke:#b0b0b0;stroke-linecap:square;stroke-width:0.8;"/>
     </g>
     <g id="line2d_18">
      <g>
       <use style="stroke:#000000;stroke-width:0.8;" x="57.6" xlink:href="#md1a5c496c0" y="186.440518"/>
      </g>
     </g>
     <g id="text_10">
      <!-- 400 -->
      <g transform="translate(31.5125 190.239737)scale(0.1 -0.1)">
       <use xlink:href="#DejaVuSans-52"/>
       <use x="63.623047" xlink:href="#DejaVuSans-48"/>
       <use x="127.246094" xlink:href="#DejaVuSans-48"/>
      </g>
     </g>
    </g>
    <g id="ytick_4">
     <g id="line2d_19">
      <path clip-path="url(#p003d4717d3)" d="M 57.6 131.916777 
L 414.72 131.916777 
" style="fill:none;stroke:#b0b0b0;stroke-linecap:square;stroke-width:0.8;"/>
     </g>
     <g id="line2d_20">
      <g>
       <use style="stroke:#000000;stroke-width:0.8;" x="57.6" xlink:href="#md1a5c496c0" y="131.916777"/>
      </g>
     </g>
     <g id="text_11">
      <!-- 600 -->
      <g transform="translate(31.5125 135.715996)scale(0.1 -0.1)">
       <use xlink:href="#DejaVuSans-54"/>
       <use x="63.623047" xlink:href="#DejaVuSans-48"/>
       <use x="127.246094" xlink:href="#DejaVuSans-48"/>
      </g>
     </g>
    </g>
    <g id="ytick_5">
     <g id="line2d_21">
      <path clip-path="url(#p003d4717d3)" d="M 57.6 77.393036 
L 414.72 77.393036 
" style="fill:none;stroke:#b0b0b0;stroke-linecap:square;stroke-width:0.8;"/>
     </g>
     <g id="line2d_22">
      <g>
       <use style="stroke:#000000;stroke-width:0.8;" x="57.6" xlink:href="#md1a5c496c0" y="77.393036"/>
      </g>
     </g>
     <g id="text_12">
      <!-- 800 -->
      <g transform="translate(31.5125 81.192255)scale(0.1 -0.1)">
       <use xlink:href="#DejaVuSans-56"/>
       <use x="63.623047" xlink:href="#DejaVuSans-48"/>
       <use x="127.246094" xlink:href="#DejaVuSans-48"/>
      </g>
     </g>
    </g>
    <g id="text_13">
     <!-- Droga -->
     <g transform="translate(25.432812 189.618625)rotate(-90)scale(0.1 -0.1)">
      <defs>
       <path d="M 19.671875 64.796875 
L 19.671875 8.109375 
L 31.59375 8.109375 
Q 46.6875 8.109375 53.6875 14.9375 
Q 60.6875 21.78125 60.6875 36.53125 
Q 60.6875 51.171875 53.6875 57.984375 
Q 46.6875 64.796875 31.59375 64.796875 
z
M 9.8125 72.90625 
L 30.078125 72.90625 
Q 51.265625 72.90625 61.171875 64.09375 
Q 71.09375 55.28125 71.09375 36.53125 
Q 71.09375 17.671875 61.125 8.828125 
Q 51.171875 0 30.078125 0 
L 9.8125 0 
z
" id="DejaVuSans-68"/>
       <path d="M 41.109375 46.296875 
Q 39.59375 47.171875 37.8125 47.578125 
Q 36.03125 48 33.890625 48 
Q 26.265625 48 22.1875 43.046875 
Q 18.109375 38.09375 18.109375 28.8125 
L 18.109375 0 
L 9.078125 0 
L 9.078125 54.6875 
L 18.109375 54.6875 
L 18.109375 46.1875 
Q 20.953125 51.171875 25.484375 53.578125 
Q 30.03125 56 36.53125 56 
Q 37.453125 56 38.578125 55.875 
Q 39.703125 55.765625 41.0625 55.515625 
z
" id="DejaVuSans-114"/>
       <path d="M 45.40625 27.984375 
Q 45.40625 37.75 41.375 43.109375 
Q 37.359375 48.484375 30.078125 48.484375 
Q 22.859375 48.484375 18.828125 43.109375 
Q 14.796875 37.75 14.796875 27.984375 
Q 14.796875 18.265625 18.828125 12.890625 
Q 22.859375 7.515625 30.078125 7.515625 
Q 37.359375 7.515625 41.375 12.890625 
Q 45.40625 18.265625 45.40625 27.984375 
z
M 54.390625 6.78125 
Q 54.390625 -7.171875 48.1875 -13.984375 
Q 42 -20.796875 29.203125 -20.796875 
Q 24.46875 -20.796875 20.265625 -20.09375 
Q 16.0625 -19.390625 12.109375 -17.921875 
L 12.109375 -9.1875 
Q 16.0625 -11.328125 19.921875 -12.34375 
Q 23.78125 -13.375 27.78125 -13.375 
Q 36.625 -13.375 41.015625 -8.765625 
Q 45.40625 -4.15625 45.40625 5.171875 
L 45.40625 9.625 
Q 42.625 4.78125 38.28125 2.390625 
Q 33.9375 0 27.875 0 
Q 17.828125 0 11.671875 7.65625 
Q 5.515625 15.328125 5.515625 27.984375 
Q 5.515625 40.671875 11.671875 48.328125 
Q 17.828125 56 27.875 56 
Q 33.9375 56 38.28125 53.609375 
Q 42.625 51.21875 45.40625 46.390625 
L 45.40625 54.6875 
L 54.390625 54.6875 
z
" id="DejaVuSans-103"/>
      </defs>
      <use xlink:href="#DejaVuSans-68"/>
      <use x="77.001953" xlink:href="#DejaVuSans-114"/>
      <use x="115.865234" xlink:href="#DejaVuSans-111"/>
      <use x="177.046875" xlink:href="#DejaVuSans-103"/>
      <use x="240.523438" xlink:href="#DejaVuSans-97"/>
     </g>
    </g>
   </g>
   <g id="line2d_23">
    <path clip-path="url(#p003d4717d3)" d="M 73.832727 295.488 
L 77.079273 295.488 
L 80.325818 295.488 
L 83.572364 295.488 
L 86.818909 295.488 
L 90.065455 283.321576 
L 93.312 289.987406 
L 96.558545 287.117764 
L 99.805091 294.696968 
L 103.051636 291.465971 
L 106.298182 293.602451 
L 109.544727 295.488 
L 112.791273 292.086477 
L 116.037818 291.072153 
L 119.284364 292.714038 
L 122.530909 294.461228 
L 125.777455 290.610989 
L 129.024 293.892332 
L 132.270545 288.48719 
L 135.517091 294.813196 
L 138.763636 293.173365 
L 142.010182 290.24627 
L 145.256727 292.695849 
L 148.503273 293.335567 
L 151.749818 293.887863 
L 154.996364 291.932265 
L 158.242909 293.408696 
L 161.489455 292.611831 
L 164.736 294.033626 
L 167.982545 291.369967 
L 171.229091 293.601676 
L 174.475636 293.703292 
L 177.722182 290.500358 
L 180.968727 292.874719 
L 184.215273 292.343288 
L 187.461818 293.109484 
L 190.708364 293.216307 
L 193.954909 293.047953 
L 197.201455 292.754514 
L 200.448 293.398406 
L 203.694545 294.45171 
L 206.941091 292.672798 
L 210.187636 294.185319 
L 213.434182 293.354943 
L 216.680727 293.518297 
L 219.927273 292.793729 
L 223.173818 293.658375 
L 226.420364 294.330039 
L 229.666909 294.130542 
L 232.913455 292.191396 
L 236.16 294.321835 
L 239.406545 294.45382 
L 242.653091 294.678622 
L 245.899636 294.350446 
L 249.146182 294.446 
L 252.392727 293.861094 
L 255.639273 293.925182 
L 258.885818 293.746189 
L 262.132364 293.125954 
L 265.378909 294.366364 
L 268.625455 294.564705 
L 271.872 294.260202 
L 275.118545 294.478491 
L 278.365091 294.435991 
L 281.611636 294.560127 
L 284.858182 294.796929 
L 288.104727 293.954869 
L 291.351273 294.036751 
L 294.597818 294.266388 
L 297.844364 294.613273 
L 301.090909 294.194301 
L 304.337455 293.918443 
L 307.584 294.240867 
L 310.830545 294.113656 
L 314.077091 294.495913 
L 317.323636 294.106095 
L 320.570182 294.393661 
L 323.816727 294.438568 
L 327.063273 294.661033 
L 330.309818 294.204916 
L 333.556364 294.215269 
L 336.802909 294.556124 
L 340.049455 294.735618 
L 343.296 294.616952 
L 346.542545 294.596579 
L 349.789091 293.991654 
L 353.035636 294.611185 
L 356.282182 294.61885 
L 359.528727 294.954051 
L 362.775273 294.123705 
L 366.021818 294.945322 
L 369.268364 294.609244 
L 372.514909 294.829761 
L 375.761455 294.947782 
L 379.008 294.833574 
L 382.254545 294.763796 
L 385.501091 294.383912 
L 388.747636 294.67086 
L 391.994182 294.730983 
L 395.240727 294.861138 
L 398.487273 294.727175 
" style="fill:none;stroke:#1f77b4;stroke-linecap:square;stroke-width:1.5;"/>
   </g>
   <g id="line2d_24">
    <path clip-path="url(#p003d4717d3)" d="M 73.832727 295.488 
L 77.079273 295.488 
L 80.325818 295.488 
L 83.572364 295.488 
L 86.818909 295.488 
L 90.065455 283.321576 
L 93.312 281.137582 
L 96.558545 286.714373 
L 99.805091 277.704488 
L 103.051636 286.815375 
L 106.298182 292.816686 
L 109.544727 295.488 
L 112.791273 291.169944 
L 116.037818 291.413704 
L 119.284364 279.806014 
L 122.530909 291.688488 
L 125.777455 286.441864 
L 129.024 292.501773 
L 132.270545 288.051061 
L 135.517091 294.813196 
L 138.763636 292.85813 
L 142.010182 289.687077 
L 145.256727 293.159093 
L 148.503273 293.273607 
L 151.749818 292.990474 
L 154.996364 291.338667 
L 158.242909 292.084808 
L 161.489455 290.975779 
L 164.736 293.14025 
L 167.982545 292.0877 
L 171.229091 292.410628 
L 174.475636 292.568544 
L 177.722182 291.372205 
L 180.968727 291.092587 
L 184.215273 291.758549 
L 187.461818 292.942257 
L 190.708364 293.272612 
L 193.954909 293.670642 
L 197.201455 292.597879 
L 200.448 293.219793 
L 203.694545 293.279452 
L 206.941091 292.954116 
L 210.187636 293.742109 
L 213.434182 293.828906 
L 216.680727 293.860746 
L 219.927273 293.38049 
L 223.173818 294.191165 
L 226.420364 294.239758 
L 229.666909 293.988837 
L 232.913455 292.078135 
L 236.16 293.807982 
L 239.406545 294.090369 
L 242.653091 294.488159 
L 245.899636 294.223176 
L 249.146182 294.187163 
L 252.392727 294.240682 
L 255.639273 294.257122 
L 258.885818 293.881697 
L 262.132364 293.740223 
L 265.378909 294.606487 
L 268.625455 294.551572 
L 271.872 294.100973 
L 275.118545 294.424462 
L 278.365091 294.348409 
L 281.611636 294.448497 
L 284.858182 294.730981 
L 288.104727 293.86986 
L 291.351273 294.277664 
L 294.597818 294.518955 
L 297.844364 294.341464 
L 301.090909 294.275844 
L 304.337455 294.160155 
L 307.584 294.369665 
L 310.830545 294.42585 
L 314.077091 294.415253 
L 317.323636 294.34013 
L 320.570182 294.484373 
L 323.816727 294.310729 
L 327.063273 294.675447 
L 330.309818 294.425221 
L 333.556364 294.286817 
L 336.802909 294.752157 
L 340.049455 294.821034 
L 343.296 294.448192 
L 346.542545 294.676174 
L 349.789091 294.148446 
L 353.035636 294.599393 
L 356.282182 294.643606 
L 359.528727 294.798831 
L 362.775273 294.272169 
L 366.021818 294.800852 
L 369.268364 294.716473 
L 372.514909 294.714455 
L 375.761455 294.761662 
L 379.008 294.738909 
L 382.254545 294.865815 
L 385.501091 294.50974 
L 388.747636 294.650765 
L 391.994182 294.785386 
L 395.240727 294.742421 
L 398.487273 294.695841 
" style="fill:none;stroke:#ff7f0e;stroke-linecap:square;stroke-width:1.5;"/>
   </g>
   <g id="line2d_25">
    <path clip-path="url(#p003d4717d3)" d="M 73.832727 295.488 
L 77.079273 295.488 
L 80.325818 294.128822 
L 83.572364 295.488 
L 86.818909 295.488 
L 90.065455 281.854774 
L 93.312 264.939524 
L 96.558545 275.337026 
L 99.805091 277.927542 
L 103.051636 283.230971 
L 106.298182 287.280953 
L 109.544727 286.588608 
L 112.791273 286.128789 
L 116.037818 287.780052 
L 119.284364 276.421347 
L 122.530909 286.992404 
L 125.777455 287.039409 
L 129.024 287.631671 
L 132.270545 289.068254 
L 135.517091 292.171052 
L 138.763636 290.305726 
L 142.010182 290.560151 
L 145.256727 292.743401 
L 148.503273 292.401252 
L 151.749818 291.174502 
L 154.996364 292.033785 
L 158.242909 292.984606 
L 161.489455 291.125836 
L 164.736 292.846688 
L 167.982545 292.64038 
L 171.229091 291.396806 
L 174.475636 292.509866 
L 177.722182 292.873249 
L 180.968727 292.37173 
L 184.215273 292.812958 
L 187.461818 293.577515 
L 190.708364 292.932204 
L 193.954909 293.481304 
L 197.201455 293.028677 
L 200.448 293.505502 
L 203.694545 293.307667 
L 206.941091 293.236224 
L 210.187636 293.612183 
L 213.434182 293.418525 
L 216.680727 293.804955 
L 219.927273 294.069128 
L 223.173818 294.276473 
L 226.420364 293.768146 
L 229.666909 293.855693 
L 232.913455 293.764509 
L 236.16 293.897633 
L 239.406545 294.056884 
L 242.653091 294.380777 
L 245.899636 294.34772 
L 249.146182 294.46342 
L 252.392727 293.948629 
L 255.639273 294.236941 
L 258.885818 294.148355 
L 262.132364 294.017153 
L 265.378909 294.545676 
L 268.625455 294.421718 
L 271.872 294.212663 
L 275.118545 294.307989 
L 278.365091 294.357512 
L 281.611636 294.275868 
L 284.858182 294.691556 
L 288.104727 293.968889 
L 291.351273 294.312013 
L 294.597818 294.562551 
L 297.844364 294.24711 
L 301.090909 294.299581 
L 304.337455 294.479999 
L 307.584 294.213406 
L 310.830545 294.514019 
L 314.077091 294.438463 
L 317.323636 294.401513 
L 320.570182 294.486673 
L 323.816727 294.236088 
L 327.063273 294.533922 
L 330.309818 294.518242 
L 333.556364 294.357584 
L 336.802909 294.560314 
L 340.049455 294.619663 
L 343.296 294.449441 
L 346.542545 294.651569 
L 349.789091 294.55712 
L 353.035636 294.619512 
L 356.282182 294.585681 
L 359.528727 294.801199 
L 362.775273 294.529597 
L 366.021818 294.81486 
L 369.268364 294.808039 
L 372.514909 294.63837 
L 375.761455 294.705484 
L 379.008 294.761752 
L 382.254545 294.869945 
L 385.501091 294.722712 
L 388.747636 294.752007 
L 391.994182 294.806008 
L 395.240727 294.758806 
L 398.487273 294.732546 
" style="fill:none;stroke:#2ca02c;stroke-linecap:square;stroke-width:1.5;"/>
   </g>
   <g id="line2d_26">
    <path clip-path="url(#p003d4717d3)" d="M 73.832727 295.488 
L 77.079273 295.488 
L 80.325818 255.313125 
L 83.572364 282.258232 
L 86.818909 271.99772 
L 90.065455 252.754625 
L 93.312 267.585865 
L 96.558545 279.998226 
L 99.805091 278.704965 
L 103.051636 277.0954 
L 106.298182 282.35613 
L 109.544727 286.997433 
L 112.791273 285.122876 
L 116.037818 285.956958 
L 119.284364 284.298983 
L 122.530909 288.490092 
L 125.777455 287.568237 
L 129.024 289.047273 
L 132.270545 289.717661 
L 135.517091 290.545344 
L 138.763636 290.86942 
L 142.010182 291.264584 
L 145.256727 291.787249 
L 148.503273 292.337192 
L 151.749818 291.13379 
L 154.996364 292.022969 
L 158.242909 292.470735 
L 161.489455 291.771684 
L 164.736 292.938663 
L 167.982545 292.719342 
L 171.229091 291.744533 
L 174.475636 292.600667 
L 177.722182 293.106981 
L 180.968727 292.671921 
L 184.215273 293.325013 
L 187.461818 293.353555 
L 190.708364 292.902697 
L 193.954909 293.280787 
L 197.201455 293.508977 
L 200.448 293.744798 
L 203.694545 293.141861 
L 206.941091 293.491064 
L 210.187636 293.866519 
L 213.434182 293.588603 
L 216.680727 293.617727 
L 219.927273 294.043504 
L 223.173818 294.1023 
L 226.420364 293.84359 
L 229.666909 294.010714 
L 232.913455 293.929495 
L 236.16 294.157653 
L 239.406545 294.187396 
L 242.653091 294.362337 
L 245.899636 294.385886 
L 249.146182 294.33448 
L 252.392727 294.001882 
L 255.639273 294.20576 
L 258.885818 294.250915 
L 262.132364 294.071998 
L 265.378909 294.503698 
L 268.625455 294.403948 
L 271.872 294.065619 
L 275.118545 294.393044 
L 278.365091 294.343019 
L 281.611636 294.432973 
L 284.858182 294.645067 
L 288.104727 294.33015 
L 291.351273 294.494424 
L 294.597818 294.425919 
L 297.844364 294.012545 
L 301.090909 294.378697 
L 304.337455 294.564144 
L 307.584 294.290064 
L 310.830545 294.54118 
L 314.077091 294.578116 
L 317.323636 294.579369 
L 320.570182 294.520619 
L 323.816727 294.241214 
L 327.063273 294.515339 
L 330.309818 294.57128 
L 333.556364 294.491076 
L 336.802909 294.497704 
L 340.049455 294.591755 
L 343.296 294.588276 
L 346.542545 294.712815 
L 349.789091 294.583522 
L 353.035636 294.698332 
L 356.282182 294.677114 
L 359.528727 294.747204 
L 362.775273 294.569335 
L 366.021818 294.814826 
L 369.268364 294.75704 
L 372.514909 294.695574 
L 375.761455 294.759792 
L 379.008 294.760654 
L 382.254545 294.850142 
L 385.501091 294.810665 
L 388.747636 294.813388 
L 391.994182 294.776428 
L 395.240727 294.7682 
L 398.487273 294.815734 
" style="fill:none;stroke:#d62728;stroke-linecap:square;stroke-width:1.5;"/>
   </g>
   <g id="line2d_27">
    <path clip-path="url(#p003d4717d3)" d="M 73.832727 295.488 
L 77.079273 295.488 
L 80.325818 205.63761 
L 83.572364 239.680445 
L 86.818909 277.025196 
L 90.065455 251.247369 
L 93.312 272.658698 
L 96.558545 278.711231 
L 99.805091 281.621942 
L 103.051636 279.774707 
L 106.298182 283.964724 
L 109.544727 285.513001 
L 112.791273 284.53982 
L 116.037818 287.116705 
L 119.284364 285.99516 
L 122.530909 289.501211 
L 125.777455 287.888736 
L 129.024 289.74451 
L 132.270545 290.600342 
L 135.517091 289.536991 
L 138.763636 291.012047 
L 142.010182 290.938635 
L 145.256727 291.408911 
L 148.503273 291.844835 
L 151.749818 291.260851 
L 154.996364 292.316605 
L 158.242909 291.911937 
L 161.489455 292.349007 
L 164.736 292.351003 
L 167.982545 292.588506 
L 171.229091 292.19417 
L 174.475636 293.007084 
L 177.722182 293.15351 
L 180.968727 293.233843 
L 184.215273 293.225215 
L 187.461818 293.283761 
L 190.708364 293.036027 
L 193.954909 293.335245 
L 197.201455 293.598744 
L 200.448 293.715832 
L 203.694545 293.009777 
L 206.941091 293.795007 
L 210.187636 293.752525 
L 213.434182 293.927232 
L 216.680727 293.79735 
L 219.927273 293.994413 
L 223.173818 293.983868 
L 226.420364 293.932956 
L 229.666909 294.20027 
L 232.913455 294.04925 
L 236.16 294.197822 
L 239.406545 294.264659 
L 242.653091 294.351646 
L 245.899636 294.336443 
L 249.146182 294.28567 
L 252.392727 294.140938 
L 255.639273 294.234962 
L 258.885818 294.155328 
L 262.132364 294.227253 
L 265.378909 294.399739 
L 268.625455 294.379025 
L 271.872 294.201375 
L 275.118545 294.42259 
L 278.365091 294.398559 
L 281.611636 294.38475 
L 284.858182 294.54626 
L 288.104727 294.349084 
L 291.351273 294.528224 
L 294.597818 294.509885 
L 297.844364 294.150059 
L 301.090909 294.29147 
L 304.337455 294.580126 
L 307.584 294.360298 
L 310.830545 294.505693 
L 314.077091 294.546304 
L 317.323636 294.599991 
L 320.570182 294.531727 
L 323.816727 294.498912 
L 327.063273 294.514108 
L 330.309818 294.638515 
L 333.556364 294.575653 
L 336.802909 294.613726 
L 340.049455 294.591648 
L 343.296 294.592502 
L 346.542545 294.659056 
L 349.789091 294.643244 
L 353.035636 294.717122 
L 356.282182 294.727744 
L 359.528727 294.728993 
L 362.775273 294.634862 
L 366.021818 294.77701 
L 369.268364 294.768329 
L 372.514909 294.756313 
L 375.761455 294.792618 
L 379.008 294.731189 
L 382.254545 294.79707 
L 385.501091 294.752929 
L 388.747636 294.785464 
L 391.994182 294.699478 
L 395.240727 294.762458 
L 398.487273 294.762161 
" style="fill:none;stroke:#9467bd;stroke-linecap:square;stroke-width:1.5;"/>
   </g>
   <g id="line2d_28">
    <path clip-path="url(#p003d4717d3)" d="M 73.832727 295.488 
L 77.079273 295.488 
L 80.325818 203.254011 
L 83.572364 243.235907 
L 86.818909 245.440873 
L 90.065455 268.55018 
L 93.312 278.203886 
L 96.558545 280.803083 
L 99.805091 282.34911 
L 103.051636 280.141175 
L 106.298182 286.237264 
L 109.544727 285.097709 
L 112.791273 285.136206 
L 116.037818 287.143251 
L 119.284364 287.647111 
L 122.530909 289.161851 
L 125.777455 289.389667 
L 129.024 290.139852 
L 132.270545 291.477897 
L 135.517091 290.139657 
L 138.763636 290.16728 
L 142.010182 290.954286 
L 145.256727 291.083823 
L 148.503273 291.551995 
L 151.749818 291.97453 
L 154.996364 291.955999 
L 158.242909 292.483296 
L 161.489455 292.373996 
L 164.736 292.577518 
L 167.982545 292.648661 
L 171.229091 292.473542 
L 174.475636 292.725717 
L 177.722182 293.137167 
L 180.968727 293.174974 
L 184.215273 293.226871 
L 187.461818 293.251929 
L 190.708364 293.188235 
L 193.954909 293.311672 
L 197.201455 293.500919 
L 200.448 293.599469 
L 203.694545 293.346729 
L 206.941091 293.772834 
L 210.187636 293.699813 
L 213.434182 293.886507 
L 216.680727 293.897721 
L 219.927273 293.985475 
L 223.173818 293.999875 
L 226.420364 293.986646 
L 229.666909 294.13073 
L 232.913455 294.020863 
L 236.16 294.086535 
L 239.406545 294.147019 
L 242.653091 294.330657 
L 245.899636 294.237911 
L 249.146182 294.20445 
L 252.392727 294.225472 
L 255.639273 294.286421 
L 258.885818 294.257101 
L 262.132364 294.339515 
L 265.378909 294.369472 
L 268.625455 294.349931 
L 271.872 294.25867 
L 275.118545 294.434631 
L 278.365091 294.399201 
L 281.611636 294.363427 
L 284.858182 294.499002 
L 288.104727 294.491442 
L 291.351273 294.508344 
L 294.597818 294.479728 
L 297.844364 294.302314 
L 301.090909 294.393504 
L 304.337455 294.532983 
L 307.584 294.530808 
L 310.830545 294.572508 
L 314.077091 294.538228 
L 317.323636 294.569655 
L 320.570182 294.572807 
L 323.816727 294.602735 
L 327.063273 294.560356 
L 330.309818 294.629216 
L 333.556364 294.555005 
L 336.802909 294.63139 
L 340.049455 294.66371 
L 343.296 294.622082 
L 346.542545 294.668833 
L 349.789091 294.658326 
L 353.035636 294.679986 
L 356.282182 294.689473 
L 359.528727 294.735825 
L 362.775273 294.706838 
L 366.021818 294.764919 
L 369.268364 294.734377 
L 372.514909 294.74376 
L 375.761455 294.769613 
L 379.008 294.761379 
L 382.254545 294.789487 
L 385.501091 294.781356 
L 388.747636 294.764458 
L 391.994182 294.716764 
L 395.240727 294.764367 
L 398.487273 294.758406 
" style="fill:none;stroke:#8c564b;stroke-linecap:square;stroke-width:1.5;"/>
   </g>
   <g id="line2d_29">
    <path clip-path="url(#p003d4717d3)" d="M 73.832727 295.488 
L 77.079273 295.488 
L 80.325818 53.568 
L 83.572364 240.84285 
L 86.818909 241.793809 
L 90.065455 271.476683 
L 93.312 276.083758 
L 96.558545 279.499919 
L 99.805091 282.177977 
L 103.051636 282.479614 
L 106.298182 284.863785 
L 109.544727 286.050513 
L 112.791273 285.087739 
L 116.037818 287.720146 
L 119.284364 287.725997 
L 122.530909 289.079794 
L 125.777455 289.404654 
L 129.024 289.972792 
L 132.270545 290.459092 
L 135.517091 290.927992 
L 138.763636 290.590225 
L 142.010182 291.376602 
L 145.256727 291.49372 
L 148.503273 291.613521 
L 151.749818 291.921573 
L 154.996364 292.084515 
L 158.242909 292.264773 
L 161.489455 292.412783 
L 164.736 292.541376 
L 167.982545 292.690348 
L 171.229091 292.630366 
L 174.475636 292.725709 
L 177.722182 293.126808 
L 180.968727 293.093794 
L 184.215273 293.271789 
L 187.461818 293.298914 
L 190.708364 293.266783 
L 193.954909 293.321224 
L 197.201455 293.407213 
L 200.448 293.622368 
L 203.694545 293.504267 
L 206.941091 293.808977 
L 210.187636 293.8013 
L 213.434182 293.840814 
L 216.680727 293.869537 
L 219.927273 293.963856 
L 223.173818 293.984865 
L 226.420364 294.007869 
L 229.666909 294.10686 
L 232.913455 294.027204 
L 236.16 294.107806 
L 239.406545 294.167766 
L 242.653091 294.302175 
L 245.899636 294.235521 
L 249.146182 294.250826 
L 252.392727 294.232011 
L 255.639273 294.254164 
L 258.885818 294.300317 
L 262.132364 294.298404 
L 265.378909 294.330463 
L 268.625455 294.375539 
L 271.872 294.315487 
L 275.118545 294.390522 
L 278.365091 294.417133 
L 281.611636 294.363859 
L 284.858182 294.505597 
L 288.104727 294.472908 
L 291.351273 294.52001 
L 294.597818 294.517173 
L 297.844364 294.443612 
L 301.090909 294.450441 
L 304.337455 294.535686 
L 307.584 294.533095 
L 310.830545 294.600228 
L 314.077091 294.560711 
L 317.323636 294.580918 
L 320.570182 294.550982 
L 323.816727 294.587373 
L 327.063273 294.595565 
L 330.309818 294.627015 
L 333.556364 294.554026 
L 336.802909 294.657116 
L 340.049455 294.632637 
L 343.296 294.648855 
L 346.542545 294.669076 
L 349.789091 294.653314 
L 353.035636 294.678364 
L 356.282182 294.705951 
L 359.528727 294.746273 
L 362.775273 294.722842 
L 366.021818 294.752454 
L 369.268364 294.709444 
L 372.514909 294.711949 
L 375.761455 294.76597 
L 379.008 294.742833 
L 382.254545 294.757999 
L 385.501091 294.781255 
L 388.747636 294.770288 
L 391.994182 294.754111 
L 395.240727 294.788542 
L 398.487273 294.78572 
" style="fill:none;stroke:#e377c2;stroke-linecap:square;stroke-width:1.5;"/>
   </g>
   <g id="patch_3">
    <path d="M 57.6 307.584 
L 57.6 41.472 
" style="fill:none;stroke:#000000;stroke-linecap:square;stroke-linejoin:miter;stroke-width:0.8;"/>
   </g>
   <g id="patch_4">
    <path d="M 414.72 307.584 
L 414.72 41.472 
" style="fill:none;stroke:#000000;stroke-linecap:square;stroke-linejoin:miter;stroke-width:0.8;"/>
   </g>
   <g id="patch_5">
    <path d="M 57.6 307.584 
L 414.72 307.584 
" style="fill:none;stroke:#000000;stroke-linecap:square;stroke-linejoin:miter;stroke-width:0.8;"/>
   </g>
   <g id="patch_6">
    <path d="M 57.6 41.472 
L 414.72 41.472 
" style="fill:none;stroke:#000000;stroke-linecap:square;stroke-linejoin:miter;stroke-width:0.8;"/>
   </g>
   <g id="legend_1">
    <g id="patch_7">
     <path d="M 326.905938 152.218875 
L 407.72 152.218875 
Q 409.72 152.218875 409.72 150.218875 
L 409.72 48.472 
Q 409.72 46.472 407.72 46.472 
L 326.905938 46.472 
Q 324.905938 46.472 324.905938 48.472 
L 324.905938 150.218875 
Q 324.905938 152.218875 326.905938 152.218875 
z
" style="fill:#ffffff;opacity:0.8;stroke:#cccccc;stroke-linejoin:miter;"/>
    </g>
    <g id="line2d_30">
     <path d="M 328.905938 54.570438 
L 348.905938 54.570438 
" style="fill:none;stroke:#1f77b4;stroke-linecap:square;stroke-width:1.5;"/>
    </g>
    <g id="line2d_31"/>
    <g id="text_14">
     <!-- M = 10 -->
     <g transform="translate(356.905938 58.070438)scale(0.1 -0.1)">
      <defs>
       <path d="M 9.8125 72.90625 
L 24.515625 72.90625 
L 43.109375 23.296875 
L 61.8125 72.90625 
L 76.515625 72.90625 
L 76.515625 0 
L 66.890625 0 
L 66.890625 64.015625 
L 48.09375 14.015625 
L 38.1875 14.015625 
L 19.390625 64.015625 
L 19.390625 0 
L 9.8125 0 
z
" id="DejaVuSans-77"/>
       <path d="M 10.59375 45.40625 
L 73.1875 45.40625 
L 73.1875 37.203125 
L 10.59375 37.203125 
z
M 10.59375 25.484375 
L 73.1875 25.484375 
L 73.1875 17.1875 
L 10.59375 17.1875 
z
" id="DejaVuSans-61"/>
      </defs>
      <use xlink:href="#DejaVuSans-77"/>
      <use x="86.279297" xlink:href="#DejaVuSans-32"/>
      <use x="118.066406" xlink:href="#DejaVuSans-61"/>
      <use x="201.855469" xlink:href="#DejaVuSans-32"/>
      <use x="233.642578" xlink:href="#DejaVuSans-49"/>
      <use x="297.265625" xlink:href="#DejaVuSans-48"/>
     </g>
    </g>
    <g id="line2d_32">
     <path d="M 328.905938 69.248563 
L 348.905938 69.248563 
" style="fill:none;stroke:#ff7f0e;stroke-linecap:square;stroke-width:1.5;"/>
    </g>
    <g id="line2d_33"/>
    <g id="text_15">
     <!-- M = 20 -->
     <g transform="translate(356.905938 72.748563)scale(0.1 -0.1)">
      <use xlink:href="#DejaVuSans-77"/>
      <use x="86.279297" xlink:href="#DejaVuSans-32"/>
      <use x="118.066406" xlink:href="#DejaVuSans-61"/>
      <use x="201.855469" xlink:href="#DejaVuSans-32"/>
      <use x="233.642578" xlink:href="#DejaVuSans-50"/>
      <use x="297.265625" xlink:href="#DejaVuSans-48"/>
     </g>
    </g>
    <g id="line2d_34">
     <path d="M 328.905938 83.926688 
L 348.905938 83.926688 
" style="fill:none;stroke:#2ca02c;stroke-linecap:square;stroke-width:1.5;"/>
    </g>
    <g id="line2d_35"/>
    <g id="text_16">
     <!-- M = 50 -->
     <g transform="translate(356.905938 87.426688)scale(0.1 -0.1)">
      <defs>
       <path d="M 10.796875 72.90625 
L 49.515625 72.90625 
L 49.515625 64.59375 
L 19.828125 64.59375 
L 19.828125 46.734375 
Q 21.96875 47.46875 24.109375 47.828125 
Q 26.265625 48.1875 28.421875 48.1875 
Q 40.625 48.1875 47.75 41.5 
Q 54.890625 34.8125 54.890625 23.390625 
Q 54.890625 11.625 47.5625 5.09375 
Q 40.234375 -1.421875 26.90625 -1.421875 
Q 22.3125 -1.421875 17.546875 -0.640625 
Q 12.796875 0.140625 7.71875 1.703125 
L 7.71875 11.625 
Q 12.109375 9.234375 16.796875 8.0625 
Q 21.484375 6.890625 26.703125 6.890625 
Q 35.15625 6.890625 40.078125 11.328125 
Q 45.015625 15.765625 45.015625 23.390625 
Q 45.015625 31 40.078125 35.4375 
Q 35.15625 39.890625 26.703125 39.890625 
Q 22.75 39.890625 18.8125 39.015625 
Q 14.890625 38.140625 10.796875 36.28125 
z
" id="DejaVuSans-53"/>
      </defs>
      <use xlink:href="#DejaVuSans-77"/>
      <use x="86.279297" xlink:href="#DejaVuSans-32"/>
      <use x="118.066406" xlink:href="#DejaVuSans-61"/>
      <use x="201.855469" xlink:href="#DejaVuSans-32"/>
      <use x="233.642578" xlink:href="#DejaVuSans-53"/>
      <use x="297.265625" xlink:href="#DejaVuSans-48"/>
     </g>
    </g>
    <g id="line2d_36">
     <path d="M 328.905938 98.604813 
L 348.905938 98.604813 
" style="fill:none;stroke:#d62728;stroke-linecap:square;stroke-width:1.5;"/>
    </g>
    <g id="line2d_37"/>
    <g id="text_17">
     <!-- M = 100 -->
     <g transform="translate(356.905938 102.104813)scale(0.1 -0.1)">
      <use xlink:href="#DejaVuSans-77"/>
      <use x="86.279297" xlink:href="#DejaVuSans-32"/>
      <use x="118.066406" xlink:href="#DejaVuSans-61"/>
      <use x="201.855469" xlink:href="#DejaVuSans-32"/>
      <use x="233.642578" xlink:href="#DejaVuSans-49"/>
      <use x="297.265625" xlink:href="#DejaVuSans-48"/>
      <use x="360.888672" xlink:href="#DejaVuSans-48"/>
     </g>
    </g>
    <g id="line2d_38">
     <path d="M 328.905938 113.282938 
L 348.905938 113.282938 
" style="fill:none;stroke:#9467bd;stroke-linecap:square;stroke-width:1.5;"/>
    </g>
    <g id="line2d_39"/>
    <g id="text_18">
     <!-- M = 200 -->
     <g transform="translate(356.905938 116.782938)scale(0.1 -0.1)">
      <use xlink:href="#DejaVuSans-77"/>
      <use x="86.279297" xlink:href="#DejaVuSans-32"/>
      <use x="118.066406" xlink:href="#DejaVuSans-61"/>
      <use x="201.855469" xlink:href="#DejaVuSans-32"/>
      <use x="233.642578" xlink:href="#DejaVuSans-50"/>
      <use x="297.265625" xlink:href="#DejaVuSans-48"/>
      <use x="360.888672" xlink:href="#DejaVuSans-48"/>
     </g>
    </g>
    <g id="line2d_40">
     <path d="M 328.905938 127.961063 
L 348.905938 127.961063 
" style="fill:none;stroke:#8c564b;stroke-linecap:square;stroke-width:1.5;"/>
    </g>
    <g id="line2d_41"/>
    <g id="text_19">
     <!-- M = 500 -->
     <g transform="translate(356.905938 131.461063)scale(0.1 -0.1)">
      <use xlink:href="#DejaVuSans-77"/>
      <use x="86.279297" xlink:href="#DejaVuSans-32"/>
      <use x="118.066406" xlink:href="#DejaVuSans-61"/>
      <use x="201.855469" xlink:href="#DejaVuSans-32"/>
      <use x="233.642578" xlink:href="#DejaVuSans-53"/>
      <use x="297.265625" xlink:href="#DejaVuSans-48"/>
      <use x="360.888672" xlink:href="#DejaVuSans-48"/>
     </g>
    </g>
    <g id="line2d_42">
     <path d="M 328.905938 142.639188 
L 348.905938 142.639188 
" style="fill:none;stroke:#e377c2;stroke-linecap:square;stroke-width:1.5;"/>
    </g>
    <g id="line2d_43"/>
    <g id="text_20">
     <!-- M = 1000 -->
     <g transform="translate(356.905938 146.139188)scale(0.1 -0.1)">
      <use xlink:href="#DejaVuSans-77"/>
      <use x="86.279297" xlink:href="#DejaVuSans-32"/>
      <use x="118.066406" xlink:href="#DejaVuSans-61"/>
      <use x="201.855469" xlink:href="#DejaVuSans-32"/>
      <use x="233.642578" xlink:href="#DejaVuSans-49"/>
      <use x="297.265625" xlink:href="#DejaVuSans-48"/>
      <use x="360.888672" xlink:href="#DejaVuSans-48"/>
      <use x="424.511719" xlink:href="#DejaVuSans-48"/>
     </g>
    </g>
   </g>
  </g>
  <g id="text_21">
   <!-- λ(N) -->
   <g transform="translate(217.678125 16.030125)scale(0.12 -0.12)">
    <defs>
     <path d="M 30.953125 67.4375 
L 56.203125 0 
L 46.6875 0 
L 31.34375 40.4375 
L 12.5 0 
L 2.984375 0 
L 26.953125 52.4375 
L 23.34375 62.109375 
Q 21.046875 68.265625 15.828125 68.265625 
L 11.140625 68.265625 
L 11.140625 75.984375 
L 16.84375 75.875 
Q 27.875 75.734375 30.953125 67.4375 
z
" id="DejaVuSans-955"/>
     <path d="M 31 75.875 
Q 24.46875 64.65625 21.28125 53.65625 
Q 18.109375 42.671875 18.109375 31.390625 
Q 18.109375 20.125 21.3125 9.0625 
Q 24.515625 -2 31 -13.1875 
L 23.1875 -13.1875 
Q 15.875 -1.703125 12.234375 9.375 
Q 8.59375 20.453125 8.59375 31.390625 
Q 8.59375 42.28125 12.203125 53.3125 
Q 15.828125 64.359375 23.1875 75.875 
z
" id="DejaVuSans-40"/>
     <path d="M 9.8125 72.90625 
L 23.09375 72.90625 
L 55.421875 11.921875 
L 55.421875 72.90625 
L 64.984375 72.90625 
L 64.984375 0 
L 51.703125 0 
L 19.390625 60.984375 
L 19.390625 0 
L 9.8125 0 
z
" id="DejaVuSans-78"/>
     <path d="M 8.015625 75.875 
L 15.828125 75.875 
Q 23.140625 64.359375 26.78125 53.3125 
Q 30.421875 42.28125 30.421875 31.390625 
Q 30.421875 20.453125 26.78125 9.375 
Q 23.140625 -1.703125 15.828125 -13.1875 
L 8.015625 -13.1875 
Q 14.5 -2 17.703125 9.0625 
Q 20.90625 20.125 20.90625 31.390625 
Q 20.90625 42.671875 17.703125 53.65625 
Q 14.5 64.65625 8.015625 75.875 
z
" id="DejaVuSans-41"/>
    </defs>
    <use xlink:href="#DejaVuSans-955"/>
    <use x="59.179688" xlink:href="#DejaVuSans-40"/>
    <use x="98.193359" xlink:href="#DejaVuSans-78"/>
    <use x="172.998047" xlink:href="#DejaVuSans-41"/>
   </g>
  </g>
 </g>
 <defs>
  <clipPath id="p003d4717d3">
   <rect height="266.112" width="357.12" x="57.6" y="41.472"/>
  </clipPath>
 </defs>
</svg>
