<?xml version="1.0" encoding="utf-8" standalone="no"?>
<!DOCTYPE svg PUBLIC "-//W3C//DTD SVG 1.1//EN"
  "http://www.w3.org/Graphics/SVG/1.1/DTD/svg11.dtd">
<!-- Created with matplotlib (https://matplotlib.org/) -->
<svg height="345.6pt" version="1.1" viewBox="0 0 460.8 345.6" width="460.8pt" xmlns="http://www.w3.org/2000/svg" xmlns:xlink="http://www.w3.org/1999/xlink">
 <metadata>
  <rdf:RDF xmlns:cc="http://creativecommons.org/ns#" xmlns:dc="http://purl.org/dc/elements/1.1/" xmlns:rdf="http://www.w3.org/1999/02/22-rdf-syntax-ns#">
   <cc:Work>
    <dc:type rdf:resource="http://purl.org/dc/dcmitype/StillImage"/>
    <dc:date>2020-08-31T20:06:17.951273</dc:date>
    <dc:format>image/svg+xml</dc:format>
    <dc:creator>
     <cc:Agent>
      <dc:title>Matplotlib v3.3.1, https://matplotlib.org/</dc:title>
     </cc:Agent>
    </dc:creator>
   </cc:Work>
  </rdf:RDF>
 </metadata>
 <defs>
  <style type="text/css">*{stroke-linecap:butt;stroke-linejoin:round;}</style>
 </defs>
 <g id="figure_1">
  <g id="patch_1">
   <path d="M 0 345.6 
L 460.8 345.6 
L 460.8 0 
L 0 0 
z
" style="fill:#ffffff;"/>
  </g>
  <g id="axes_1">
   <g id="patch_2">
    <path d="M 57.6 307.584 
L 414.72 307.584 
L 414.72 41.472 
L 57.6 41.472 
z
" style="fill:#ffffff;"/>
   </g>
   <g id="matplotlib.axis_1">
    <g id="xtick_1">
     <g id="line2d_1">
      <path clip-path="url(#p714be1a655)" d="M 73.832727 307.584 
L 73.832727 41.472 
" style="fill:none;stroke:#b0b0b0;stroke-linecap:square;stroke-width:0.8;"/>
     </g>
     <g id="line2d_2">
      <defs>
       <path d="M 0 0 
L 0 3.5 
" id="m1fd9de62fe" style="stroke:#000000;stroke-width:0.8;"/>
      </defs>
      <g>
       <use style="stroke:#000000;stroke-width:0.8;" x="73.832727" xlink:href="#m1fd9de62fe" y="307.584"/>
      </g>
     </g>
     <g id="text_1">
      <!-- 0 -->
      <g transform="translate(70.651477 322.182437)scale(0.1 -0.1)">
       <defs>
        <path d="M 31.78125 66.40625 
Q 24.171875 66.40625 20.328125 58.90625 
Q 16.5 51.421875 16.5 36.375 
Q 16.5 21.390625 20.328125 13.890625 
Q 24.171875 6.390625 31.78125 6.390625 
Q 39.453125 6.390625 43.28125 13.890625 
Q 47.125 21.390625 47.125 36.375 
Q 47.125 51.421875 43.28125 58.90625 
Q 39.453125 66.40625 31.78125 66.40625 
z
M 31.78125 74.21875 
Q 44.046875 74.21875 50.515625 64.515625 
Q 56.984375 54.828125 56.984375 36.375 
Q 56.984375 17.96875 50.515625 8.265625 
Q 44.046875 -1.421875 31.78125 -1.421875 
Q 19.53125 -1.421875 13.0625 8.265625 
Q 6.59375 17.96875 6.59375 36.375 
Q 6.59375 54.828125 13.0625 64.515625 
Q 19.53125 74.21875 31.78125 74.21875 
z
" id="DejaVuSans-48"/>
       </defs>
       <use xlink:href="#DejaVuSans-48"/>
      </g>
     </g>
    </g>
    <g id="xtick_2">
     <g id="line2d_3">
      <path clip-path="url(#p714be1a655)" d="M 138.763636 307.584 
L 138.763636 41.472 
" style="fill:none;stroke:#b0b0b0;stroke-linecap:square;stroke-width:0.8;"/>
     </g>
     <g id="line2d_4">
      <g>
       <use style="stroke:#000000;stroke-width:0.8;" x="138.763636" xlink:href="#m1fd9de62fe" y="307.584"/>
      </g>
     </g>
     <g id="text_2">
      <!-- 20 -->
      <g transform="translate(132.401136 322.182437)scale(0.1 -0.1)">
       <defs>
        <path d="M 19.1875 8.296875 
L 53.609375 8.296875 
L 53.609375 0 
L 7.328125 0 
L 7.328125 8.296875 
Q 12.9375 14.109375 22.625 23.890625 
Q 32.328125 33.6875 34.8125 36.53125 
Q 39.546875 41.84375 41.421875 45.53125 
Q 43.3125 49.21875 43.3125 52.78125 
Q 43.3125 58.59375 39.234375 62.25 
Q 35.15625 65.921875 28.609375 65.921875 
Q 23.96875 65.921875 18.8125 64.3125 
Q 13.671875 62.703125 7.8125 59.421875 
L 7.8125 69.390625 
Q 13.765625 71.78125 18.9375 73 
Q 24.125 74.21875 28.421875 74.21875 
Q 39.75 74.21875 46.484375 68.546875 
Q 53.21875 62.890625 53.21875 53.421875 
Q 53.21875 48.921875 51.53125 44.890625 
Q 49.859375 40.875 45.40625 35.40625 
Q 44.1875 33.984375 37.640625 27.21875 
Q 31.109375 20.453125 19.1875 8.296875 
z
" id="DejaVuSans-50"/>
       </defs>
       <use xlink:href="#DejaVuSans-50"/>
       <use x="63.623047" xlink:href="#DejaVuSans-48"/>
      </g>
     </g>
    </g>
    <g id="xtick_3">
     <g id="line2d_5">
      <path clip-path="url(#p714be1a655)" d="M 203.694545 307.584 
L 203.694545 41.472 
" style="fill:none;stroke:#b0b0b0;stroke-linecap:square;stroke-width:0.8;"/>
     </g>
     <g id="line2d_6">
      <g>
       <use style="stroke:#000000;stroke-width:0.8;" x="203.694545" xlink:href="#m1fd9de62fe" y="307.584"/>
      </g>
     </g>
     <g id="text_3">
      <!-- 40 -->
      <g transform="translate(197.332045 322.182437)scale(0.1 -0.1)">
       <defs>
        <path d="M 37.796875 64.3125 
L 12.890625 25.390625 
L 37.796875 25.390625 
z
M 35.203125 72.90625 
L 47.609375 72.90625 
L 47.609375 25.390625 
L 58.015625 25.390625 
L 58.015625 17.1875 
L 47.609375 17.1875 
L 47.609375 0 
L 37.796875 0 
L 37.796875 17.1875 
L 4.890625 17.1875 
L 4.890625 26.703125 
z
" id="DejaVuSans-52"/>
       </defs>
       <use xlink:href="#DejaVuSans-52"/>
       <use x="63.623047" xlink:href="#DejaVuSans-48"/>
      </g>
     </g>
    </g>
    <g id="xtick_4">
     <g id="line2d_7">
      <path clip-path="url(#p714be1a655)" d="M 268.625455 307.584 
L 268.625455 41.472 
" style="fill:none;stroke:#b0b0b0;stroke-linecap:square;stroke-width:0.8;"/>
     </g>
     <g id="line2d_8">
      <g>
       <use style="stroke:#000000;stroke-width:0.8;" x="268.625455" xlink:href="#m1fd9de62fe" y="307.584"/>
      </g>
     </g>
     <g id="text_4">
      <!-- 60 -->
      <g transform="translate(262.262955 322.182437)scale(0.1 -0.1)">
       <defs>
        <path d="M 33.015625 40.375 
Q 26.375 40.375 22.484375 35.828125 
Q 18.609375 31.296875 18.609375 23.390625 
Q 18.609375 15.53125 22.484375 10.953125 
Q 26.375 6.390625 33.015625 6.390625 
Q 39.65625 6.390625 43.53125 10.953125 
Q 47.40625 15.53125 47.40625 23.390625 
Q 47.40625 31.296875 43.53125 35.828125 
Q 39.65625 40.375 33.015625 40.375 
z
M 52.59375 71.296875 
L 52.59375 62.3125 
Q 48.875 64.0625 45.09375 64.984375 
Q 41.3125 65.921875 37.59375 65.921875 
Q 27.828125 65.921875 22.671875 59.328125 
Q 17.53125 52.734375 16.796875 39.40625 
Q 19.671875 43.65625 24.015625 45.921875 
Q 28.375 48.1875 33.59375 48.1875 
Q 44.578125 48.1875 50.953125 41.515625 
Q 57.328125 34.859375 57.328125 23.390625 
Q 57.328125 12.15625 50.6875 5.359375 
Q 44.046875 -1.421875 33.015625 -1.421875 
Q 20.359375 -1.421875 13.671875 8.265625 
Q 6.984375 17.96875 6.984375 36.375 
Q 6.984375 53.65625 15.1875 63.9375 
Q 23.390625 74.21875 37.203125 74.21875 
Q 40.921875 74.21875 44.703125 73.484375 
Q 48.484375 72.75 52.59375 71.296875 
z
" id="DejaVuSans-54"/>
       </defs>
       <use xlink:href="#DejaVuSans-54"/>
       <use x="63.623047" xlink:href="#DejaVuSans-48"/>
      </g>
     </g>
    </g>
    <g id="xtick_5">
     <g id="line2d_9">
      <path clip-path="url(#p714be1a655)" d="M 333.556364 307.584 
L 333.556364 41.472 
" style="fill:none;stroke:#b0b0b0;stroke-linecap:square;stroke-width:0.8;"/>
     </g>
     <g id="line2d_10">
      <g>
       <use style="stroke:#000000;stroke-width:0.8;" x="333.556364" xlink:href="#m1fd9de62fe" y="307.584"/>
      </g>
     </g>
     <g id="text_5">
      <!-- 80 -->
      <g transform="translate(327.193864 322.182437)scale(0.1 -0.1)">
       <defs>
        <path d="M 31.78125 34.625 
Q 24.75 34.625 20.71875 30.859375 
Q 16.703125 27.09375 16.703125 20.515625 
Q 16.703125 13.921875 20.71875 10.15625 
Q 24.75 6.390625 31.78125 6.390625 
Q 38.8125 6.390625 42.859375 10.171875 
Q 46.921875 13.96875 46.921875 20.515625 
Q 46.921875 27.09375 42.890625 30.859375 
Q 38.875 34.625 31.78125 34.625 
z
M 21.921875 38.8125 
Q 15.578125 40.375 12.03125 44.71875 
Q 8.5 49.078125 8.5 55.328125 
Q 8.5 64.0625 14.71875 69.140625 
Q 20.953125 74.21875 31.78125 74.21875 
Q 42.671875 74.21875 48.875 69.140625 
Q 55.078125 64.0625 55.078125 55.328125 
Q 55.078125 49.078125 51.53125 44.71875 
Q 48 40.375 41.703125 38.8125 
Q 48.828125 37.15625 52.796875 32.3125 
Q 56.78125 27.484375 56.78125 20.515625 
Q 56.78125 9.90625 50.3125 4.234375 
Q 43.84375 -1.421875 31.78125 -1.421875 
Q 19.734375 -1.421875 13.25 4.234375 
Q 6.78125 9.90625 6.78125 20.515625 
Q 6.78125 27.484375 10.78125 32.3125 
Q 14.796875 37.15625 21.921875 38.8125 
z
M 18.3125 54.390625 
Q 18.3125 48.734375 21.84375 45.5625 
Q 25.390625 42.390625 31.78125 42.390625 
Q 38.140625 42.390625 41.71875 45.5625 
Q 45.3125 48.734375 45.3125 54.390625 
Q 45.3125 60.0625 41.71875 63.234375 
Q 38.140625 66.40625 31.78125 66.40625 
Q 25.390625 66.40625 21.84375 63.234375 
Q 18.3125 60.0625 18.3125 54.390625 
z
" id="DejaVuSans-56"/>
       </defs>
       <use xlink:href="#DejaVuSans-56"/>
       <use x="63.623047" xlink:href="#DejaVuSans-48"/>
      </g>
     </g>
    </g>
    <g id="xtick_6">
     <g id="line2d_11">
      <path clip-path="url(#p714be1a655)" d="M 398.487273 307.584 
L 398.487273 41.472 
" style="fill:none;stroke:#b0b0b0;stroke-linecap:square;stroke-width:0.8;"/>
     </g>
     <g id="line2d_12">
      <g>
       <use style="stroke:#000000;stroke-width:0.8;" x="398.487273" xlink:href="#m1fd9de62fe" y="307.584"/>
      </g>
     </g>
     <g id="text_6">
      <!-- 100 -->
      <g transform="translate(388.943523 322.182437)scale(0.1 -0.1)">
       <defs>
        <path d="M 12.40625 8.296875 
L 28.515625 8.296875 
L 28.515625 63.921875 
L 10.984375 60.40625 
L 10.984375 69.390625 
L 28.421875 72.90625 
L 38.28125 72.90625 
L 38.28125 8.296875 
L 54.390625 8.296875 
L 54.390625 0 
L 12.40625 0 
z
" id="DejaVuSans-49"/>
       </defs>
       <use xlink:href="#DejaVuSans-49"/>
       <use x="63.623047" xlink:href="#DejaVuSans-48"/>
       <use x="127.246094" xlink:href="#DejaVuSans-48"/>
      </g>
     </g>
    </g>
    <g id="text_7">
     <!-- Liczba atomów -->
     <g transform="translate(198.681875 335.860562)scale(0.1 -0.1)">
      <defs>
       <path d="M 9.8125 72.90625 
L 19.671875 72.90625 
L 19.671875 8.296875 
L 55.171875 8.296875 
L 55.171875 0 
L 9.8125 0 
z
" id="DejaVuSans-76"/>
       <path d="M 9.421875 54.6875 
L 18.40625 54.6875 
L 18.40625 0 
L 9.421875 0 
z
M 9.421875 75.984375 
L 18.40625 75.984375 
L 18.40625 64.59375 
L 9.421875 64.59375 
z
" id="DejaVuSans-105"/>
       <path d="M 48.78125 52.59375 
L 48.78125 44.1875 
Q 44.96875 46.296875 41.140625 47.34375 
Q 37.3125 48.390625 33.40625 48.390625 
Q 24.65625 48.390625 19.8125 42.84375 
Q 14.984375 37.3125 14.984375 27.296875 
Q 14.984375 17.28125 19.8125 11.734375 
Q 24.65625 6.203125 33.40625 6.203125 
Q 37.3125 6.203125 41.140625 7.25 
Q 44.96875 8.296875 48.78125 10.40625 
L 48.78125 2.09375 
Q 45.015625 0.34375 40.984375 -0.53125 
Q 36.96875 -1.421875 32.421875 -1.421875 
Q 20.0625 -1.421875 12.78125 6.34375 
Q 5.515625 14.109375 5.515625 27.296875 
Q 5.515625 40.671875 12.859375 48.328125 
Q 20.21875 56 33.015625 56 
Q 37.15625 56 41.109375 55.140625 
Q 45.0625 54.296875 48.78125 52.59375 
z
" id="DejaVuSans-99"/>
       <path d="M 5.515625 54.6875 
L 48.1875 54.6875 
L 48.1875 46.484375 
L 14.40625 7.171875 
L 48.1875 7.171875 
L 48.1875 0 
L 4.296875 0 
L 4.296875 8.203125 
L 38.09375 47.515625 
L 5.515625 47.515625 
z
" id="DejaVuSans-122"/>
       <path d="M 48.6875 27.296875 
Q 48.6875 37.203125 44.609375 42.84375 
Q 40.53125 48.484375 33.40625 48.484375 
Q 26.265625 48.484375 22.1875 42.84375 
Q 18.109375 37.203125 18.109375 27.296875 
Q 18.109375 17.390625 22.1875 11.75 
Q 26.265625 6.109375 33.40625 6.109375 
Q 40.53125 6.109375 44.609375 11.75 
Q 48.6875 17.390625 48.6875 27.296875 
z
M 18.109375 46.390625 
Q 20.953125 51.265625 25.265625 53.625 
Q 29.59375 56 35.59375 56 
Q 45.5625 56 51.78125 48.09375 
Q 58.015625 40.1875 58.015625 27.296875 
Q 58.015625 14.40625 51.78125 6.484375 
Q 45.5625 -1.421875 35.59375 -1.421875 
Q 29.59375 -1.421875 25.265625 0.953125 
Q 20.953125 3.328125 18.109375 8.203125 
L 18.109375 0 
L 9.078125 0 
L 9.078125 75.984375 
L 18.109375 75.984375 
z
" id="DejaVuSans-98"/>
       <path d="M 34.28125 27.484375 
Q 23.390625 27.484375 19.1875 25 
Q 14.984375 22.515625 14.984375 16.5 
Q 14.984375 11.71875 18.140625 8.90625 
Q 21.296875 6.109375 26.703125 6.109375 
Q 34.1875 6.109375 38.703125 11.40625 
Q 43.21875 16.703125 43.21875 25.484375 
L 43.21875 27.484375 
z
M 52.203125 31.203125 
L 52.203125 0 
L 43.21875 0 
L 43.21875 8.296875 
Q 40.140625 3.328125 35.546875 0.953125 
Q 30.953125 -1.421875 24.3125 -1.421875 
Q 15.921875 -1.421875 10.953125 3.296875 
Q 6 8.015625 6 15.921875 
Q 6 25.140625 12.171875 29.828125 
Q 18.359375 34.515625 30.609375 34.515625 
L 43.21875 34.515625 
L 43.21875 35.40625 
Q 43.21875 41.609375 39.140625 45 
Q 35.0625 48.390625 27.6875 48.390625 
Q 23 48.390625 18.546875 47.265625 
Q 14.109375 46.140625 10.015625 43.890625 
L 10.015625 52.203125 
Q 14.9375 54.109375 19.578125 55.046875 
Q 24.21875 56 28.609375 56 
Q 40.484375 56 46.34375 49.84375 
Q 52.203125 43.703125 52.203125 31.203125 
z
" id="DejaVuSans-97"/>
       <path id="DejaVuSans-32"/>
       <path d="M 18.3125 70.21875 
L 18.3125 54.6875 
L 36.8125 54.6875 
L 36.8125 47.703125 
L 18.3125 47.703125 
L 18.3125 18.015625 
Q 18.3125 11.328125 20.140625 9.421875 
Q 21.96875 7.515625 27.59375 7.515625 
L 36.8125 7.515625 
L 36.8125 0 
L 27.59375 0 
Q 17.1875 0 13.234375 3.875 
Q 9.28125 7.765625 9.28125 18.015625 
L 9.28125 47.703125 
L 2.6875 47.703125 
L 2.6875 54.6875 
L 9.28125 54.6875 
L 9.28125 70.21875 
z
" id="DejaVuSans-116"/>
       <path d="M 30.609375 48.390625 
Q 23.390625 48.390625 19.1875 42.75 
Q 14.984375 37.109375 14.984375 27.296875 
Q 14.984375 17.484375 19.15625 11.84375 
Q 23.34375 6.203125 30.609375 6.203125 
Q 37.796875 6.203125 41.984375 11.859375 
Q 46.1875 17.53125 46.1875 27.296875 
Q 46.1875 37.015625 41.984375 42.703125 
Q 37.796875 48.390625 30.609375 48.390625 
z
M 30.609375 56 
Q 42.328125 56 49.015625 48.375 
Q 55.71875 40.765625 55.71875 27.296875 
Q 55.71875 13.875 49.015625 6.21875 
Q 42.328125 -1.421875 30.609375 -1.421875 
Q 18.84375 -1.421875 12.171875 6.21875 
Q 5.515625 13.875 5.515625 27.296875 
Q 5.515625 40.765625 12.171875 48.375 
Q 18.84375 56 30.609375 56 
z
" id="DejaVuSans-111"/>
       <path d="M 52 44.1875 
Q 55.375 50.25 60.0625 53.125 
Q 64.75 56 71.09375 56 
Q 79.640625 56 84.28125 50.015625 
Q 88.921875 44.046875 88.921875 33.015625 
L 88.921875 0 
L 79.890625 0 
L 79.890625 32.71875 
Q 79.890625 40.578125 77.09375 44.375 
Q 74.3125 48.1875 68.609375 48.1875 
Q 61.625 48.1875 57.5625 43.546875 
Q 53.515625 38.921875 53.515625 30.90625 
L 53.515625 0 
L 44.484375 0 
L 44.484375 32.71875 
Q 44.484375 40.625 41.703125 44.40625 
Q 38.921875 48.1875 33.109375 48.1875 
Q 26.21875 48.1875 22.15625 43.53125 
Q 18.109375 38.875 18.109375 30.90625 
L 18.109375 0 
L 9.078125 0 
L 9.078125 54.6875 
L 18.109375 54.6875 
L 18.109375 46.1875 
Q 21.1875 51.21875 25.484375 53.609375 
Q 29.78125 56 35.6875 56 
Q 41.65625 56 45.828125 52.96875 
Q 50 49.953125 52 44.1875 
z
" id="DejaVuSans-109"/>
       <path d="M 30.609375 48.390625 
Q 23.390625 48.390625 19.1875 42.75 
Q 14.984375 37.109375 14.984375 27.296875 
Q 14.984375 17.484375 19.15625 11.84375 
Q 23.34375 6.203125 30.609375 6.203125 
Q 37.796875 6.203125 41.984375 11.859375 
Q 46.1875 17.53125 46.1875 27.296875 
Q 46.1875 37.015625 41.984375 42.703125 
Q 37.796875 48.390625 30.609375 48.390625 
z
M 30.609375 56 
Q 42.328125 56 49.015625 48.375 
Q 55.71875 40.765625 55.71875 27.296875 
Q 55.71875 13.875 49.015625 6.21875 
Q 42.328125 -1.421875 30.609375 -1.421875 
Q 18.84375 -1.421875 12.171875 6.21875 
Q 5.515625 13.875 5.515625 27.296875 
Q 5.515625 40.765625 12.171875 48.375 
Q 18.84375 56 30.609375 56 
z
M 37.40625 79.984375 
L 47.125 79.984375 
L 31.21875 61.625 
L 23.734375 61.625 
z
" id="DejaVuSans-243"/>
       <path d="M 4.203125 54.6875 
L 13.1875 54.6875 
L 24.421875 12.015625 
L 35.59375 54.6875 
L 46.1875 54.6875 
L 57.421875 12.015625 
L 68.609375 54.6875 
L 77.59375 54.6875 
L 63.28125 0 
L 52.6875 0 
L 40.921875 44.828125 
L 29.109375 0 
L 18.5 0 
z
" id="DejaVuSans-119"/>
      </defs>
      <use xlink:href="#DejaVuSans-76"/>
      <use x="55.712891" xlink:href="#DejaVuSans-105"/>
      <use x="83.496094" xlink:href="#DejaVuSans-99"/>
      <use x="138.476562" xlink:href="#DejaVuSans-122"/>
      <use x="190.966797" xlink:href="#DejaVuSans-98"/>
      <use x="254.443359" xlink:href="#DejaVuSans-97"/>
      <use x="315.722656" xlink:href="#DejaVuSans-32"/>
      <use x="347.509766" xlink:href="#DejaVuSans-97"/>
      <use x="408.789062" xlink:href="#DejaVuSans-116"/>
      <use x="447.998047" xlink:href="#DejaVuSans-111"/>
      <use x="509.179688" xlink:href="#DejaVuSans-109"/>
      <use x="606.591797" xlink:href="#DejaVuSans-243"/>
      <use x="667.773438" xlink:href="#DejaVuSans-119"/>
     </g>
    </g>
   </g>
   <g id="matplotlib.axis_2">
    <g id="ytick_1">
     <g id="line2d_13">
      <path clip-path="url(#p714be1a655)" d="M 57.6 295.488 
L 414.72 295.488 
" style="fill:none;stroke:#b0b0b0;stroke-linecap:square;stroke-width:0.8;"/>
     </g>
     <g id="line2d_14">
      <defs>
       <path d="M 0 0 
L -3.5 0 
" id="m8bd330f224" style="stroke:#000000;stroke-width:0.8;"/>
      </defs>
      <g>
       <use style="stroke:#000000;stroke-width:0.8;" x="57.6" xlink:href="#m8bd330f224" y="295.488"/>
      </g>
     </g>
     <g id="text_8">
      <!-- 0 -->
      <g transform="translate(44.2375 299.287219)scale(0.1 -0.1)">
       <use xlink:href="#DejaVuSans-48"/>
      </g>
     </g>
    </g>
    <g id="ytick_2">
     <g id="line2d_15">
      <path clip-path="url(#p714be1a655)" d="M 57.6 243.392985 
L 414.72 243.392985 
" style="fill:none;stroke:#b0b0b0;stroke-linecap:square;stroke-width:0.8;"/>
     </g>
     <g id="line2d_16">
      <g>
       <use style="stroke:#000000;stroke-width:0.8;" x="57.6" xlink:href="#m8bd330f224" y="243.392985"/>
      </g>
     </g>
     <g id="text_9">
      <!-- 200 -->
      <g transform="translate(31.5125 247.192204)scale(0.1 -0.1)">
       <use xlink:href="#DejaVuSans-50"/>
       <use x="63.623047" xlink:href="#DejaVuSans-48"/>
       <use x="127.246094" xlink:href="#DejaVuSans-48"/>
      </g>
     </g>
    </g>
    <g id="ytick_3">
     <g id="line2d_17">
      <path clip-path="url(#p714be1a655)" d="M 57.6 191.29797 
L 414.72 191.29797 
" style="fill:none;stroke:#b0b0b0;stroke-linecap:square;stroke-width:0.8;"/>
     </g>
     <g id="line2d_18">
      <g>
       <use style="stroke:#000000;stroke-width:0.8;" x="57.6" xlink:href="#m8bd330f224" y="191.29797"/>
      </g>
     </g>
     <g id="text_10">
      <!-- 400 -->
      <g transform="translate(31.5125 195.097189)scale(0.1 -0.1)">
       <use xlink:href="#DejaVuSans-52"/>
       <use x="63.623047" xlink:href="#DejaVuSans-48"/>
       <use x="127.246094" xlink:href="#DejaVuSans-48"/>
      </g>
     </g>
    </g>
    <g id="ytick_4">
     <g id="line2d_19">
      <path clip-path="url(#p714be1a655)" d="M 57.6 139.202955 
L 414.72 139.202955 
" style="fill:none;stroke:#b0b0b0;stroke-linecap:square;stroke-width:0.8;"/>
     </g>
     <g id="line2d_20">
      <g>
       <use style="stroke:#000000;stroke-width:0.8;" x="57.6" xlink:href="#m8bd330f224" y="139.202955"/>
      </g>
     </g>
     <g id="text_11">
      <!-- 600 -->
      <g transform="translate(31.5125 143.002174)scale(0.1 -0.1)">
       <use xlink:href="#DejaVuSans-54"/>
       <use x="63.623047" xlink:href="#DejaVuSans-48"/>
       <use x="127.246094" xlink:href="#DejaVuSans-48"/>
      </g>
     </g>
    </g>
    <g id="ytick_5">
     <g id="line2d_21">
      <path clip-path="url(#p714be1a655)" d="M 57.6 87.10794 
L 414.72 87.10794 
" style="fill:none;stroke:#b0b0b0;stroke-linecap:square;stroke-width:0.8;"/>
     </g>
     <g id="line2d_22">
      <g>
       <use style="stroke:#000000;stroke-width:0.8;" x="57.6" xlink:href="#m8bd330f224" y="87.10794"/>
      </g>
     </g>
     <g id="text_12">
      <!-- 800 -->
      <g transform="translate(31.5125 90.907159)scale(0.1 -0.1)">
       <use xlink:href="#DejaVuSans-56"/>
       <use x="63.623047" xlink:href="#DejaVuSans-48"/>
       <use x="127.246094" xlink:href="#DejaVuSans-48"/>
      </g>
     </g>
    </g>
    <g id="text_13">
     <!-- Droga -->
     <g transform="translate(25.432812 189.618625)rotate(-90)scale(0.1 -0.1)">
      <defs>
       <path d="M 19.671875 64.796875 
L 19.671875 8.109375 
L 31.59375 8.109375 
Q 46.6875 8.109375 53.6875 14.9375 
Q 60.6875 21.78125 60.6875 36.53125 
Q 60.6875 51.171875 53.6875 57.984375 
Q 46.6875 64.796875 31.59375 64.796875 
z
M 9.8125 72.90625 
L 30.078125 72.90625 
Q 51.265625 72.90625 61.171875 64.09375 
Q 71.09375 55.28125 71.09375 36.53125 
Q 71.09375 17.671875 61.125 8.828125 
Q 51.171875 0 30.078125 0 
L 9.8125 0 
z
" id="DejaVuSans-68"/>
       <path d="M 41.109375 46.296875 
Q 39.59375 47.171875 37.8125 47.578125 
Q 36.03125 48 33.890625 48 
Q 26.265625 48 22.1875 43.046875 
Q 18.109375 38.09375 18.109375 28.8125 
L 18.109375 0 
L 9.078125 0 
L 9.078125 54.6875 
L 18.109375 54.6875 
L 18.109375 46.1875 
Q 20.953125 51.171875 25.484375 53.578125 
Q 30.03125 56 36.53125 56 
Q 37.453125 56 38.578125 55.875 
Q 39.703125 55.765625 41.0625 55.515625 
z
" id="DejaVuSans-114"/>
       <path d="M 45.40625 27.984375 
Q 45.40625 37.75 41.375 43.109375 
Q 37.359375 48.484375 30.078125 48.484375 
Q 22.859375 48.484375 18.828125 43.109375 
Q 14.796875 37.75 14.796875 27.984375 
Q 14.796875 18.265625 18.828125 12.890625 
Q 22.859375 7.515625 30.078125 7.515625 
Q 37.359375 7.515625 41.375 12.890625 
Q 45.40625 18.265625 45.40625 27.984375 
z
M 54.390625 6.78125 
Q 54.390625 -7.171875 48.1875 -13.984375 
Q 42 -20.796875 29.203125 -20.796875 
Q 24.46875 -20.796875 20.265625 -20.09375 
Q 16.0625 -19.390625 12.109375 -17.921875 
L 12.109375 -9.1875 
Q 16.0625 -11.328125 19.921875 -12.34375 
Q 23.78125 -13.375 27.78125 -13.375 
Q 36.625 -13.375 41.015625 -8.765625 
Q 45.40625 -4.15625 45.40625 5.171875 
L 45.40625 9.625 
Q 42.625 4.78125 38.28125 2.390625 
Q 33.9375 0 27.875 0 
Q 17.828125 0 11.671875 7.65625 
Q 5.515625 15.328125 5.515625 27.984375 
Q 5.515625 40.671875 11.671875 48.328125 
Q 17.828125 56 27.875 56 
Q 33.9375 56 38.28125 53.609375 
Q 42.625 51.21875 45.40625 46.390625 
L 45.40625 54.6875 
L 54.390625 54.6875 
z
" id="DejaVuSans-103"/>
      </defs>
      <use xlink:href="#DejaVuSans-68"/>
      <use x="77.001953" xlink:href="#DejaVuSans-114"/>
      <use x="115.865234" xlink:href="#DejaVuSans-111"/>
      <use x="177.046875" xlink:href="#DejaVuSans-103"/>
      <use x="240.523438" xlink:href="#DejaVuSans-97"/>
     </g>
    </g>
   </g>
   <g id="line2d_23">
    <path clip-path="url(#p714be1a655)" d="M 73.832727 295.488 
L 77.079273 295.488 
L 80.325818 290.329714 
L 83.572364 290.766779 
L 86.818909 291.797484 
L 90.065455 292.372768 
L 93.312 292.107966 
L 96.558545 291.649411 
L 99.805091 292.082588 
L 103.051636 291.878032 
L 106.298182 291.697997 
L 109.544727 292.08612 
L 112.791273 291.866578 
L 116.037818 292.590179 
L 119.284364 292.107543 
L 122.530909 292.339305 
L 125.777455 292.404469 
L 129.024 292.505435 
L 132.270545 292.275653 
L 135.517091 292.402617 
L 138.763636 292.660368 
L 142.010182 292.709844 
L 145.256727 292.831616 
L 148.503273 292.609217 
L 151.749818 292.81681 
L 154.996364 292.68143 
L 158.242909 292.941188 
L 161.489455 293.21227 
L 164.736 293.084131 
L 167.982545 292.976592 
L 171.229091 293.071334 
L 174.475636 293.246114 
L 177.722182 293.109621 
L 180.968727 293.09155 
L 184.215273 293.010665 
L 187.461818 293.377318 
L 190.708364 293.430234 
L 193.954909 293.548288 
L 197.201455 293.537226 
L 200.448 293.505286 
L 203.694545 293.325045 
L 206.941091 293.769441 
L 210.187636 293.533388 
L 213.434182 293.645135 
L 216.680727 293.838819 
L 219.927273 293.881963 
L 223.173818 293.823939 
L 226.420364 293.955938 
L 229.666909 293.794629 
L 232.913455 293.941292 
L 236.16 294.054537 
L 239.406545 294.034558 
L 242.653091 293.948754 
L 245.899636 294.109082 
L 249.146182 294.100027 
L 252.392727 294.173954 
L 255.639273 294.227813 
L 258.885818 294.150967 
L 262.132364 294.263382 
L 265.378909 294.247504 
L 268.625455 294.197527 
L 271.872 294.291073 
L 275.118545 294.262117 
L 278.365091 294.243101 
L 281.611636 294.31643 
L 284.858182 294.31051 
L 288.104727 294.328131 
L 291.351273 294.353932 
L 294.597818 294.343105 
L 297.844364 294.27778 
L 301.090909 294.300807 
L 304.337455 294.310641 
L 307.584 294.4992 
L 310.830545 294.434017 
L 314.077091 294.42625 
L 317.323636 294.353159 
L 320.570182 294.491651 
L 323.816727 294.556485 
L 327.063273 294.464923 
L 330.309818 294.512992 
L 333.556364 294.528566 
L 336.802909 294.590619 
L 340.049455 294.47053 
L 343.296 294.524466 
L 346.542545 294.590081 
L 349.789091 294.53747 
L 353.035636 294.590816 
L 356.282182 294.57319 
L 359.528727 294.548205 
L 362.775273 294.552623 
L 366.021818 294.608422 
L 369.268364 294.592366 
L 372.514909 294.655614 
L 375.761455 294.664259 
L 379.008 294.648676 
L 382.254545 294.705596 
L 385.501091 294.676347 
L 388.747636 294.679383 
L 391.994182 294.685678 
L 395.240727 294.69701 
L 398.487273 294.673418 
" style="fill:none;stroke:#1f77b4;stroke-linecap:square;stroke-width:1.5;"/>
   </g>
   <g id="line2d_24">
    <path clip-path="url(#p714be1a655)" d="M 73.832727 295.488 
L 77.079273 295.488 
L 80.325818 285.19709 
L 83.572364 286.369319 
L 86.818909 288.602157 
L 90.065455 289.407762 
L 93.312 289.316549 
L 96.558545 288.060399 
L 99.805091 289.400389 
L 103.051636 289.00401 
L 106.298182 288.776004 
L 109.544727 289.709674 
L 112.791273 289.276521 
L 116.037818 290.575933 
L 119.284364 290.224004 
L 122.530909 290.353252 
L 125.777455 290.753659 
L 129.024 290.892592 
L 132.270545 290.818898 
L 135.517091 291.038675 
L 138.763636 291.341883 
L 142.010182 291.515575 
L 145.256727 291.466374 
L 148.503273 291.235508 
L 151.749818 291.569689 
L 154.996364 291.508428 
L 158.242909 292.245172 
L 161.489455 292.531471 
L 164.736 292.458906 
L 167.982545 292.48909 
L 171.229091 292.600999 
L 174.475636 292.549898 
L 177.722182 292.439933 
L 180.968727 292.716421 
L 184.215273 292.637977 
L 187.461818 293.009716 
L 190.708364 293.075668 
L 193.954909 293.348195 
L 197.201455 293.327434 
L 200.448 293.387355 
L 203.694545 293.26895 
L 206.941091 293.614721 
L 210.187636 293.538454 
L 213.434182 293.484776 
L 216.680727 293.766949 
L 219.927273 293.825645 
L 223.173818 293.78843 
L 226.420364 293.944054 
L 229.666909 293.738993 
L 232.913455 293.961703 
L 236.16 294.001613 
L 239.406545 294.001381 
L 242.653091 294.001435 
L 245.899636 294.170774 
L 249.146182 294.149412 
L 252.392727 294.139906 
L 255.639273 294.291292 
L 258.885818 294.170036 
L 262.132364 294.288207 
L 265.378909 294.338047 
L 268.625455 294.258364 
L 271.872 294.349176 
L 275.118545 294.337848 
L 278.365091 294.286541 
L 281.611636 294.351781 
L 284.858182 294.341549 
L 288.104727 294.383354 
L 291.351273 294.40484 
L 294.597818 294.415727 
L 297.844364 294.355075 
L 301.090909 294.340174 
L 304.337455 294.385303 
L 307.584 294.554326 
L 310.830545 294.486394 
L 314.077091 294.46063 
L 317.323636 294.459757 
L 320.570182 294.553158 
L 323.816727 294.584179 
L 327.063273 294.544736 
L 330.309818 294.561151 
L 333.556364 294.572797 
L 336.802909 294.65375 
L 340.049455 294.521528 
L 343.296 294.572542 
L 346.542545 294.642675 
L 349.789091 294.573422 
L 353.035636 294.629756 
L 356.282182 294.634811 
L 359.528727 294.59391 
L 362.775273 294.60093 
L 366.021818 294.666382 
L 369.268364 294.643949 
L 372.514909 294.689525 
L 375.761455 294.691044 
L 379.008 294.695356 
L 382.254545 294.740731 
L 385.501091 294.732263 
L 388.747636 294.710496 
L 391.994182 294.72602 
L 395.240727 294.734629 
L 398.487273 294.712593 
" style="fill:none;stroke:#ff7f0e;stroke-linecap:square;stroke-width:1.5;"/>
   </g>
   <g id="line2d_25">
    <path clip-path="url(#p714be1a655)" d="M 73.832727 295.488 
L 77.079273 295.488 
L 80.325818 269.951298 
L 83.572364 275.801932 
L 86.818909 280.701189 
L 90.065455 282.224669 
L 93.312 282.740237 
L 96.558545 281.543883 
L 99.805091 283.061096 
L 103.051636 283.942959 
L 106.298182 283.046984 
L 109.544727 286.097843 
L 112.791273 285.968427 
L 116.037818 287.441928 
L 119.284364 287.636938 
L 122.530909 288.918923 
L 125.777455 288.943076 
L 129.024 289.829374 
L 132.270545 289.308696 
L 135.517091 289.86567 
L 138.763636 290.578315 
L 142.010182 290.682837 
L 145.256727 290.757187 
L 148.503273 290.980297 
L 151.749818 291.344104 
L 154.996364 291.060957 
L 158.242909 292.367728 
L 161.489455 292.482124 
L 164.736 292.422081 
L 167.982545 292.352763 
L 171.229091 292.722127 
L 174.475636 292.791846 
L 177.722182 292.633089 
L 180.968727 292.710669 
L 184.215273 292.684387 
L 187.461818 293.078306 
L 190.708364 293.240043 
L 193.954909 293.394696 
L 197.201455 293.346097 
L 200.448 293.512368 
L 203.694545 293.404732 
L 206.941091 293.702564 
L 210.187636 293.619925 
L 213.434182 293.68324 
L 216.680727 293.880711 
L 219.927273 293.876808 
L 223.173818 293.871128 
L 226.420364 294.01128 
L 229.666909 293.832714 
L 232.913455 294.042506 
L 236.16 294.151256 
L 239.406545 294.148716 
L 242.653091 294.098765 
L 245.899636 294.277838 
L 249.146182 294.208756 
L 252.392727 294.230495 
L 255.639273 294.327896 
L 258.885818 294.236112 
L 262.132364 294.359711 
L 265.378909 294.425981 
L 268.625455 294.340622 
L 271.872 294.423506 
L 275.118545 294.408576 
L 278.365091 294.357966 
L 281.611636 294.409636 
L 284.858182 294.413868 
L 288.104727 294.434639 
L 291.351273 294.451801 
L 294.597818 294.463291 
L 297.844364 294.438077 
L 301.090909 294.426894 
L 304.337455 294.434043 
L 307.584 294.579823 
L 310.830545 294.556408 
L 314.077091 294.495863 
L 317.323636 294.5165 
L 320.570182 294.588221 
L 323.816727 294.635409 
L 327.063273 294.580585 
L 330.309818 294.60419 
L 333.556364 294.614192 
L 336.802909 294.678033 
L 340.049455 294.592145 
L 343.296 294.59947 
L 346.542545 294.670054 
L 349.789091 294.614295 
L 353.035636 294.668861 
L 356.282182 294.669991 
L 359.528727 294.651915 
L 362.775273 294.640784 
L 366.021818 294.68451 
L 369.268364 294.671958 
L 372.514909 294.717092 
L 375.761455 294.72839 
L 379.008 294.729946 
L 382.254545 294.762115 
L 385.501091 294.768097 
L 388.747636 294.736472 
L 391.994182 294.770609 
L 395.240727 294.761698 
L 398.487273 294.74977 
" style="fill:none;stroke:#2ca02c;stroke-linecap:square;stroke-width:1.5;"/>
   </g>
   <g id="line2d_26">
    <path clip-path="url(#p714be1a655)" d="M 73.832727 295.488 
L 77.079273 295.488 
L 80.325818 247.439538 
L 83.572364 257.36913 
L 86.818909 270.906221 
L 90.065455 271.619051 
L 93.312 276.435874 
L 96.558545 277.583089 
L 99.805091 280.241756 
L 103.051636 279.212278 
L 106.298182 280.446295 
L 109.544727 284.445104 
L 112.791273 285.367034 
L 116.037818 287.656361 
L 119.284364 288.219904 
L 122.530909 289.190591 
L 125.777455 289.104066 
L 129.024 289.768996 
L 132.270545 290.212421 
L 135.517091 290.298521 
L 138.763636 290.663353 
L 142.010182 290.873693 
L 145.256727 291.231887 
L 148.503273 291.116576 
L 151.749818 291.495461 
L 154.996364 291.63939 
L 158.242909 292.47578 
L 161.489455 292.682154 
L 164.736 292.611471 
L 167.982545 292.641304 
L 171.229091 292.888271 
L 174.475636 292.91191 
L 177.722182 292.873736 
L 180.968727 292.88433 
L 184.215273 292.800262 
L 187.461818 293.246784 
L 190.708364 293.406505 
L 193.954909 293.497094 
L 197.201455 293.48658 
L 200.448 293.606802 
L 203.694545 293.488715 
L 206.941091 293.813496 
L 210.187636 293.681055 
L 213.434182 293.780734 
L 216.680727 293.933652 
L 219.927273 293.960538 
L 223.173818 293.867687 
L 226.420364 294.077012 
L 229.666909 293.919775 
L 232.913455 294.070487 
L 236.16 294.175054 
L 239.406545 294.17544 
L 242.653091 294.126598 
L 245.899636 294.306855 
L 249.146182 294.243648 
L 252.392727 294.250603 
L 255.639273 294.357994 
L 258.885818 294.264478 
L 262.132364 294.374009 
L 265.378909 294.449056 
L 268.625455 294.36067 
L 271.872 294.443002 
L 275.118545 294.421152 
L 278.365091 294.373033 
L 281.611636 294.444118 
L 284.858182 294.443512 
L 288.104727 294.454561 
L 291.351273 294.473249 
L 294.597818 294.473751 
L 297.844364 294.452867 
L 301.090909 294.460264 
L 304.337455 294.468217 
L 307.584 294.593065 
L 310.830545 294.568988 
L 314.077091 294.496392 
L 317.323636 294.52701 
L 320.570182 294.598661 
L 323.816727 294.640099 
L 327.063273 294.606356 
L 330.309818 294.613219 
L 333.556364 294.624459 
L 336.802909 294.690943 
L 340.049455 294.62146 
L 343.296 294.632205 
L 346.542545 294.681558 
L 349.789091 294.625517 
L 353.035636 294.68155 
L 356.282182 294.681473 
L 359.528727 294.676069 
L 362.775273 294.660017 
L 366.021818 294.699477 
L 369.268364 294.679637 
L 372.514909 294.733507 
L 375.761455 294.737625 
L 379.008 294.748738 
L 382.254545 294.770261 
L 385.501091 294.783203 
L 388.747636 294.748161 
L 391.994182 294.776572 
L 395.240727 294.770179 
L 398.487273 294.762857 
" style="fill:none;stroke:#d62728;stroke-linecap:square;stroke-width:1.5;"/>
   </g>
   <g id="line2d_27">
    <path clip-path="url(#p714be1a655)" d="M 73.832727 295.488 
L 77.079273 295.488 
L 80.325818 212.080089 
L 83.572364 235.001037 
L 86.818909 262.023956 
L 90.065455 261.448192 
L 93.312 276.001029 
L 96.558545 275.668383 
L 99.805091 278.266094 
L 103.051636 279.16752 
L 106.298182 280.572909 
L 109.544727 285.509279 
L 112.791273 285.868881 
L 116.037818 287.993826 
L 119.284364 288.639131 
L 122.530909 289.545138 
L 125.777455 289.729142 
L 129.024 290.101865 
L 132.270545 290.499517 
L 135.517091 290.4545 
L 138.763636 290.987826 
L 142.010182 291.09136 
L 145.256727 291.399481 
L 148.503273 291.516968 
L 151.749818 291.636455 
L 154.996364 291.852567 
L 158.242909 292.535907 
L 161.489455 292.737114 
L 164.736 292.743612 
L 167.982545 292.718545 
L 171.229091 292.962515 
L 174.475636 293.02767 
L 177.722182 292.968716 
L 180.968727 293.075105 
L 184.215273 292.928358 
L 187.461818 293.391887 
L 190.708364 293.444925 
L 193.954909 293.54686 
L 197.201455 293.558508 
L 200.448 293.633325 
L 203.694545 293.554721 
L 206.941091 293.835035 
L 210.187636 293.70909 
L 213.434182 293.839455 
L 216.680727 293.972196 
L 219.927273 293.998304 
L 223.173818 293.903883 
L 226.420364 294.096812 
L 229.666909 293.949002 
L 232.913455 294.100063 
L 236.16 294.174043 
L 239.406545 294.214838 
L 242.653091 294.14457 
L 245.899636 294.336782 
L 249.146182 294.243749 
L 252.392727 294.256283 
L 255.639273 294.374432 
L 258.885818 294.287346 
L 262.132364 294.387506 
L 265.378909 294.43972 
L 268.625455 294.391988 
L 271.872 294.452318 
L 275.118545 294.437125 
L 278.365091 294.373072 
L 281.611636 294.459591 
L 284.858182 294.451957 
L 288.104727 294.45869 
L 291.351273 294.485949 
L 294.597818 294.488057 
L 297.844364 294.462274 
L 301.090909 294.479509 
L 304.337455 294.481457 
L 307.584 294.601926 
L 310.830545 294.569598 
L 314.077091 294.510814 
L 317.323636 294.531942 
L 320.570182 294.60311 
L 323.816727 294.650608 
L 327.063273 294.610469 
L 330.309818 294.624654 
L 333.556364 294.643695 
L 336.802909 294.694493 
L 340.049455 294.628224 
L 343.296 294.635703 
L 346.542545 294.683603 
L 349.789091 294.631812 
L 353.035636 294.688729 
L 356.282182 294.695256 
L 359.528727 294.684221 
L 362.775273 294.666897 
L 366.021818 294.715191 
L 369.268364 294.683846 
L 372.514909 294.742354 
L 375.761455 294.739495 
L 379.008 294.752737 
L 382.254545 294.775187 
L 385.501091 294.7904 
L 388.747636 294.753326 
L 391.994182 294.782364 
L 395.240727 294.770466 
L 398.487273 294.769273 
" style="fill:none;stroke:#9467bd;stroke-linecap:square;stroke-width:1.5;"/>
   </g>
   <g id="line2d_28">
    <path clip-path="url(#p714be1a655)" d="M 73.832727 295.488 
L 77.079273 295.488 
L 80.325818 151.668133 
L 83.572364 237.269262 
L 86.818909 265.63242 
L 90.065455 266.707542 
L 93.312 278.00221 
L 96.558545 278.808988 
L 99.805091 281.644216 
L 103.051636 281.31301 
L 106.298182 282.934555 
L 109.544727 285.702612 
L 112.791273 286.584227 
L 116.037818 288.275755 
L 119.284364 288.940545 
L 122.530909 289.480001 
L 125.777455 290.194749 
L 129.024 290.39243 
L 132.270545 290.478774 
L 135.517091 290.554599 
L 138.763636 291.184496 
L 142.010182 291.119109 
L 145.256727 291.590052 
L 148.503273 291.826802 
L 151.749818 291.75391 
L 154.996364 292.010275 
L 158.242909 292.577152 
L 161.489455 292.721675 
L 164.736 292.796227 
L 167.982545 292.731424 
L 171.229091 292.987842 
L 174.475636 293.121479 
L 177.722182 293.009134 
L 180.968727 293.063776 
L 184.215273 293.045375 
L 187.461818 293.428002 
L 190.708364 293.522617 
L 193.954909 293.57375 
L 197.201455 293.613203 
L 200.448 293.66917 
L 203.694545 293.560718 
L 206.941091 293.835133 
L 210.187636 293.766763 
L 213.434182 293.865547 
L 216.680727 294.015128 
L 219.927273 294.000669 
L 223.173818 293.93575 
L 226.420364 294.110689 
L 229.666909 294.019256 
L 232.913455 294.131434 
L 236.16 294.180051 
L 239.406545 294.233692 
L 242.653091 294.167426 
L 245.899636 294.349774 
L 249.146182 294.252205 
L 252.392727 294.24617 
L 255.639273 294.340947 
L 258.885818 294.298393 
L 262.132364 294.403307 
L 265.378909 294.441365 
L 268.625455 294.387504 
L 271.872 294.463094 
L 275.118545 294.433088 
L 278.365091 294.394498 
L 281.611636 294.458887 
L 284.858182 294.462134 
L 288.104727 294.447556 
L 291.351273 294.498517 
L 294.597818 294.495097 
L 297.844364 294.473806 
L 301.090909 294.499655 
L 304.337455 294.505755 
L 307.584 294.606418 
L 310.830545 294.579294 
L 314.077091 294.515738 
L 317.323636 294.567766 
L 320.570182 294.621254 
L 323.816727 294.655646 
L 327.063273 294.609946 
L 330.309818 294.629638 
L 333.556364 294.649333 
L 336.802909 294.688342 
L 340.049455 294.651405 
L 343.296 294.642495 
L 346.542545 294.679163 
L 349.789091 294.646127 
L 353.035636 294.696237 
L 356.282182 294.70084 
L 359.528727 294.686435 
L 362.775273 294.683184 
L 366.021818 294.7183 
L 369.268364 294.684599 
L 372.514909 294.753521 
L 375.761455 294.743987 
L 379.008 294.760809 
L 382.254545 294.780208 
L 385.501091 294.792878 
L 388.747636 294.755722 
L 391.994182 294.786161 
L 395.240727 294.778257 
L 398.487273 294.78143 
" style="fill:none;stroke:#8c564b;stroke-linecap:square;stroke-width:1.5;"/>
   </g>
   <g id="line2d_29">
    <path clip-path="url(#p714be1a655)" d="M 73.832727 295.488 
L 77.079273 295.488 
L 80.325818 53.568 
L 83.572364 238.897678 
L 86.818909 266.278504 
L 90.065455 270.213347 
L 93.312 277.871211 
L 96.558545 278.549427 
L 99.805091 281.982297 
L 103.051636 281.77188 
L 106.298182 283.751202 
L 109.544727 285.508196 
L 112.791273 286.774249 
L 116.037818 288.244314 
L 119.284364 289.102721 
L 122.530909 289.295677 
L 125.777455 290.227903 
L 129.024 290.519139 
L 132.270545 290.604156 
L 135.517091 290.494181 
L 138.763636 291.33504 
L 142.010182 291.149066 
L 145.256727 291.683567 
L 148.503273 291.770988 
L 151.749818 291.845543 
L 154.996364 292.033267 
L 158.242909 292.623012 
L 161.489455 292.738053 
L 164.736 292.796578 
L 167.982545 292.719885 
L 171.229091 292.948273 
L 174.475636 293.130352 
L 177.722182 293.001497 
L 180.968727 293.07978 
L 184.215273 293.065215 
L 187.461818 293.471476 
L 190.708364 293.509255 
L 193.954909 293.569184 
L 197.201455 293.600971 
L 200.448 293.699554 
L 203.694545 293.598597 
L 206.941091 293.823697 
L 210.187636 293.802 
L 213.434182 293.885171 
L 216.680727 294.015052 
L 219.927273 294.024244 
L 223.173818 293.966328 
L 226.420364 294.100022 
L 229.666909 294.019083 
L 232.913455 294.133433 
L 236.16 294.185767 
L 239.406545 294.236748 
L 242.653091 294.161739 
L 245.899636 294.352756 
L 249.146182 294.286642 
L 252.392727 294.242278 
L 255.639273 294.354391 
L 258.885818 294.31138 
L 262.132364 294.379882 
L 265.378909 294.425086 
L 268.625455 294.389379 
L 271.872 294.455909 
L 275.118545 294.404825 
L 278.365091 294.398307 
L 281.611636 294.447159 
L 284.858182 294.455277 
L 288.104727 294.43934 
L 291.351273 294.474833 
L 294.597818 294.489491 
L 297.844364 294.480961 
L 301.090909 294.5143 
L 304.337455 294.514621 
L 307.584 294.606127 
L 310.830545 294.580263 
L 314.077091 294.530861 
L 317.323636 294.565232 
L 320.570182 294.631315 
L 323.816727 294.657126 
L 327.063273 294.611465 
L 330.309818 294.637465 
L 333.556364 294.649547 
L 336.802909 294.694931 
L 340.049455 294.651422 
L 343.296 294.660884 
L 346.542545 294.67321 
L 349.789091 294.632548 
L 353.035636 294.704556 
L 356.282182 294.710484 
L 359.528727 294.694753 
L 362.775273 294.68951 
L 366.021818 294.718335 
L 369.268364 294.701046 
L 372.514909 294.761594 
L 375.761455 294.74885 
L 379.008 294.76955 
L 382.254545 294.772883 
L 385.501091 294.792343 
L 388.747636 294.757456 
L 391.994182 294.792394 
L 395.240727 294.781995 
L 398.487273 294.782957 
" style="fill:none;stroke:#e377c2;stroke-linecap:square;stroke-width:1.5;"/>
   </g>
   <g id="patch_3">
    <path d="M 57.6 307.584 
L 57.6 41.472 
" style="fill:none;stroke:#000000;stroke-linecap:square;stroke-linejoin:miter;stroke-width:0.8;"/>
   </g>
   <g id="patch_4">
    <path d="M 414.72 307.584 
L 414.72 41.472 
" style="fill:none;stroke:#000000;stroke-linecap:square;stroke-linejoin:miter;stroke-width:0.8;"/>
   </g>
   <g id="patch_5">
    <path d="M 57.6 307.584 
L 414.72 307.584 
" style="fill:none;stroke:#000000;stroke-linecap:square;stroke-linejoin:miter;stroke-width:0.8;"/>
   </g>
   <g id="patch_6">
    <path d="M 57.6 41.472 
L 414.72 41.472 
" style="fill:none;stroke:#000000;stroke-linecap:square;stroke-linejoin:miter;stroke-width:0.8;"/>
   </g>
   <g id="legend_1">
    <g id="patch_7">
     <path d="M 326.905938 152.218875 
L 407.72 152.218875 
Q 409.72 152.218875 409.72 150.218875 
L 409.72 48.472 
Q 409.72 46.472 407.72 46.472 
L 326.905938 46.472 
Q 324.905938 46.472 324.905938 48.472 
L 324.905938 150.218875 
Q 324.905938 152.218875 326.905938 152.218875 
z
" style="fill:#ffffff;opacity:0.8;stroke:#cccccc;stroke-linejoin:miter;"/>
    </g>
    <g id="line2d_30">
     <path d="M 328.905938 54.570438 
L 348.905938 54.570438 
" style="fill:none;stroke:#1f77b4;stroke-linecap:square;stroke-width:1.5;"/>
    </g>
    <g id="line2d_31"/>
    <g id="text_14">
     <!-- M = 10 -->
     <g transform="translate(356.905938 58.070438)scale(0.1 -0.1)">
      <defs>
       <path d="M 9.8125 72.90625 
L 24.515625 72.90625 
L 43.109375 23.296875 
L 61.8125 72.90625 
L 76.515625 72.90625 
L 76.515625 0 
L 66.890625 0 
L 66.890625 64.015625 
L 48.09375 14.015625 
L 38.1875 14.015625 
L 19.390625 64.015625 
L 19.390625 0 
L 9.8125 0 
z
" id="DejaVuSans-77"/>
       <path d="M 10.59375 45.40625 
L 73.1875 45.40625 
L 73.1875 37.203125 
L 10.59375 37.203125 
z
M 10.59375 25.484375 
L 73.1875 25.484375 
L 73.1875 17.1875 
L 10.59375 17.1875 
z
" id="DejaVuSans-61"/>
      </defs>
      <use xlink:href="#DejaVuSans-77"/>
      <use x="86.279297" xlink:href="#DejaVuSans-32"/>
      <use x="118.066406" xlink:href="#DejaVuSans-61"/>
      <use x="201.855469" xlink:href="#DejaVuSans-32"/>
      <use x="233.642578" xlink:href="#DejaVuSans-49"/>
      <use x="297.265625" xlink:href="#DejaVuSans-48"/>
     </g>
    </g>
    <g id="line2d_32">
     <path d="M 328.905938 69.248563 
L 348.905938 69.248563 
" style="fill:none;stroke:#ff7f0e;stroke-linecap:square;stroke-width:1.5;"/>
    </g>
    <g id="line2d_33"/>
    <g id="text_15">
     <!-- M = 20 -->
     <g transform="translate(356.905938 72.748563)scale(0.1 -0.1)">
      <use xlink:href="#DejaVuSans-77"/>
      <use x="86.279297" xlink:href="#DejaVuSans-32"/>
      <use x="118.066406" xlink:href="#DejaVuSans-61"/>
      <use x="201.855469" xlink:href="#DejaVuSans-32"/>
      <use x="233.642578" xlink:href="#DejaVuSans-50"/>
      <use x="297.265625" xlink:href="#DejaVuSans-48"/>
     </g>
    </g>
    <g id="line2d_34">
     <path d="M 328.905938 83.926688 
L 348.905938 83.926688 
" style="fill:none;stroke:#2ca02c;stroke-linecap:square;stroke-width:1.5;"/>
    </g>
    <g id="line2d_35"/>
    <g id="text_16">
     <!-- M = 50 -->
     <g transform="translate(356.905938 87.426688)scale(0.1 -0.1)">
      <defs>
       <path d="M 10.796875 72.90625 
L 49.515625 72.90625 
L 49.515625 64.59375 
L 19.828125 64.59375 
L 19.828125 46.734375 
Q 21.96875 47.46875 24.109375 47.828125 
Q 26.265625 48.1875 28.421875 48.1875 
Q 40.625 48.1875 47.75 41.5 
Q 54.890625 34.8125 54.890625 23.390625 
Q 54.890625 11.625 47.5625 5.09375 
Q 40.234375 -1.421875 26.90625 -1.421875 
Q 22.3125 -1.421875 17.546875 -0.640625 
Q 12.796875 0.140625 7.71875 1.703125 
L 7.71875 11.625 
Q 12.109375 9.234375 16.796875 8.0625 
Q 21.484375 6.890625 26.703125 6.890625 
Q 35.15625 6.890625 40.078125 11.328125 
Q 45.015625 15.765625 45.015625 23.390625 
Q 45.015625 31 40.078125 35.4375 
Q 35.15625 39.890625 26.703125 39.890625 
Q 22.75 39.890625 18.8125 39.015625 
Q 14.890625 38.140625 10.796875 36.28125 
z
" id="DejaVuSans-53"/>
      </defs>
      <use xlink:href="#DejaVuSans-77"/>
      <use x="86.279297" xlink:href="#DejaVuSans-32"/>
      <use x="118.066406" xlink:href="#DejaVuSans-61"/>
      <use x="201.855469" xlink:href="#DejaVuSans-32"/>
      <use x="233.642578" xlink:href="#DejaVuSans-53"/>
      <use x="297.265625" xlink:href="#DejaVuSans-48"/>
     </g>
    </g>
    <g id="line2d_36">
     <path d="M 328.905938 98.604813 
L 348.905938 98.604813 
" style="fill:none;stroke:#d62728;stroke-linecap:square;stroke-width:1.5;"/>
    </g>
    <g id="line2d_37"/>
    <g id="text_17">
     <!-- M = 100 -->
     <g transform="translate(356.905938 102.104813)scale(0.1 -0.1)">
      <use xlink:href="#DejaVuSans-77"/>
      <use x="86.279297" xlink:href="#DejaVuSans-32"/>
      <use x="118.066406" xlink:href="#DejaVuSans-61"/>
      <use x="201.855469" xlink:href="#DejaVuSans-32"/>
      <use x="233.642578" xlink:href="#DejaVuSans-49"/>
      <use x="297.265625" xlink:href="#DejaVuSans-48"/>
      <use x="360.888672" xlink:href="#DejaVuSans-48"/>
     </g>
    </g>
    <g id="line2d_38">
     <path d="M 328.905938 113.282938 
L 348.905938 113.282938 
" style="fill:none;stroke:#9467bd;stroke-linecap:square;stroke-width:1.5;"/>
    </g>
    <g id="line2d_39"/>
    <g id="text_18">
     <!-- M = 200 -->
     <g transform="translate(356.905938 116.782938)scale(0.1 -0.1)">
      <use xlink:href="#DejaVuSans-77"/>
      <use x="86.279297" xlink:href="#DejaVuSans-32"/>
      <use x="118.066406" xlink:href="#DejaVuSans-61"/>
      <use x="201.855469" xlink:href="#DejaVuSans-32"/>
      <use x="233.642578" xlink:href="#DejaVuSans-50"/>
      <use x="297.265625" xlink:href="#DejaVuSans-48"/>
      <use x="360.888672" xlink:href="#DejaVuSans-48"/>
     </g>
    </g>
    <g id="line2d_40">
     <path d="M 328.905938 127.961063 
L 348.905938 127.961063 
" style="fill:none;stroke:#8c564b;stroke-linecap:square;stroke-width:1.5;"/>
    </g>
    <g id="line2d_41"/>
    <g id="text_19">
     <!-- M = 500 -->
     <g transform="translate(356.905938 131.461063)scale(0.1 -0.1)">
      <use xlink:href="#DejaVuSans-77"/>
      <use x="86.279297" xlink:href="#DejaVuSans-32"/>
      <use x="118.066406" xlink:href="#DejaVuSans-61"/>
      <use x="201.855469" xlink:href="#DejaVuSans-32"/>
      <use x="233.642578" xlink:href="#DejaVuSans-53"/>
      <use x="297.265625" xlink:href="#DejaVuSans-48"/>
      <use x="360.888672" xlink:href="#DejaVuSans-48"/>
     </g>
    </g>
    <g id="line2d_42">
     <path d="M 328.905938 142.639188 
L 348.905938 142.639188 
" style="fill:none;stroke:#e377c2;stroke-linecap:square;stroke-width:1.5;"/>
    </g>
    <g id="line2d_43"/>
    <g id="text_20">
     <!-- M = 1000 -->
     <g transform="translate(356.905938 146.139188)scale(0.1 -0.1)">
      <use xlink:href="#DejaVuSans-77"/>
      <use x="86.279297" xlink:href="#DejaVuSans-32"/>
      <use x="118.066406" xlink:href="#DejaVuSans-61"/>
      <use x="201.855469" xlink:href="#DejaVuSans-32"/>
      <use x="233.642578" xlink:href="#DejaVuSans-49"/>
      <use x="297.265625" xlink:href="#DejaVuSans-48"/>
      <use x="360.888672" xlink:href="#DejaVuSans-48"/>
      <use x="424.511719" xlink:href="#DejaVuSans-48"/>
     </g>
    </g>
   </g>
  </g>
  <g id="text_21">
   <!-- λ(N) -->
   <g transform="translate(217.678125 16.030125)scale(0.12 -0.12)">
    <defs>
     <path d="M 30.953125 67.4375 
L 56.203125 0 
L 46.6875 0 
L 31.34375 40.4375 
L 12.5 0 
L 2.984375 0 
L 26.953125 52.4375 
L 23.34375 62.109375 
Q 21.046875 68.265625 15.828125 68.265625 
L 11.140625 68.265625 
L 11.140625 75.984375 
L 16.84375 75.875 
Q 27.875 75.734375 30.953125 67.4375 
z
" id="DejaVuSans-955"/>
     <path d="M 31 75.875 
Q 24.46875 64.65625 21.28125 53.65625 
Q 18.109375 42.671875 18.109375 31.390625 
Q 18.109375 20.125 21.3125 9.0625 
Q 24.515625 -2 31 -13.1875 
L 23.1875 -13.1875 
Q 15.875 -1.703125 12.234375 9.375 
Q 8.59375 20.453125 8.59375 31.390625 
Q 8.59375 42.28125 12.203125 53.3125 
Q 15.828125 64.359375 23.1875 75.875 
z
" id="DejaVuSans-40"/>
     <path d="M 9.8125 72.90625 
L 23.09375 72.90625 
L 55.421875 11.921875 
L 55.421875 72.90625 
L 64.984375 72.90625 
L 64.984375 0 
L 51.703125 0 
L 19.390625 60.984375 
L 19.390625 0 
L 9.8125 0 
z
" id="DejaVuSans-78"/>
     <path d="M 8.015625 75.875 
L 15.828125 75.875 
Q 23.140625 64.359375 26.78125 53.3125 
Q 30.421875 42.28125 30.421875 31.390625 
Q 30.421875 20.453125 26.78125 9.375 
Q 23.140625 -1.703125 15.828125 -13.1875 
L 8.015625 -13.1875 
Q 14.5 -2 17.703125 9.0625 
Q 20.90625 20.125 20.90625 31.390625 
Q 20.90625 42.671875 17.703125 53.65625 
Q 14.5 64.65625 8.015625 75.875 
z
" id="DejaVuSans-41"/>
    </defs>
    <use xlink:href="#DejaVuSans-955"/>
    <use x="59.179688" xlink:href="#DejaVuSans-40"/>
    <use x="98.193359" xlink:href="#DejaVuSans-78"/>
    <use x="172.998047" xlink:href="#DejaVuSans-41"/>
   </g>
  </g>
 </g>
 <defs>
  <clipPath id="p714be1a655">
   <rect height="266.112" width="357.12" x="57.6" y="41.472"/>
  </clipPath>
 </defs>
</svg>
